<?xml version="1.0" encoding="utf-8" standalone="no"?>
<!DOCTYPE svg PUBLIC "-//W3C//DTD SVG 1.1//EN"
  "http://www.w3.org/Graphics/SVG/1.1/DTD/svg11.dtd">
<!-- Created with matplotlib (https://matplotlib.org/) -->
<svg height="345.6pt" version="1.1" viewBox="0 0 460.8 345.6" width="460.8pt" xmlns="http://www.w3.org/2000/svg" xmlns:xlink="http://www.w3.org/1999/xlink">
 <defs>
  <style type="text/css">
*{stroke-linecap:butt;stroke-linejoin:round;}
  </style>
 </defs>
 <g id="figure_1">
  <g id="patch_1">
   <path d="M 0 345.6 
L 460.8 345.6 
L 460.8 0 
L 0 0 
z
" style="fill:#ffffff;"/>
  </g>
  <g id="axes_1">
   <g id="patch_2">
    <path d="M 57.6 307.584 
L 414.72 307.584 
L 414.72 41.472 
L 57.6 41.472 
z
" style="fill:#ffffff;"/>
   </g>
   <g id="matplotlib.axis_1">
    <g id="xtick_1">
     <g id="line2d_1">
      <defs>
       <path d="M 0 0 
L 0 3.5 
" id="m4afc9d243b" style="stroke:#000000;stroke-width:0.8;"/>
      </defs>
      <g>
       <use style="stroke:#000000;stroke-width:0.8;" x="74.43062" xlink:href="#m4afc9d243b" y="307.584"/>
      </g>
     </g>
     <g id="text_1">
      <!-- 0 -->
      <defs>
       <path d="M 31.78125 66.40625 
Q 24.171875 66.40625 20.328125 58.90625 
Q 16.5 51.421875 16.5 36.375 
Q 16.5 21.390625 20.328125 13.890625 
Q 24.171875 6.390625 31.78125 6.390625 
Q 39.453125 6.390625 43.28125 13.890625 
Q 47.125 21.390625 47.125 36.375 
Q 47.125 51.421875 43.28125 58.90625 
Q 39.453125 66.40625 31.78125 66.40625 
z
M 31.78125 74.21875 
Q 44.046875 74.21875 50.515625 64.515625 
Q 56.984375 54.828125 56.984375 36.375 
Q 56.984375 17.96875 50.515625 8.265625 
Q 44.046875 -1.421875 31.78125 -1.421875 
Q 19.53125 -1.421875 13.0625 8.265625 
Q 6.59375 17.96875 6.59375 36.375 
Q 6.59375 54.828125 13.0625 64.515625 
Q 19.53125 74.21875 31.78125 74.21875 
z
" id="DejaVuSans-48"/>
      </defs>
      <g transform="translate(71.24937 322.182437)scale(0.1 -0.1)">
       <use xlink:href="#DejaVuSans-48"/>
      </g>
     </g>
    </g>
    <g id="xtick_2">
     <g id="line2d_2">
      <g>
       <use style="stroke:#000000;stroke-width:0.8;" x="151.160252" xlink:href="#m4afc9d243b" y="307.584"/>
      </g>
     </g>
     <g id="text_2">
      <!-- 5 -->
      <defs>
       <path d="M 10.796875 72.90625 
L 49.515625 72.90625 
L 49.515625 64.59375 
L 19.828125 64.59375 
L 19.828125 46.734375 
Q 21.96875 47.46875 24.109375 47.828125 
Q 26.265625 48.1875 28.421875 48.1875 
Q 40.625 48.1875 47.75 41.5 
Q 54.890625 34.8125 54.890625 23.390625 
Q 54.890625 11.625 47.5625 5.09375 
Q 40.234375 -1.421875 26.90625 -1.421875 
Q 22.3125 -1.421875 17.546875 -0.640625 
Q 12.796875 0.140625 7.71875 1.703125 
L 7.71875 11.625 
Q 12.109375 9.234375 16.796875 8.0625 
Q 21.484375 6.890625 26.703125 6.890625 
Q 35.15625 6.890625 40.078125 11.328125 
Q 45.015625 15.765625 45.015625 23.390625 
Q 45.015625 31 40.078125 35.4375 
Q 35.15625 39.890625 26.703125 39.890625 
Q 22.75 39.890625 18.8125 39.015625 
Q 14.890625 38.140625 10.796875 36.28125 
z
" id="DejaVuSans-53"/>
      </defs>
      <g transform="translate(147.979002 322.182437)scale(0.1 -0.1)">
       <use xlink:href="#DejaVuSans-53"/>
      </g>
     </g>
    </g>
    <g id="xtick_3">
     <g id="line2d_3">
      <g>
       <use style="stroke:#000000;stroke-width:0.8;" x="227.889885" xlink:href="#m4afc9d243b" y="307.584"/>
      </g>
     </g>
     <g id="text_3">
      <!-- 10 -->
      <defs>
       <path d="M 12.40625 8.296875 
L 28.515625 8.296875 
L 28.515625 63.921875 
L 10.984375 60.40625 
L 10.984375 69.390625 
L 28.421875 72.90625 
L 38.28125 72.90625 
L 38.28125 8.296875 
L 54.390625 8.296875 
L 54.390625 0 
L 12.40625 0 
z
" id="DejaVuSans-49"/>
      </defs>
      <g transform="translate(221.527385 322.182437)scale(0.1 -0.1)">
       <use xlink:href="#DejaVuSans-49"/>
       <use x="63.623047" xlink:href="#DejaVuSans-48"/>
      </g>
     </g>
    </g>
    <g id="xtick_4">
     <g id="line2d_4">
      <g>
       <use style="stroke:#000000;stroke-width:0.8;" x="304.619517" xlink:href="#m4afc9d243b" y="307.584"/>
      </g>
     </g>
     <g id="text_4">
      <!-- 15 -->
      <g transform="translate(298.257017 322.182437)scale(0.1 -0.1)">
       <use xlink:href="#DejaVuSans-49"/>
       <use x="63.623047" xlink:href="#DejaVuSans-53"/>
      </g>
     </g>
    </g>
    <g id="xtick_5">
     <g id="line2d_5">
      <g>
       <use style="stroke:#000000;stroke-width:0.8;" x="381.34915" xlink:href="#m4afc9d243b" y="307.584"/>
      </g>
     </g>
     <g id="text_5">
      <!-- 20 -->
      <defs>
       <path d="M 19.1875 8.296875 
L 53.609375 8.296875 
L 53.609375 0 
L 7.328125 0 
L 7.328125 8.296875 
Q 12.9375 14.109375 22.625 23.890625 
Q 32.328125 33.6875 34.8125 36.53125 
Q 39.546875 41.84375 41.421875 45.53125 
Q 43.3125 49.21875 43.3125 52.78125 
Q 43.3125 58.59375 39.234375 62.25 
Q 35.15625 65.921875 28.609375 65.921875 
Q 23.96875 65.921875 18.8125 64.3125 
Q 13.671875 62.703125 7.8125 59.421875 
L 7.8125 69.390625 
Q 13.765625 71.78125 18.9375 73 
Q 24.125 74.21875 28.421875 74.21875 
Q 39.75 74.21875 46.484375 68.546875 
Q 53.21875 62.890625 53.21875 53.421875 
Q 53.21875 48.921875 51.53125 44.890625 
Q 49.859375 40.875 45.40625 35.40625 
Q 44.1875 33.984375 37.640625 27.21875 
Q 31.109375 20.453125 19.1875 8.296875 
z
" id="DejaVuSans-50"/>
      </defs>
      <g transform="translate(374.98665 322.182437)scale(0.1 -0.1)">
       <use xlink:href="#DejaVuSans-50"/>
       <use x="63.623047" xlink:href="#DejaVuSans-48"/>
      </g>
     </g>
    </g>
   </g>
   <g id="matplotlib.axis_2">
    <g id="ytick_1">
     <g id="line2d_6">
      <defs>
       <path d="M 0 0 
L -3.5 0 
" id="mad4d32f921" style="stroke:#000000;stroke-width:0.8;"/>
      </defs>
      <g>
       <use style="stroke:#000000;stroke-width:0.8;" x="57.6" xlink:href="#mad4d32f921" y="259.739339"/>
      </g>
     </g>
     <g id="text_6">
      <!-- −40 -->
      <defs>
       <path d="M 10.59375 35.5 
L 73.1875 35.5 
L 73.1875 27.203125 
L 10.59375 27.203125 
z
" id="DejaVuSans-8722"/>
       <path d="M 37.796875 64.3125 
L 12.890625 25.390625 
L 37.796875 25.390625 
z
M 35.203125 72.90625 
L 47.609375 72.90625 
L 47.609375 25.390625 
L 58.015625 25.390625 
L 58.015625 17.1875 
L 47.609375 17.1875 
L 47.609375 0 
L 37.796875 0 
L 37.796875 17.1875 
L 4.890625 17.1875 
L 4.890625 26.703125 
z
" id="DejaVuSans-52"/>
      </defs>
      <g transform="translate(29.495313 263.538558)scale(0.1 -0.1)">
       <use xlink:href="#DejaVuSans-8722"/>
       <use x="83.789062" xlink:href="#DejaVuSans-52"/>
       <use x="147.412109" xlink:href="#DejaVuSans-48"/>
      </g>
     </g>
    </g>
    <g id="ytick_2">
     <g id="line2d_7">
      <g>
       <use style="stroke:#000000;stroke-width:0.8;" x="57.6" xlink:href="#mad4d32f921" y="209.195881"/>
      </g>
     </g>
     <g id="text_7">
      <!-- −30 -->
      <defs>
       <path d="M 40.578125 39.3125 
Q 47.65625 37.796875 51.625 33 
Q 55.609375 28.21875 55.609375 21.1875 
Q 55.609375 10.40625 48.1875 4.484375 
Q 40.765625 -1.421875 27.09375 -1.421875 
Q 22.515625 -1.421875 17.65625 -0.515625 
Q 12.796875 0.390625 7.625 2.203125 
L 7.625 11.71875 
Q 11.71875 9.328125 16.59375 8.109375 
Q 21.484375 6.890625 26.8125 6.890625 
Q 36.078125 6.890625 40.9375 10.546875 
Q 45.796875 14.203125 45.796875 21.1875 
Q 45.796875 27.640625 41.28125 31.265625 
Q 36.765625 34.90625 28.71875 34.90625 
L 20.21875 34.90625 
L 20.21875 43.015625 
L 29.109375 43.015625 
Q 36.375 43.015625 40.234375 45.921875 
Q 44.09375 48.828125 44.09375 54.296875 
Q 44.09375 59.90625 40.109375 62.90625 
Q 36.140625 65.921875 28.71875 65.921875 
Q 24.65625 65.921875 20.015625 65.03125 
Q 15.375 64.15625 9.8125 62.3125 
L 9.8125 71.09375 
Q 15.4375 72.65625 20.34375 73.4375 
Q 25.25 74.21875 29.59375 74.21875 
Q 40.828125 74.21875 47.359375 69.109375 
Q 53.90625 64.015625 53.90625 55.328125 
Q 53.90625 49.265625 50.4375 45.09375 
Q 46.96875 40.921875 40.578125 39.3125 
z
" id="DejaVuSans-51"/>
      </defs>
      <g transform="translate(29.495313 212.9951)scale(0.1 -0.1)">
       <use xlink:href="#DejaVuSans-8722"/>
       <use x="83.789062" xlink:href="#DejaVuSans-51"/>
       <use x="147.412109" xlink:href="#DejaVuSans-48"/>
      </g>
     </g>
    </g>
    <g id="ytick_3">
     <g id="line2d_8">
      <g>
       <use style="stroke:#000000;stroke-width:0.8;" x="57.6" xlink:href="#mad4d32f921" y="158.652423"/>
      </g>
     </g>
     <g id="text_8">
      <!-- −20 -->
      <g transform="translate(29.495313 162.451642)scale(0.1 -0.1)">
       <use xlink:href="#DejaVuSans-8722"/>
       <use x="83.789062" xlink:href="#DejaVuSans-50"/>
       <use x="147.412109" xlink:href="#DejaVuSans-48"/>
      </g>
     </g>
    </g>
    <g id="ytick_4">
     <g id="line2d_9">
      <g>
       <use style="stroke:#000000;stroke-width:0.8;" x="57.6" xlink:href="#mad4d32f921" y="108.108966"/>
      </g>
     </g>
     <g id="text_9">
      <!-- −10 -->
      <g transform="translate(29.495313 111.908184)scale(0.1 -0.1)">
       <use xlink:href="#DejaVuSans-8722"/>
       <use x="83.789062" xlink:href="#DejaVuSans-49"/>
       <use x="147.412109" xlink:href="#DejaVuSans-48"/>
      </g>
     </g>
    </g>
    <g id="ytick_5">
     <g id="line2d_10">
      <g>
       <use style="stroke:#000000;stroke-width:0.8;" x="57.6" xlink:href="#mad4d32f921" y="57.565508"/>
      </g>
     </g>
     <g id="text_10">
      <!-- 0 -->
      <g transform="translate(44.2375 61.364726)scale(0.1 -0.1)">
       <use xlink:href="#DejaVuSans-48"/>
      </g>
     </g>
    </g>
   </g>
   <g id="line2d_11">
    <path clip-path="url(#pebef0bb2de)" d="M 74.365261 57.543147 
L 77.026198 57.655059 
L 102.519285 59.096323 
L 110.397648 59.859179 
L 116.945321 60.710546 
L 122.475584 61.647456 
L 127.194115 62.6663 
L 131.204996 63.753148 
L 134.63163 64.906888 
L 137.527277 66.111081 
L 139.986131 67.369989 
L 142.07583 68.686615 
L 143.858104 70.070105 
L 145.386576 71.535912 
L 146.704553 73.105298 
L 147.85314 74.820447 
L 148.836936 76.693493 
L 149.656077 78.732996 
L 150.316722 80.978915 
L 150.813129 83.466936 
L 151.141631 86.276179 
L 151.302471 89.649005 
L 151.293622 94.78362 
L 151.335649 100.865054 
L 151.587003 104.391335 
L 152.025391 107.449552 
L 152.651248 110.262381 
L 153.476146 112.950667 
L 154.518456 115.586137 
L 155.797207 118.209937 
L 157.34459 120.872217 
L 159.209476 123.63188 
L 161.467859 126.568127 
L 164.244381 129.802852 
L 167.831082 133.624045 
L 173.349206 139.139846 
L 182.424713 148.222885 
L 187.295157 153.442886 
L 192.204067 159.041561 
L 204.352269 173.08695 
L 207.990138 176.831074 
L 211.420164 180.045286 
L 214.856193 182.961603 
L 218.423489 185.697847 
L 222.229283 188.335755 
L 226.400116 190.952561 
L 231.079597 193.620652 
L 236.531867 196.466311 
L 243.474928 199.825538 
L 266.29773 210.673131 
L 272.204549 213.853152 
L 278.119284 217.295632 
L 295.058548 227.357236 
L 299.50898 229.57927 
L 304.004322 231.574065 
L 308.75129 233.434347 
L 314.117558 235.292252 
L 321.698371 237.652823 
L 338.376183 242.796605 
L 343.363221 244.597092 
L 347.226368 246.229433 
L 351.141406 248.128069 
L 355.085986 250.287618 
L 358.998581 252.68432 
L 363.509636 255.723355 
L 369.038364 259.723254 
L 374.047172 263.607405 
L 377.779799 266.770136 
L 380.543508 269.391659 
L 382.597472 271.635762 
L 384.096999 273.592754 
L 385.157443 275.331577 
L 385.860354 276.900484 
L 386.265638 278.337511 
L 386.415547 279.67058 
L 386.33756 280.937873 
L 386.040075 282.16696 
L 385.514853 283.384576 
L 384.73649 284.616022 
L 383.663432 285.884583 
L 382.241556 287.211314 
L 380.358877 288.652335 
L 377.839323 290.287019 
L 374.143999 292.396434 
L 372.255889 293.422875 
L 372.255889 293.422875 
" style="fill:none;stroke:#ff0000;stroke-linecap:square;stroke-width:1.5;"/>
   </g>
   <g id="line2d_12">
    <path clip-path="url(#pebef0bb2de)" d="M 74.367126 53.568 
L 78.04716 53.680316 
L 107.556689 55.4208 
L 115.583189 56.24581 
L 122.480916 57.173319 
L 128.494778 58.201885 
L 133.740451 59.319194 
L 138.343538 60.522303 
L 142.351545 61.795489 
L 145.820518 63.126541 
L 148.81418 64.510007 
L 151.37626 65.93526 
L 153.577202 67.411397 
L 155.462855 68.941625 
L 157.077456 70.534565 
L 158.473494 72.22133 
L 159.675679 74.01998 
L 160.709154 75.967085 
L 161.575992 78.078641 
L 162.273099 80.365433 
L 162.805209 82.886217 
L 163.16495 85.687444 
L 163.355933 88.982818 
L 163.376606 93.565948 
L 163.410137 100.964901 
L 163.667551 104.423924 
L 164.108526 107.403238 
L 164.738565 110.154605 
L 165.569652 112.7867 
L 166.61703 115.360373 
L 167.9059 117.931018 
L 169.471654 120.550454 
L 171.366829 123.279807 
L 173.680935 126.212771 
L 176.566363 129.498571 
L 180.402604 133.510978 
L 187.411581 140.453117 
L 194.211696 147.315046 
L 199.08835 152.558747 
L 204.064026 158.2481 
L 215.677245 171.691201 
L 219.291673 175.427942 
L 222.671736 178.605376 
L 226.043173 181.469624 
L 229.532484 184.141374 
L 233.24886 186.705606 
L 237.322662 189.243633 
L 241.940871 191.853066 
L 247.390369 194.668735 
L 254.562168 198.107786 
L 274.744758 207.650793 
L 280.94152 210.914181 
L 286.844207 214.276905 
L 294.118037 218.700397 
L 302.039106 223.464388 
L 306.524567 225.889658 
L 310.778814 227.938003 
L 315.10582 229.77402 
L 319.794233 231.517584 
L 325.46723 233.378442 
L 336.789466 236.800319 
L 346.263906 239.768938 
L 351.780719 241.721966 
L 355.979506 243.441396 
L 360.101947 245.374167 
L 364.226782 247.553761 
L 368.276127 249.944394 
L 372.573181 252.749861 
L 377.865476 256.483721 
L 383.353611 260.619948 
L 387.633323 264.109194 
L 390.845387 267.004352 
L 393.268856 269.478346 
L 395.085204 271.639217 
L 396.430589 273.574996 
L 397.387357 275.331291 
L 398.018937 276.943692 
L 398.375089 278.44997 
L 398.487257 279.877921 
L 398.37275 281.256509 
L 398.036492 282.603101 
L 397.473785 283.934733 
L 396.66207 285.279075 
L 395.562646 286.6603 
L 394.125751 288.097124 
L 392.285073 289.61277 
L 389.91737 291.262753 
L 386.76941 293.170413 
L 382.568666 295.488 
L 382.568666 295.488 
" style="fill:none;stroke:#000000;stroke-linecap:square;stroke-width:1.5;"/>
   </g>
   <g id="line2d_13">
    <path clip-path="url(#pebef0bb2de)" d="M 74.363396 61.518295 
L 73.832727 61.509649 
L 76.153417 61.630015 
L 93.454743 62.503574 
L 102.211056 63.182191 
L 109.037147 63.926658 
L 114.53091 64.742538 
L 118.994263 65.6228 
L 122.634983 66.559905 
L 125.611738 67.548274 
L 128.060258 68.588443 
L 130.099259 69.690046 
L 131.827853 70.872817 
L 133.304947 72.149071 
L 134.596249 73.558419 
L 135.717631 75.111955 
L 136.687759 76.836158 
L 137.513557 78.761686 
L 138.186278 80.904082 
L 138.695386 83.277468 
L 139.041886 85.976694 
L 139.222419 89.200959 
L 139.23492 93.843653 
L 139.267986 100.931684 
L 139.522176 104.502823 
L 139.962866 107.605442 
L 140.595475 110.485308 
L 141.426479 113.234039 
L 142.47181 115.92257 
L 143.754333 118.603494 
L 145.298608 121.312689 
L 147.159026 124.120214 
L 149.391566 127.078463 
L 152.11438 130.306747 
L 155.55849 134.030893 
L 160.506314 139.024163 
L 171.700466 150.239105 
L 176.46429 155.396456 
L 181.503372 161.195157 
L 191.906216 173.269003 
L 195.684068 177.237512 
L 199.191817 180.603554 
L 202.677035 183.641534 
L 206.283635 186.489889 
L 210.113647 189.228774 
L 214.25295 191.912662 
L 218.848794 194.623018 
L 224.096136 197.452684 
L 230.41804 200.599111 
L 239.711826 204.94742 
L 251.995996 210.731114 
L 258.352019 213.982057 
L 264.024486 217.133944 
L 270.299679 220.888039 
L 281.719954 227.771006 
L 286.435492 230.298826 
L 291.046698 232.51869 
L 295.78805 234.553538 
L 300.879397 236.493171 
L 306.683504 238.459545 
L 315.427848 241.149241 
L 329.062767 245.346678 
L 333.970696 247.094968 
L 337.549691 248.605789 
L 341.259449 250.417964 
L 345.036408 252.51061 
L 348.831579 254.869689 
L 353.409074 257.992257 
L 358.926577 262.028016 
L 363.646154 265.74065 
L 367.09021 268.72005 
L 369.603025 271.176335 
L 371.422124 273.254156 
L 372.705109 275.045714 
L 373.562973 276.612469 
L 374.080738 278.005011 
L 374.320609 279.271654 
L 374.320378 280.441808 
L 374.097981 281.560384 
L 373.654142 282.646038 
L 372.96064 283.741815 
L 371.977932 284.868455 
L 370.613709 286.081416 
L 368.732328 287.441732 
L 366.052528 289.087233 
L 361.943112 291.35775 
L 361.943112 291.35775 
" style="fill:none;stroke:#0000ff;stroke-linecap:square;stroke-width:1.5;"/>
   </g>
   <g id="patch_3">
    <path d="M 57.6 307.584 
L 57.6 41.472 
" style="fill:none;stroke:#000000;stroke-linecap:square;stroke-linejoin:miter;stroke-width:0.8;"/>
   </g>
   <g id="patch_4">
    <path d="M 414.72 307.584 
L 414.72 41.472 
" style="fill:none;stroke:#000000;stroke-linecap:square;stroke-linejoin:miter;stroke-width:0.8;"/>
   </g>
   <g id="patch_5">
    <path d="M 57.6 307.584 
L 414.72 307.584 
" style="fill:none;stroke:#000000;stroke-linecap:square;stroke-linejoin:miter;stroke-width:0.8;"/>
   </g>
   <g id="patch_6">
    <path d="M 57.6 41.472 
L 414.72 41.472 
" style="fill:none;stroke:#000000;stroke-linecap:square;stroke-linejoin:miter;stroke-width:0.8;"/>
   </g>
  </g>
 </g>
 <defs>
  <clipPath id="pebef0bb2de">
   <rect height="266.112" width="357.12" x="57.6" y="41.472"/>
  </clipPath>
 </defs>
</svg>
