<?xml version="1.0" encoding="utf-8" standalone="no"?>
<!DOCTYPE svg PUBLIC "-//W3C//DTD SVG 1.1//EN"
  "http://www.w3.org/Graphics/SVG/1.1/DTD/svg11.dtd">
<!-- Created with matplotlib (https://matplotlib.org/) -->
<svg height="345.6pt" version="1.1" viewBox="0 0 460.8 345.6" width="460.8pt" xmlns="http://www.w3.org/2000/svg" xmlns:xlink="http://www.w3.org/1999/xlink">
 <defs>
  <style type="text/css">
*{stroke-linecap:butt;stroke-linejoin:round;}
  </style>
 </defs>
 <g id="figure_1">
  <g id="patch_1">
   <path d="M 0 345.6 
L 460.8 345.6 
L 460.8 0 
L 0 0 
z
" style="fill:#ffffff;"/>
  </g>
  <g id="axes_1">
   <g id="patch_2">
    <path d="M 57.6 307.584 
L 414.72 307.584 
L 414.72 41.472 
L 57.6 41.472 
z
" style="fill:#ffffff;"/>
   </g>
   <g id="matplotlib.axis_1">
    <g id="xtick_1">
     <g id="line2d_1">
      <defs>
       <path d="M 0 0 
L 0 3.5 
" id="mb928009b7b" style="stroke:#000000;stroke-width:0.8;"/>
      </defs>
      <g>
       <use style="stroke:#000000;stroke-width:0.8;" x="72.050284" xlink:href="#mb928009b7b" y="307.584"/>
      </g>
     </g>
     <g id="text_1">
      <!-- −10 -->
      <defs>
       <path d="M 10.59375 35.5 
L 73.1875 35.5 
L 73.1875 27.203125 
L 10.59375 27.203125 
z
" id="DejaVuSans-8722"/>
       <path d="M 12.40625 8.296875 
L 28.515625 8.296875 
L 28.515625 63.921875 
L 10.984375 60.40625 
L 10.984375 69.390625 
L 28.421875 72.90625 
L 38.28125 72.90625 
L 38.28125 8.296875 
L 54.390625 8.296875 
L 54.390625 0 
L 12.40625 0 
z
" id="DejaVuSans-49"/>
       <path d="M 31.78125 66.40625 
Q 24.171875 66.40625 20.328125 58.90625 
Q 16.5 51.421875 16.5 36.375 
Q 16.5 21.390625 20.328125 13.890625 
Q 24.171875 6.390625 31.78125 6.390625 
Q 39.453125 6.390625 43.28125 13.890625 
Q 47.125 21.390625 47.125 36.375 
Q 47.125 51.421875 43.28125 58.90625 
Q 39.453125 66.40625 31.78125 66.40625 
z
M 31.78125 74.21875 
Q 44.046875 74.21875 50.515625 64.515625 
Q 56.984375 54.828125 56.984375 36.375 
Q 56.984375 17.96875 50.515625 8.265625 
Q 44.046875 -1.421875 31.78125 -1.421875 
Q 19.53125 -1.421875 13.0625 8.265625 
Q 6.59375 17.96875 6.59375 36.375 
Q 6.59375 54.828125 13.0625 64.515625 
Q 19.53125 74.21875 31.78125 74.21875 
z
" id="DejaVuSans-48"/>
      </defs>
      <g transform="translate(61.49794 322.182437)scale(0.1 -0.1)">
       <use xlink:href="#DejaVuSans-8722"/>
       <use x="83.789062" xlink:href="#DejaVuSans-49"/>
       <use x="147.412109" xlink:href="#DejaVuSans-48"/>
      </g>
     </g>
    </g>
    <g id="xtick_2">
     <g id="line2d_2">
      <g>
       <use style="stroke:#000000;stroke-width:0.8;" x="115.035202" xlink:href="#mb928009b7b" y="307.584"/>
      </g>
     </g>
     <g id="text_2">
      <!-- 0 -->
      <g transform="translate(111.853952 322.182437)scale(0.1 -0.1)">
       <use xlink:href="#DejaVuSans-48"/>
      </g>
     </g>
    </g>
    <g id="xtick_3">
     <g id="line2d_3">
      <g>
       <use style="stroke:#000000;stroke-width:0.8;" x="158.02012" xlink:href="#mb928009b7b" y="307.584"/>
      </g>
     </g>
     <g id="text_3">
      <!-- 10 -->
      <g transform="translate(151.65762 322.182437)scale(0.1 -0.1)">
       <use xlink:href="#DejaVuSans-49"/>
       <use x="63.623047" xlink:href="#DejaVuSans-48"/>
      </g>
     </g>
    </g>
    <g id="xtick_4">
     <g id="line2d_4">
      <g>
       <use style="stroke:#000000;stroke-width:0.8;" x="201.005038" xlink:href="#mb928009b7b" y="307.584"/>
      </g>
     </g>
     <g id="text_4">
      <!-- 20 -->
      <defs>
       <path d="M 19.1875 8.296875 
L 53.609375 8.296875 
L 53.609375 0 
L 7.328125 0 
L 7.328125 8.296875 
Q 12.9375 14.109375 22.625 23.890625 
Q 32.328125 33.6875 34.8125 36.53125 
Q 39.546875 41.84375 41.421875 45.53125 
Q 43.3125 49.21875 43.3125 52.78125 
Q 43.3125 58.59375 39.234375 62.25 
Q 35.15625 65.921875 28.609375 65.921875 
Q 23.96875 65.921875 18.8125 64.3125 
Q 13.671875 62.703125 7.8125 59.421875 
L 7.8125 69.390625 
Q 13.765625 71.78125 18.9375 73 
Q 24.125 74.21875 28.421875 74.21875 
Q 39.75 74.21875 46.484375 68.546875 
Q 53.21875 62.890625 53.21875 53.421875 
Q 53.21875 48.921875 51.53125 44.890625 
Q 49.859375 40.875 45.40625 35.40625 
Q 44.1875 33.984375 37.640625 27.21875 
Q 31.109375 20.453125 19.1875 8.296875 
z
" id="DejaVuSans-50"/>
      </defs>
      <g transform="translate(194.642538 322.182437)scale(0.1 -0.1)">
       <use xlink:href="#DejaVuSans-50"/>
       <use x="63.623047" xlink:href="#DejaVuSans-48"/>
      </g>
     </g>
    </g>
    <g id="xtick_5">
     <g id="line2d_5">
      <g>
       <use style="stroke:#000000;stroke-width:0.8;" x="243.989956" xlink:href="#mb928009b7b" y="307.584"/>
      </g>
     </g>
     <g id="text_5">
      <!-- 30 -->
      <defs>
       <path d="M 40.578125 39.3125 
Q 47.65625 37.796875 51.625 33 
Q 55.609375 28.21875 55.609375 21.1875 
Q 55.609375 10.40625 48.1875 4.484375 
Q 40.765625 -1.421875 27.09375 -1.421875 
Q 22.515625 -1.421875 17.65625 -0.515625 
Q 12.796875 0.390625 7.625 2.203125 
L 7.625 11.71875 
Q 11.71875 9.328125 16.59375 8.109375 
Q 21.484375 6.890625 26.8125 6.890625 
Q 36.078125 6.890625 40.9375 10.546875 
Q 45.796875 14.203125 45.796875 21.1875 
Q 45.796875 27.640625 41.28125 31.265625 
Q 36.765625 34.90625 28.71875 34.90625 
L 20.21875 34.90625 
L 20.21875 43.015625 
L 29.109375 43.015625 
Q 36.375 43.015625 40.234375 45.921875 
Q 44.09375 48.828125 44.09375 54.296875 
Q 44.09375 59.90625 40.109375 62.90625 
Q 36.140625 65.921875 28.71875 65.921875 
Q 24.65625 65.921875 20.015625 65.03125 
Q 15.375 64.15625 9.8125 62.3125 
L 9.8125 71.09375 
Q 15.4375 72.65625 20.34375 73.4375 
Q 25.25 74.21875 29.59375 74.21875 
Q 40.828125 74.21875 47.359375 69.109375 
Q 53.90625 64.015625 53.90625 55.328125 
Q 53.90625 49.265625 50.4375 45.09375 
Q 46.96875 40.921875 40.578125 39.3125 
z
" id="DejaVuSans-51"/>
      </defs>
      <g transform="translate(237.627456 322.182437)scale(0.1 -0.1)">
       <use xlink:href="#DejaVuSans-51"/>
       <use x="63.623047" xlink:href="#DejaVuSans-48"/>
      </g>
     </g>
    </g>
    <g id="xtick_6">
     <g id="line2d_6">
      <g>
       <use style="stroke:#000000;stroke-width:0.8;" x="286.974874" xlink:href="#mb928009b7b" y="307.584"/>
      </g>
     </g>
     <g id="text_6">
      <!-- 40 -->
      <defs>
       <path d="M 37.796875 64.3125 
L 12.890625 25.390625 
L 37.796875 25.390625 
z
M 35.203125 72.90625 
L 47.609375 72.90625 
L 47.609375 25.390625 
L 58.015625 25.390625 
L 58.015625 17.1875 
L 47.609375 17.1875 
L 47.609375 0 
L 37.796875 0 
L 37.796875 17.1875 
L 4.890625 17.1875 
L 4.890625 26.703125 
z
" id="DejaVuSans-52"/>
      </defs>
      <g transform="translate(280.612374 322.182437)scale(0.1 -0.1)">
       <use xlink:href="#DejaVuSans-52"/>
       <use x="63.623047" xlink:href="#DejaVuSans-48"/>
      </g>
     </g>
    </g>
    <g id="xtick_7">
     <g id="line2d_7">
      <g>
       <use style="stroke:#000000;stroke-width:0.8;" x="329.959792" xlink:href="#mb928009b7b" y="307.584"/>
      </g>
     </g>
     <g id="text_7">
      <!-- 50 -->
      <defs>
       <path d="M 10.796875 72.90625 
L 49.515625 72.90625 
L 49.515625 64.59375 
L 19.828125 64.59375 
L 19.828125 46.734375 
Q 21.96875 47.46875 24.109375 47.828125 
Q 26.265625 48.1875 28.421875 48.1875 
Q 40.625 48.1875 47.75 41.5 
Q 54.890625 34.8125 54.890625 23.390625 
Q 54.890625 11.625 47.5625 5.09375 
Q 40.234375 -1.421875 26.90625 -1.421875 
Q 22.3125 -1.421875 17.546875 -0.640625 
Q 12.796875 0.140625 7.71875 1.703125 
L 7.71875 11.625 
Q 12.109375 9.234375 16.796875 8.0625 
Q 21.484375 6.890625 26.703125 6.890625 
Q 35.15625 6.890625 40.078125 11.328125 
Q 45.015625 15.765625 45.015625 23.390625 
Q 45.015625 31 40.078125 35.4375 
Q 35.15625 39.890625 26.703125 39.890625 
Q 22.75 39.890625 18.8125 39.015625 
Q 14.890625 38.140625 10.796875 36.28125 
z
" id="DejaVuSans-53"/>
      </defs>
      <g transform="translate(323.597292 322.182437)scale(0.1 -0.1)">
       <use xlink:href="#DejaVuSans-53"/>
       <use x="63.623047" xlink:href="#DejaVuSans-48"/>
      </g>
     </g>
    </g>
    <g id="xtick_8">
     <g id="line2d_8">
      <g>
       <use style="stroke:#000000;stroke-width:0.8;" x="372.94471" xlink:href="#mb928009b7b" y="307.584"/>
      </g>
     </g>
     <g id="text_8">
      <!-- 60 -->
      <defs>
       <path d="M 33.015625 40.375 
Q 26.375 40.375 22.484375 35.828125 
Q 18.609375 31.296875 18.609375 23.390625 
Q 18.609375 15.53125 22.484375 10.953125 
Q 26.375 6.390625 33.015625 6.390625 
Q 39.65625 6.390625 43.53125 10.953125 
Q 47.40625 15.53125 47.40625 23.390625 
Q 47.40625 31.296875 43.53125 35.828125 
Q 39.65625 40.375 33.015625 40.375 
z
M 52.59375 71.296875 
L 52.59375 62.3125 
Q 48.875 64.0625 45.09375 64.984375 
Q 41.3125 65.921875 37.59375 65.921875 
Q 27.828125 65.921875 22.671875 59.328125 
Q 17.53125 52.734375 16.796875 39.40625 
Q 19.671875 43.65625 24.015625 45.921875 
Q 28.375 48.1875 33.59375 48.1875 
Q 44.578125 48.1875 50.953125 41.515625 
Q 57.328125 34.859375 57.328125 23.390625 
Q 57.328125 12.15625 50.6875 5.359375 
Q 44.046875 -1.421875 33.015625 -1.421875 
Q 20.359375 -1.421875 13.671875 8.265625 
Q 6.984375 17.96875 6.984375 36.375 
Q 6.984375 53.65625 15.1875 63.9375 
Q 23.390625 74.21875 37.203125 74.21875 
Q 40.921875 74.21875 44.703125 73.484375 
Q 48.484375 72.75 52.59375 71.296875 
z
" id="DejaVuSans-54"/>
      </defs>
      <g transform="translate(366.58221 322.182437)scale(0.1 -0.1)">
       <use xlink:href="#DejaVuSans-54"/>
       <use x="63.623047" xlink:href="#DejaVuSans-48"/>
      </g>
     </g>
    </g>
   </g>
   <g id="matplotlib.axis_2">
    <g id="ytick_1">
     <g id="line2d_9">
      <defs>
       <path d="M 0 0 
L -3.5 0 
" id="m98340679ba" style="stroke:#000000;stroke-width:0.8;"/>
      </defs>
      <g>
       <use style="stroke:#000000;stroke-width:0.8;" x="57.6" xlink:href="#m98340679ba" y="281.763157"/>
      </g>
     </g>
     <g id="text_9">
      <!-- −60 -->
      <g transform="translate(29.495313 285.562376)scale(0.1 -0.1)">
       <use xlink:href="#DejaVuSans-8722"/>
       <use x="83.789062" xlink:href="#DejaVuSans-54"/>
       <use x="147.412109" xlink:href="#DejaVuSans-48"/>
      </g>
     </g>
    </g>
    <g id="ytick_2">
     <g id="line2d_10">
      <g>
       <use style="stroke:#000000;stroke-width:0.8;" x="57.6" xlink:href="#m98340679ba" y="249.908467"/>
      </g>
     </g>
     <g id="text_10">
      <!-- −50 -->
      <g transform="translate(29.495313 253.707686)scale(0.1 -0.1)">
       <use xlink:href="#DejaVuSans-8722"/>
       <use x="83.789062" xlink:href="#DejaVuSans-53"/>
       <use x="147.412109" xlink:href="#DejaVuSans-48"/>
      </g>
     </g>
    </g>
    <g id="ytick_3">
     <g id="line2d_11">
      <g>
       <use style="stroke:#000000;stroke-width:0.8;" x="57.6" xlink:href="#m98340679ba" y="218.053777"/>
      </g>
     </g>
     <g id="text_11">
      <!-- −40 -->
      <g transform="translate(29.495313 221.852996)scale(0.1 -0.1)">
       <use xlink:href="#DejaVuSans-8722"/>
       <use x="83.789062" xlink:href="#DejaVuSans-52"/>
       <use x="147.412109" xlink:href="#DejaVuSans-48"/>
      </g>
     </g>
    </g>
    <g id="ytick_4">
     <g id="line2d_12">
      <g>
       <use style="stroke:#000000;stroke-width:0.8;" x="57.6" xlink:href="#m98340679ba" y="186.199088"/>
      </g>
     </g>
     <g id="text_12">
      <!-- −30 -->
      <g transform="translate(29.495313 189.998306)scale(0.1 -0.1)">
       <use xlink:href="#DejaVuSans-8722"/>
       <use x="83.789062" xlink:href="#DejaVuSans-51"/>
       <use x="147.412109" xlink:href="#DejaVuSans-48"/>
      </g>
     </g>
    </g>
    <g id="ytick_5">
     <g id="line2d_13">
      <g>
       <use style="stroke:#000000;stroke-width:0.8;" x="57.6" xlink:href="#m98340679ba" y="154.344398"/>
      </g>
     </g>
     <g id="text_13">
      <!-- −20 -->
      <g transform="translate(29.495313 158.143617)scale(0.1 -0.1)">
       <use xlink:href="#DejaVuSans-8722"/>
       <use x="83.789062" xlink:href="#DejaVuSans-50"/>
       <use x="147.412109" xlink:href="#DejaVuSans-48"/>
      </g>
     </g>
    </g>
    <g id="ytick_6">
     <g id="line2d_14">
      <g>
       <use style="stroke:#000000;stroke-width:0.8;" x="57.6" xlink:href="#m98340679ba" y="122.489708"/>
      </g>
     </g>
     <g id="text_14">
      <!-- −10 -->
      <g transform="translate(29.495313 126.288927)scale(0.1 -0.1)">
       <use xlink:href="#DejaVuSans-8722"/>
       <use x="83.789062" xlink:href="#DejaVuSans-49"/>
       <use x="147.412109" xlink:href="#DejaVuSans-48"/>
      </g>
     </g>
    </g>
    <g id="ytick_7">
     <g id="line2d_15">
      <g>
       <use style="stroke:#000000;stroke-width:0.8;" x="57.6" xlink:href="#m98340679ba" y="90.635018"/>
      </g>
     </g>
     <g id="text_15">
      <!-- 0 -->
      <g transform="translate(44.2375 94.434237)scale(0.1 -0.1)">
       <use xlink:href="#DejaVuSans-48"/>
      </g>
     </g>
    </g>
    <g id="ytick_8">
     <g id="line2d_16">
      <g>
       <use style="stroke:#000000;stroke-width:0.8;" x="57.6" xlink:href="#m98340679ba" y="58.780328"/>
      </g>
     </g>
     <g id="text_16">
      <!-- 10 -->
      <g transform="translate(37.875 62.579547)scale(0.1 -0.1)">
       <use xlink:href="#DejaVuSans-49"/>
       <use x="63.623047" xlink:href="#DejaVuSans-48"/>
      </g>
     </g>
    </g>
   </g>
   <g id="line2d_17">
    <path clip-path="url(#pb33d01ffdf)" d="M 79.325039 283.147613 
L 73.832727 138.839676 
L 78.288712 135.779545 
L 112.208571 134.980793 
L 111.803827 122.673431 
L 92.628879 123.083323 
L 85.117617 117.867325 
L 83.637702 65.381899 
L 87.456708 60.46619 
L 93.844507 58.506122 
L 218.546689 56.93111 
L 326.272614 53.568 
L 348.614182 54.375109 
L 350.964099 58.290072 
L 352.779395 114.510583 
L 348.613067 117.384645 
L 327.108113 118.05407 
L 327.532544 123.385199 
L 330.353757 130.264283 
L 387.311201 128.585795 
L 392.214135 131.22079 
L 398.487273 280.69768 
L 397.261137 287.307154 
L 393.825151 288.6379 
L 358.704956 289.917792 
L 256.733755 291.655714 
L 252.475536 293.743456 
L 221.306551 293.892714 
L 217.731276 292.421337 
L 149.033011 294.866907 
L 143.930236 291.892974 
L 144.823075 288.036736 
L 148.657718 286.285764 
L 388.006452 281.049287 
L 385.376876 213.148201 
L 303.803916 214.593463 
L 304.318321 222.982223 
L 301.603543 225.936265 
L 287.607111 226.262292 
L 283.77306 223.11645 
L 284.560433 213.070661 
L 295.585763 211.258117 
L 296.407701 207.850832 
L 299.690273 206.225422 
L 384.731046 204.402622 
L 381.759386 136.361771 
L 322.618902 137.982928 
L 317.630832 135.133985 
L 315.95744 110.384819 
L 324.544831 108.358072 
L 329.014234 110.269348 
L 342.32017 110.043011 
L 340.759707 64.918156 
L 340.457633 61.209129 
L 338.944215 61.089029 
L 287.083229 62.22788 
L 282.973504 63.753641 
L 273.911374 62.549679 
L 225.338478 63.537254 
L 223.149255 66.476189 
L 224.811005 112.499176 
L 234.560228 112.788516 
L 238.151982 117.980237 
L 239.842321 164.678793 
L 237.890664 167.275134 
L 231.668277 169.348725 
L 227.957322 168.463621 
L 226.141936 165.906979 
L 225.910109 152.910764 
L 227.767898 150.168756 
L 226.306665 121.099942 
L 217.291858 121.089835 
L 213.732153 118.107367 
L 211.20866 64.040972 
L 160.178381 65.031224 
L 153.005581 66.628319 
L 96.348338 66.481068 
L 94.764847 68.03676 
L 94.599804 76.271309 
L 95.656804 110.291806 
L 97.556296 115.113963 
L 117.930784 114.09322 
L 121.867386 115.567646 
L 122.739022 138.779295 
L 118.587145 142.528407 
L 84.262958 143.248517 
L 86.955707 210.752792 
L 184.414808 209.018893 
L 188.624639 210.575719 
L 189.771222 214.008218 
L 185.651069 217.385828 
L 167.584463 217.938203 
L 167.83097 226.775187 
L 163.203365 229.400504 
L 148.963241 228.124853 
L 147.240428 218.416029 
L 87.458078 220.264263 
L 90.070484 287.675724 
L 119.446843 286.977056 
L 122.989648 288.924216 
L 123.3398 292.877691 
L 118.917521 295.488 
L 83.41409 295.180297 
L 79.975087 292.629397 
L 79.325039 283.147613 
" style="fill:none;stroke:#008000;stroke-linecap:square;stroke-width:1.5;"/>
   </g>
   <g id="line2d_18">
    <path clip-path="url(#pb33d01ffdf)" d="M 119.058626 279.413281 
L 112.739554 276.75513 
L 112.81679 266.14812 
L 116.860316 264.145913 
L 129.787096 264.30228 
L 132.587902 267.807591 
L 132.368263 277.182879 
L 128.040881 279.185462 
L 119.058626 279.413281 
" style="fill:none;stroke:#008000;stroke-linecap:square;stroke-width:1.5;"/>
   </g>
   <g id="line2d_19">
    <path clip-path="url(#pb33d01ffdf)" d="M 117.441063 248.33605 
L 111.252343 245.731087 
L 111.34161 235.209041 
L 115.348165 233.247421 
L 128.394444 233.361269 
L 131.021968 235.986719 
L 131.03704 245.881585 
L 127.722272 247.911728 
L 117.441063 248.33605 
" style="fill:none;stroke:#008000;stroke-linecap:square;stroke-width:1.5;"/>
   </g>
   <g id="line2d_20">
    <path clip-path="url(#pb33d01ffdf)" d="M 118.617503 199.621757 
L 112.431245 199.616763 
L 109.380663 197.764093 
L 108.780633 187.351995 
L 112.279276 184.800505 
L 125.058188 184.487705 
L 128.811031 187.844141 
L 129.162035 196.950799 
L 125.727738 199.460092 
L 118.617503 199.621757 
" style="fill:none;stroke:#008000;stroke-linecap:square;stroke-width:1.5;"/>
   </g>
   <g id="line2d_21">
    <path clip-path="url(#pb33d01ffdf)" d="M 108.796659 157.013794 
L 109.165013 153.874751 
L 111.978089 151.804549 
L 126.356748 151.53815 
L 129.342033 154.445529 
L 129.007537 164.472258 
L 124.96401 166.474471 
L 111.927109 166.201461 
L 109.42234 163.94277 
L 108.796659 157.013794 
" style="fill:none;stroke:#008000;stroke-linecap:square;stroke-width:1.5;"/>
   </g>
   <g id="line2d_22">
    <path clip-path="url(#pb33d01ffdf)" d="M 168.139725 96.065551 
L 172.255767 94.046106 
L 185.832728 94.760976 
L 187.431315 100.400104 
L 185.270304 107.879592 
L 172.479936 110.070738 
L 168.329456 109.154073 
L 166.584526 106.216626 
L 168.139725 96.065551 
" style="fill:none;stroke:#008000;stroke-linecap:square;stroke-width:1.5;"/>
   </g>
   <g id="line2d_23">
    <path clip-path="url(#pb33d01ffdf)" d="M 148.26049 84.890059 
L 143.865469 87.475697 
L 130.080103 86.4747 
L 127.912408 83.645313 
L 128.502379 73.728686 
L 132.537579 72.050316 
L 146.177781 72.570878 
L 148.064434 75.098846 
L 148.26049 84.890059 
" style="fill:none;stroke:#008000;stroke-linecap:square;stroke-width:1.5;"/>
   </g>
   <g id="line2d_24">
    <path clip-path="url(#pb33d01ffdf)" d="M 182.62422 277.050584 
L 179.715223 272.277995 
L 181.048889 263.775107 
L 192.1302 262.057005 
L 198.349046 263.638973 
L 200.088765 266.155144 
L 199.150381 275.636114 
L 195.665481 277.010873 
L 182.62422 277.050584 
" style="fill:none;stroke:#008000;stroke-linecap:square;stroke-width:1.5;"/>
   </g>
   <g id="line2d_25">
    <path clip-path="url(#pb33d01ffdf)" d="M 184.701354 197.609039 
L 182.401432 195.212974 
L 182.066153 190.277383 
L 184.0849 185.070271 
L 190.097154 182.906508 
L 204.189119 183.858374 
L 206.128108 194.14384 
L 204.572556 196.784103 
L 184.701354 197.609039 
" style="fill:none;stroke:#008000;stroke-linecap:square;stroke-width:1.5;"/>
   </g>
   <g id="line2d_26">
    <path clip-path="url(#pb33d01ffdf)" d="M 167.038329 154.650509 
L 168.899362 152.070305 
L 173.590388 150.385364 
L 186.696333 150.797741 
L 189.554137 153.842269 
L 189.15408 163.242206 
L 185.456858 165.17013 
L 169.771169 165.575885 
L 167.113852 162.942876 
L 167.038329 154.650509 
" style="fill:none;stroke:#008000;stroke-linecap:square;stroke-width:1.5;"/>
   </g>
   <g id="line2d_27">
    <path clip-path="url(#pb33d01ffdf)" d="M 241.172088 83.086735 
L 239.910534 75.564771 
L 242.354975 70.534735 
L 249.262735 69.337646 
L 258.718699 70.41102 
L 260.505692 76.184829 
L 259.104236 82.945357 
L 248.46991 84.785596 
L 241.172088 83.086735 
" style="fill:none;stroke:#008000;stroke-linecap:square;stroke-width:1.5;"/>
   </g>
   <g id="line2d_28">
    <path clip-path="url(#pb33d01ffdf)" d="M 253.054513 254.724474 
L 247.829508 252.01056 
L 248.003206 241.462352 
L 252.019301 239.46068 
L 264.6794 239.741272 
L 267.297776 242.410335 
L 267.358726 252.47237 
L 263.45151 254.496875 
L 253.054513 254.724474 
" style="fill:none;stroke:#008000;stroke-linecap:square;stroke-width:1.5;"/>
   </g>
   <g id="line2d_29">
    <path clip-path="url(#pb33d01ffdf)" d="M 256.444881 176.269876 
L 253.247216 172.433603 
L 254.341991 162.818383 
L 257.85393 161.414308 
L 271.047347 161.922318 
L 273.825206 169.178445 
L 272.116805 175.034957 
L 268.695609 176.49496 
L 256.444881 176.269876 
" style="fill:none;stroke:#008000;stroke-linecap:square;stroke-width:1.5;"/>
   </g>
   <g id="line2d_30">
    <path clip-path="url(#pb33d01ffdf)" d="M 280.569721 147.426067 
L 278.560279 142.037148 
L 280.336352 134.6054 
L 291.888565 133.363998 
L 297.63728 134.769899 
L 299.405121 141.860695 
L 297.899147 147.373213 
L 284.728883 148.811872 
L 280.569721 147.426067 
" style="fill:none;stroke:#008000;stroke-linecap:square;stroke-width:1.5;"/>
   </g>
   <g id="line2d_31">
    <path clip-path="url(#pb33d01ffdf)" d="M 269.317597 115.206824 
L 263.952714 115.042474 
L 260.901822 113.188968 
L 260.549359 102.543989 
L 264.124953 100.044641 
L 276.454503 99.987717 
L 279.700968 102.670972 
L 280.358833 112.130822 
L 277.157544 114.379458 
L 269.317597 115.206824 
" style="fill:none;stroke:#008000;stroke-linecap:square;stroke-width:1.5;"/>
   </g>
   <g id="line2d_32">
    <path clip-path="url(#pb33d01ffdf)" d="M 314.703888 274.350377 
L 310.443947 276.691699 
L 296.564559 276.001695 
L 294.703531 273.421497 
L 295.562593 263.680325 
L 302.870574 261.606837 
L 312.945672 262.257457 
L 314.841397 264.766009 
L 314.703888 274.350377 
" style="fill:none;stroke:#008000;stroke-linecap:square;stroke-width:1.5;"/>
   </g>
   <g id="line2d_33">
    <path clip-path="url(#pb33d01ffdf)" d="M 325.659825 239.967025 
L 322.429446 236.793343 
L 323.641168 226.962358 
L 327.507702 225.429264 
L 340.79975 226.181338 
L 342.796975 230.942493 
L 342.002125 238.869674 
L 338.145823 240.390617 
L 325.659825 239.967025 
" style="fill:none;stroke:#008000;stroke-linecap:square;stroke-width:1.5;"/>
   </g>
   <g id="line2d_34">
    <path clip-path="url(#pb33d01ffdf)" d="M 328.447833 158.623869 
L 332.226329 155.318446 
L 346.655146 155.565044 
L 348.829644 158.450041 
L 348.185306 168.457308 
L 344.402022 170.137759 
L 330.875458 169.644228 
L 328.733378 167.229177 
L 328.447833 158.623869 
" style="fill:none;stroke:#008000;stroke-linecap:square;stroke-width:1.5;"/>
   </g>
   <g id="line2d_35">
    <path clip-path="url(#pb33d01ffdf)" d="M 316.208354 103.768507 
L 311.948412 106.109831 
L 298.092342 105.433914 
L 295.968561 101.074411 
L 297.209618 92.491774 
L 300.855311 91.161818 
L 314.551097 91.737026 
L 316.361965 94.291297 
L 316.208354 103.768507 
" style="fill:none;stroke:#008000;stroke-linecap:square;stroke-width:1.5;"/>
   </g>
   <g id="line2d_36">
    <path clip-path="url(#pb33d01ffdf)" d="M 338.308387 263.331136 
L 339.518257 260.712053 
L 343.286963 258.870539 
L 356.022334 259.013369 
L 358.640727 261.682407 
L 358.485837 271.904929 
L 354.29506 273.836826 
L 341.227625 273.223644 
L 338.621529 270.603735 
L 338.308387 263.331136 
" style="fill:none;stroke:#008000;stroke-linecap:square;stroke-width:1.5;"/>
   </g>
   <g id="line2d_37">
    <path clip-path="url(#pb33d01ffdf)" d="M 364.349957 194.893496 
L 360.306445 196.895703 
L 346.368617 196.169609 
L 344.326283 190.861717 
L 345.890468 183.214035 
L 356.08407 181.629412 
L 363.065791 182.943316 
L 364.741429 185.641724 
L 364.349957 194.893496 
" style="fill:none;stroke:#008000;stroke-linecap:square;stroke-width:1.5;"/>
   </g>
   <g id="line2d_38">
    <path clip-path="url(#pb33d01ffdf)" d="M 115.016895 90.620926 
L 116.301242 90.621073 
L 117.272009 91.532363 
L 119.299113 92.701521 
L 122.296897 94.664953 
L 123.940593 95.998768 
L 124.555719 96.641185 
L 125.253407 98.064798 
L 127.807702 99.258739 
L 129.583515 99.96227 
L 130.286588 100.608174 
L 130.823738 101.437323 
L 131.545773 103.160877 
L 131.876911 104.943333 
L 131.899972 105.8435 
L 132.058345 106.467879 
L 133.743751 109.420794 
L 134.490616 110.838507 
L 134.220941 112.293989 
L 133.424609 114.476072 
L 132.594376 115.934876 
L 132.088464 116.632527 
L 132.153294 118.186768 
L 132.934365 120.088937 
L 133.636597 123.334576 
L 134.712745 127.056022 
L 135.908322 128.498833 
L 136.585595 129.180981 
L 137.083425 131.067304 
L 137.052506 131.773249 
L 137.133547 132.472003 
L 137.610573 133.224446 
L 139.196643 134.794855 
L 140.863865 136.300632 
L 143.51766 140.361299 
L 144.161915 140.785321 
L 144.354036 141.464804 
L 144.137048 143.778337 
L 143.879849 145.741911 
L 143.965777 146.45119 
L 144.321559 147.1514 
L 145.802983 148.726982 
L 146.36015 149.216714 
L 146.962049 151.503259 
L 147.121219 152.270902 
L 147.502946 152.882127 
L 148.062723 153.435639 
L 148.416665 154.066978 
L 149.321844 157.013377 
L 150.289756 160.637667 
L 150.613521 161.881813 
L 151.290084 163.042858 
L 151.20122 163.710821 
L 151.76355 165.773894 
L 151.877577 166.640223 
L 152.834882 168.352625 
L 153.910192 172.698771 
L 154.094928 173.571888 
L 155.260132 174.968744 
L 156.87407 178.273224 
L 158.171911 179.297507 
L 159.965452 180.192664 
L 162.083429 180.883118 
L 163.194658 181.124542 
L 163.896749 182.32691 
L 164.560399 182.732846 
L 166.76383 183.132305 
L 167.891525 183.228798 
L 168.761544 183.459168 
L 170.099142 184.543439 
L 170.917267 185.931746 
L 171.446157 187.395084 
L 171.947365 189.492306 
L 172.475707 190.147624 
L 175.012554 192.383267 
L 175.416112 192.973531 
L 175.575689 194.352164 
L 176.13561 197.464787 
L 176.273562 199.130963 
L 176.285076 199.965696 
L 176.410018 200.688052 
L 178.027334 202.59348 
L 178.355138 203.267358 
L 178.910371 204.001684 
L 180.248971 205.286125 
L 181.725308 206.484816 
L 183.191597 207.481537 
L 184.910781 208.235554 
L 189.115507 209.813693 
L 189.83856 210.179497 
L 190.495563 210.684725 
L 192.212128 211.294924 
L 193.859956 211.747666 
L 194.670561 212.903925 
L 195.001856 213.507729 
L 196.376491 215.247325 
L 197.166445 216.532584 
L 197.747903 218.243941 
L 198.180329 219.904727 
L 200.251584 222.298367 
L 201.355576 223.46132 
L 204.222667 227.65815 
L 205.245804 229.335649 
L 206.072985 231.737183 
L 206.625532 234.181659 
L 207.164768 234.854105 
L 208.794 235.94114 
L 208.856173 236.597658 
L 206.797121 237.627416 
L 204.605847 238.494463 
L 202.305678 239.189567 
L 199.742526 239.329512 
L 198.457957 239.28261 
L 198.457957 239.28261 
" style="fill:none;stroke:#1f77b4;stroke-linecap:square;stroke-width:1.5;"/>
   </g>
   <g id="line2d_39">
    <path clip-path="url(#pb33d01ffdf)" d="M 115.016895 90.620926 
L 116.522179 90.732357 
L 117.360219 90.955204 
L 118.269294 91.32305 
L 120.14295 92.435548 
L 121.926145 93.868837 
L 125.506947 97.074671 
L 128.782008 99.875297 
L 129.996043 101.27579 
L 130.991838 102.813406 
L 132.686156 106.668856 
L 133.727841 109.66562 
L 134.031621 111.121157 
L 134.039477 112.621219 
L 133.722035 114.191111 
L 133.169472 116.484942 
L 133.01997 117.95316 
L 133.087212 120.172625 
L 133.463984 122.457048 
L 134.107255 124.742136 
L 134.978102 126.951687 
L 137.2643 131.696022 
L 138.378627 133.5552 
L 139.72164 135.334957 
L 142.137677 138.363514 
L 142.947368 139.641956 
L 143.550063 140.955808 
L 143.920549 142.299355 
L 144.759755 146.954873 
L 145.634841 148.853321 
L 147.642883 152.781903 
L 148.81718 155.607691 
L 149.795684 158.718998 
L 152.412981 167.5555 
L 153.482778 170.900848 
L 154.313778 173.341364 
L 155.437393 175.518449 
L 156.667203 177.522049 
L 157.77378 178.708749 
L 159.240024 179.68708 
L 165.80615 182.870159 
L 168.447107 183.725558 
L 169.199102 184.168716 
L 169.828232 184.708443 
L 170.745581 185.968743 
L 171.342434 187.338568 
L 172.153383 189.395496 
L 173.096013 190.626625 
L 174.70865 192.38076 
L 175.101408 193.034047 
L 175.511651 194.454484 
L 176.227452 198.255592 
L 176.445033 199.804966 
L 176.671952 200.556555 
L 178.531736 203.272744 
L 179.664826 204.550106 
L 181.014317 205.691558 
L 182.492126 206.690938 
L 184.146076 207.509999 
L 186.789579 208.488081 
L 188.493114 209.180149 
L 190.028352 210.046873 
L 190.697843 210.521358 
L 192.208071 211.217587 
L 193.730891 211.85353 
L 194.664003 212.978896 
L 195.506758 214.175706 
L 196.815033 216.0619 
L 197.486201 217.472988 
L 198.255914 219.709275 
L 199.783696 221.703693 
L 202.003421 224.436291 
L 204.127097 227.622675 
L 205.077502 229.248248 
L 206.019379 231.690017 
L 207.038792 234.733609 
L 208.058673 235.842973 
L 208.012614 236.563944 
L 206.430898 237.522669 
L 204.463319 238.344609 
L 202.206776 238.994744 
L 199.725033 239.24157 
L 198.457957 239.28261 
L 198.457957 239.28261 
" style="fill:none;stroke:#ff7f0e;stroke-linecap:square;stroke-width:1.5;"/>
   </g>
   <g id="line2d_40">
    <path clip-path="url(#pb33d01ffdf)" d="M 115.016895 90.620926 
L 118.686562 90.967422 
L 120.890493 91.394494 
L 122.357039 91.838917 
L 123.815357 92.458038 
L 125.255794 93.299929 
L 126.662484 94.408203 
L 128.013694 95.780924 
L 129.287529 97.344577 
L 131.011057 99.873691 
L 132.453159 102.513871 
L 133.230612 104.311106 
L 133.849248 106.124764 
L 134.480659 108.847506 
L 134.795303 111.532969 
L 134.878146 114.145785 
L 134.883567 122.225249 
L 135.150724 124.486952 
L 135.628614 126.684716 
L 136.320476 128.818903 
L 137.201732 130.890492 
L 138.588246 133.566438 
L 142.897994 141.360863 
L 144.369512 144.662926 
L 146.457324 150.070145 
L 149.813954 159.2404 
L 153.615382 170.38694 
L 154.615319 172.54583 
L 155.816658 174.610728 
L 157.271951 176.541257 
L 158.998757 178.303405 
L 160.961051 179.889159 
L 163.790076 181.801663 
L 167.269696 184.177505 
L 169.116316 185.756531 
L 170.700615 187.485835 
L 172.04873 189.333781 
L 173.587235 191.917017 
L 174.893948 194.595744 
L 177.060261 199.323586 
L 178.281763 201.233667 
L 179.283485 202.418578 
L 180.445543 203.517202 
L 181.767075 204.517528 
L 184.011508 205.835882 
L 188.838589 208.327777 
L 190.321 209.321724 
L 192.271022 210.959454 
L 193.989911 212.701033 
L 195.466071 214.559558 
L 197.201245 217.15248 
L 203.432031 227.401984 
L 204.39439 229.493469 
L 204.868539 230.883937 
L 205.158691 232.266472 
L 205.221615 233.63163 
L 205.004559 234.960349 
L 204.705991 235.586914 
L 204.261221 236.161531 
L 203.090495 237.160916 
L 201.668802 237.98029 
L 199.282778 238.977782 
L 198.457957 239.28261 
L 198.457957 239.28261 
" style="fill:none;stroke:#2ca02c;stroke-linecap:square;stroke-width:1.5;"/>
   </g>
   <g id="line2d_41">
    <path clip-path="url(#pb33d01ffdf)" d="M 115.016895 90.620926 
L 119.401795 91.057877 
L 122.300235 91.57322 
L 124.444737 92.177763 
L 126.544625 93.056864 
L 127.904862 93.850663 
L 129.215584 94.864682 
L 130.452432 96.15198 
L 131.584132 97.737187 
L 132.582671 99.569693 
L 133.430725 101.547577 
L 134.119831 103.583828 
L 134.858874 106.635535 
L 135.285754 109.603754 
L 135.512047 113.366153 
L 135.765094 122.631484 
L 136.180164 125.711686 
L 136.679596 127.94547 
L 137.595089 130.832073 
L 138.750704 133.626525 
L 140.748839 137.695365 
L 143.759017 143.723177 
L 145.542066 147.802416 
L 147.418756 152.662574 
L 150.440531 161.244414 
L 152.555245 167.048592 
L 153.795228 169.898395 
L 155.270696 172.654825 
L 156.579017 174.630577 
L 158.0783 176.506945 
L 159.758608 178.275082 
L 162.212044 180.482025 
L 167.845329 185.274358 
L 169.511701 186.974353 
L 171.001563 188.758544 
L 172.724826 191.248489 
L 174.5914 194.467396 
L 176.44539 197.690326 
L 177.723553 199.5555 
L 179.231423 201.314586 
L 181.01645 202.919319 
L 183.051602 204.372683 
L 186.800846 206.615482 
L 189.059659 208.032808 
L 190.467572 209.092911 
L 192.312969 210.836252 
L 193.929693 212.678713 
L 195.830184 215.234081 
L 198.392356 219.151068 
L 201.13511 223.758725 
L 202.490856 226.396206 
L 203.306921 228.378561 
L 203.853492 230.365159 
L 204.009695 231.68707 
L 203.951423 232.995262 
L 203.635272 234.268145 
L 203.01566 235.467544 
L 202.11535 236.559819 
L 201.006511 237.54124 
L 199.11505 238.86123 
L 198.457957 239.28261 
L 198.457957 239.28261 
" style="fill:none;stroke:#d62728;stroke-linecap:square;stroke-width:1.5;"/>
   </g>
   <g id="line2d_42">
    <path clip-path="url(#pb33d01ffdf)" d="M 115.016895 90.620926 
L 120.122067 91.158576 
L 123.006774 91.653254 
L 125.138396 92.19159 
L 127.22595 92.937394 
L 128.580901 93.589532 
L 129.892329 94.404476 
L 131.140396 95.428166 
L 132.294635 96.716714 
L 133.314393 98.315229 
L 134.162503 100.206618 
L 134.824829 102.290958 
L 135.311085 104.447854 
L 135.762785 107.647332 
L 136.008259 111.686195 
L 136.392625 123.095176 
L 136.843293 126.25085 
L 137.536614 129.291476 
L 138.462941 132.232841 
L 139.58131 135.091204 
L 141.479513 139.269761 
L 145.298472 147.530591 
L 147.267469 152.426252 
L 150.375752 160.973941 
L 152.317526 165.966198 
L 153.938572 169.460945 
L 155.463327 172.169605 
L 157.237416 174.767816 
L 159.265039 177.235485 
L 161.499763 179.577264 
L 169.467891 187.519466 
L 171.389752 189.931867 
L 173.534226 193.046491 
L 176.473406 197.430677 
L 177.907916 199.234917 
L 179.536266 200.944023 
L 181.386083 202.524824 
L 184.137449 204.456901 
L 189.218244 207.828424 
L 190.570526 208.920972 
L 192.350694 210.698031 
L 193.90578 212.563107 
L 195.73732 215.124202 
L 198.208074 218.992764 
L 200.421396 222.855416 
L 201.67486 225.432275 
L 202.426344 227.371984 
L 202.942401 229.320145 
L 203.113087 230.620621 
L 203.111427 231.915008 
L 202.910242 233.190705 
L 202.489905 234.429327 
L 201.850605 235.611035 
L 201.022339 236.725171 
L 199.533671 238.28455 
L 198.457957 239.28261 
L 198.457957 239.28261 
" style="fill:none;stroke:#9467bd;stroke-linecap:square;stroke-width:1.5;"/>
   </g>
   <g id="line2d_43">
    <path clip-path="url(#pb33d01ffdf)" d="M 115.016895 90.620926 
L 120.842404 91.263886 
L 123.717553 91.76015 
L 126.539947 92.485769 
L 128.600003 93.254326 
L 130.579925 94.299627 
L 131.830076 95.20513 
L 132.99466 96.330175 
L 134.035123 97.726841 
L 134.905576 99.428155 
L 135.572695 101.402773 
L 136.036765 103.54567 
L 136.420943 106.826101 
L 136.568785 111.013542 
L 136.701449 121.125801 
L 137.019705 124.446896 
L 137.556082 127.637904 
L 138.31217 130.71923 
L 139.266135 133.707352 
L 140.673231 137.337673 
L 143.172379 142.996837 
L 146.226168 150.018087 
L 148.705877 156.396634 
L 151.746235 164.203197 
L 153.338462 167.689377 
L 154.790759 170.413889 
L 156.438687 173.058264 
L 158.29342 175.606637 
L 160.334063 178.055576 
L 163.618169 181.583479 
L 167.991159 186.229767 
L 170.498757 189.217437 
L 173.252146 192.901365 
L 176.465216 197.20003 
L 178.558103 199.539927 
L 180.328636 201.188059 
L 182.277673 202.722834 
L 186.496175 205.617889 
L 189.306545 207.636254 
L 191.232035 209.322691 
L 192.884293 211.138647 
L 194.781251 213.660752 
L 196.844306 216.863182 
L 199.068597 220.690626 
L 200.663981 223.876588 
L 201.665393 226.438593 
L 202.178718 228.372612 
L 202.416432 230.312604 
L 202.38799 231.6009 
L 202.190656 232.874608 
L 201.817047 234.122049 
L 201.273553 235.332497 
L 200.192755 237.069994 
L 198.457957 239.28261 
L 198.457957 239.28261 
" style="fill:none;stroke:#8c564b;stroke-linecap:square;stroke-width:1.5;"/>
   </g>
   <g id="patch_3">
    <path d="M 57.6 307.584 
L 57.6 41.472 
" style="fill:none;stroke:#000000;stroke-linecap:square;stroke-linejoin:miter;stroke-width:0.8;"/>
   </g>
   <g id="patch_4">
    <path d="M 414.72 307.584 
L 414.72 41.472 
" style="fill:none;stroke:#000000;stroke-linecap:square;stroke-linejoin:miter;stroke-width:0.8;"/>
   </g>
   <g id="patch_5">
    <path d="M 57.6 307.584 
L 414.72 307.584 
" style="fill:none;stroke:#000000;stroke-linecap:square;stroke-linejoin:miter;stroke-width:0.8;"/>
   </g>
   <g id="patch_6">
    <path d="M 57.6 41.472 
L 414.72 41.472 
" style="fill:none;stroke:#000000;stroke-linecap:square;stroke-linejoin:miter;stroke-width:0.8;"/>
   </g>
   <g id="legend_1">
    <g id="patch_7">
     <path d="M 369.3575 137.54075 
L 407.72 137.54075 
Q 409.72 137.54075 409.72 135.54075 
L 409.72 48.472 
Q 409.72 46.472 407.72 46.472 
L 369.3575 46.472 
Q 367.3575 46.472 367.3575 48.472 
L 367.3575 135.54075 
Q 367.3575 137.54075 369.3575 137.54075 
z
" style="fill:#ffffff;opacity:0.8;stroke:#cccccc;stroke-linejoin:miter;"/>
    </g>
    <g id="line2d_44">
     <path d="M 371.3575 54.570438 
L 391.3575 54.570438 
" style="fill:none;stroke:#1f77b4;stroke-linecap:square;stroke-width:1.5;"/>
    </g>
    <g id="line2d_45"/>
    <g id="text_17">
     <!-- 0 -->
     <g transform="translate(399.3575 58.070438)scale(0.1 -0.1)">
      <use xlink:href="#DejaVuSans-48"/>
     </g>
    </g>
    <g id="line2d_46">
     <path d="M 371.3575 69.248563 
L 391.3575 69.248563 
" style="fill:none;stroke:#ff7f0e;stroke-linecap:square;stroke-width:1.5;"/>
    </g>
    <g id="line2d_47"/>
    <g id="text_18">
     <!-- 1 -->
     <g transform="translate(399.3575 72.748563)scale(0.1 -0.1)">
      <use xlink:href="#DejaVuSans-49"/>
     </g>
    </g>
    <g id="line2d_48">
     <path d="M 371.3575 83.926688 
L 391.3575 83.926688 
" style="fill:none;stroke:#2ca02c;stroke-linecap:square;stroke-width:1.5;"/>
    </g>
    <g id="line2d_49"/>
    <g id="text_19">
     <!-- 2 -->
     <g transform="translate(399.3575 87.426688)scale(0.1 -0.1)">
      <use xlink:href="#DejaVuSans-50"/>
     </g>
    </g>
    <g id="line2d_50">
     <path d="M 371.3575 98.604813 
L 391.3575 98.604813 
" style="fill:none;stroke:#d62728;stroke-linecap:square;stroke-width:1.5;"/>
    </g>
    <g id="line2d_51"/>
    <g id="text_20">
     <!-- 3 -->
     <g transform="translate(399.3575 102.104813)scale(0.1 -0.1)">
      <use xlink:href="#DejaVuSans-51"/>
     </g>
    </g>
    <g id="line2d_52">
     <path d="M 371.3575 113.282938 
L 391.3575 113.282938 
" style="fill:none;stroke:#9467bd;stroke-linecap:square;stroke-width:1.5;"/>
    </g>
    <g id="line2d_53"/>
    <g id="text_21">
     <!-- 4 -->
     <g transform="translate(399.3575 116.782938)scale(0.1 -0.1)">
      <use xlink:href="#DejaVuSans-52"/>
     </g>
    </g>
    <g id="line2d_54">
     <path d="M 371.3575 127.961063 
L 391.3575 127.961063 
" style="fill:none;stroke:#8c564b;stroke-linecap:square;stroke-width:1.5;"/>
    </g>
    <g id="line2d_55"/>
    <g id="text_22">
     <!-- 5 -->
     <g transform="translate(399.3575 131.461063)scale(0.1 -0.1)">
      <use xlink:href="#DejaVuSans-53"/>
     </g>
    </g>
   </g>
  </g>
 </g>
 <defs>
  <clipPath id="pb33d01ffdf">
   <rect height="266.112" width="357.12" x="57.6" y="41.472"/>
  </clipPath>
 </defs>
</svg>
