<?xml version="1.0" encoding="utf-8" standalone="no"?>
<!DOCTYPE svg PUBLIC "-//W3C//DTD SVG 1.1//EN"
  "http://www.w3.org/Graphics/SVG/1.1/DTD/svg11.dtd">
<!-- Created with matplotlib (https://matplotlib.org/) -->
<svg height="345.6pt" version="1.1" viewBox="0 0 460.8 345.6" width="460.8pt" xmlns="http://www.w3.org/2000/svg" xmlns:xlink="http://www.w3.org/1999/xlink">
 <defs>
  <style type="text/css">
*{stroke-linecap:butt;stroke-linejoin:round;}
  </style>
 </defs>
 <g id="figure_1">
  <g id="patch_1">
   <path d="M 0 345.6 
L 460.8 345.6 
L 460.8 0 
L 0 0 
z
" style="fill:#ffffff;"/>
  </g>
  <g id="axes_1">
   <g id="patch_2">
    <path d="M 57.6 307.584 
L 414.72 307.584 
L 414.72 41.472 
L 57.6 41.472 
z
" style="fill:#ffffff;"/>
   </g>
   <g id="matplotlib.axis_1">
    <g id="xtick_1">
     <g id="line2d_1">
      <defs>
       <path d="M 0 0 
L 0 3.5 
" id="m3fe8542384" style="stroke:#000000;stroke-width:0.8;"/>
      </defs>
      <g>
       <use style="stroke:#000000;stroke-width:0.8;" x="79.918588" xlink:href="#m3fe8542384" y="307.584"/>
      </g>
     </g>
     <g id="text_1">
      <!-- −10 -->
      <defs>
       <path d="M 10.59375 35.5 
L 73.1875 35.5 
L 73.1875 27.203125 
L 10.59375 27.203125 
z
" id="DejaVuSans-8722"/>
       <path d="M 12.40625 8.296875 
L 28.515625 8.296875 
L 28.515625 63.921875 
L 10.984375 60.40625 
L 10.984375 69.390625 
L 28.421875 72.90625 
L 38.28125 72.90625 
L 38.28125 8.296875 
L 54.390625 8.296875 
L 54.390625 0 
L 12.40625 0 
z
" id="DejaVuSans-49"/>
       <path d="M 31.78125 66.40625 
Q 24.171875 66.40625 20.328125 58.90625 
Q 16.5 51.421875 16.5 36.375 
Q 16.5 21.390625 20.328125 13.890625 
Q 24.171875 6.390625 31.78125 6.390625 
Q 39.453125 6.390625 43.28125 13.890625 
Q 47.125 21.390625 47.125 36.375 
Q 47.125 51.421875 43.28125 58.90625 
Q 39.453125 66.40625 31.78125 66.40625 
z
M 31.78125 74.21875 
Q 44.046875 74.21875 50.515625 64.515625 
Q 56.984375 54.828125 56.984375 36.375 
Q 56.984375 17.96875 50.515625 8.265625 
Q 44.046875 -1.421875 31.78125 -1.421875 
Q 19.53125 -1.421875 13.0625 8.265625 
Q 6.59375 17.96875 6.59375 36.375 
Q 6.59375 54.828125 13.0625 64.515625 
Q 19.53125 74.21875 31.78125 74.21875 
z
" id="DejaVuSans-48"/>
      </defs>
      <g transform="translate(69.366244 322.182437)scale(0.1 -0.1)">
       <use xlink:href="#DejaVuSans-8722"/>
       <use x="83.789062" xlink:href="#DejaVuSans-49"/>
       <use x="147.412109" xlink:href="#DejaVuSans-48"/>
      </g>
     </g>
    </g>
    <g id="xtick_2">
     <g id="line2d_2">
      <g>
       <use style="stroke:#000000;stroke-width:0.8;" x="151.027488" xlink:href="#m3fe8542384" y="307.584"/>
      </g>
     </g>
     <g id="text_2">
      <!-- −5 -->
      <defs>
       <path d="M 10.796875 72.90625 
L 49.515625 72.90625 
L 49.515625 64.59375 
L 19.828125 64.59375 
L 19.828125 46.734375 
Q 21.96875 47.46875 24.109375 47.828125 
Q 26.265625 48.1875 28.421875 48.1875 
Q 40.625 48.1875 47.75 41.5 
Q 54.890625 34.8125 54.890625 23.390625 
Q 54.890625 11.625 47.5625 5.09375 
Q 40.234375 -1.421875 26.90625 -1.421875 
Q 22.3125 -1.421875 17.546875 -0.640625 
Q 12.796875 0.140625 7.71875 1.703125 
L 7.71875 11.625 
Q 12.109375 9.234375 16.796875 8.0625 
Q 21.484375 6.890625 26.703125 6.890625 
Q 35.15625 6.890625 40.078125 11.328125 
Q 45.015625 15.765625 45.015625 23.390625 
Q 45.015625 31 40.078125 35.4375 
Q 35.15625 39.890625 26.703125 39.890625 
Q 22.75 39.890625 18.8125 39.015625 
Q 14.890625 38.140625 10.796875 36.28125 
z
" id="DejaVuSans-53"/>
      </defs>
      <g transform="translate(143.656395 322.182437)scale(0.1 -0.1)">
       <use xlink:href="#DejaVuSans-8722"/>
       <use x="83.789062" xlink:href="#DejaVuSans-53"/>
      </g>
     </g>
    </g>
    <g id="xtick_3">
     <g id="line2d_3">
      <g>
       <use style="stroke:#000000;stroke-width:0.8;" x="222.136388" xlink:href="#m3fe8542384" y="307.584"/>
      </g>
     </g>
     <g id="text_3">
      <!-- 0 -->
      <g transform="translate(218.955138 322.182437)scale(0.1 -0.1)">
       <use xlink:href="#DejaVuSans-48"/>
      </g>
     </g>
    </g>
    <g id="xtick_4">
     <g id="line2d_4">
      <g>
       <use style="stroke:#000000;stroke-width:0.8;" x="293.245288" xlink:href="#m3fe8542384" y="307.584"/>
      </g>
     </g>
     <g id="text_4">
      <!-- 5 -->
      <g transform="translate(290.064038 322.182437)scale(0.1 -0.1)">
       <use xlink:href="#DejaVuSans-53"/>
      </g>
     </g>
    </g>
    <g id="xtick_5">
     <g id="line2d_5">
      <g>
       <use style="stroke:#000000;stroke-width:0.8;" x="364.354188" xlink:href="#m3fe8542384" y="307.584"/>
      </g>
     </g>
     <g id="text_5">
      <!-- 10 -->
      <g transform="translate(357.991688 322.182437)scale(0.1 -0.1)">
       <use xlink:href="#DejaVuSans-49"/>
       <use x="63.623047" xlink:href="#DejaVuSans-48"/>
      </g>
     </g>
    </g>
   </g>
   <g id="matplotlib.axis_2">
    <g id="ytick_1">
     <g id="line2d_6">
      <defs>
       <path d="M 0 0 
L -3.5 0 
" id="m4d0e485fbb" style="stroke:#000000;stroke-width:0.8;"/>
      </defs>
      <g>
       <use style="stroke:#000000;stroke-width:0.8;" x="57.6" xlink:href="#m4d0e485fbb" y="300.726143"/>
      </g>
     </g>
     <g id="text_6">
      <!-- −20 -->
      <defs>
       <path d="M 19.1875 8.296875 
L 53.609375 8.296875 
L 53.609375 0 
L 7.328125 0 
L 7.328125 8.296875 
Q 12.9375 14.109375 22.625 23.890625 
Q 32.328125 33.6875 34.8125 36.53125 
Q 39.546875 41.84375 41.421875 45.53125 
Q 43.3125 49.21875 43.3125 52.78125 
Q 43.3125 58.59375 39.234375 62.25 
Q 35.15625 65.921875 28.609375 65.921875 
Q 23.96875 65.921875 18.8125 64.3125 
Q 13.671875 62.703125 7.8125 59.421875 
L 7.8125 69.390625 
Q 13.765625 71.78125 18.9375 73 
Q 24.125 74.21875 28.421875 74.21875 
Q 39.75 74.21875 46.484375 68.546875 
Q 53.21875 62.890625 53.21875 53.421875 
Q 53.21875 48.921875 51.53125 44.890625 
Q 49.859375 40.875 45.40625 35.40625 
Q 44.1875 33.984375 37.640625 27.21875 
Q 31.109375 20.453125 19.1875 8.296875 
z
" id="DejaVuSans-50"/>
      </defs>
      <g transform="translate(29.495313 304.525362)scale(0.1 -0.1)">
       <use xlink:href="#DejaVuSans-8722"/>
       <use x="83.789062" xlink:href="#DejaVuSans-50"/>
       <use x="147.412109" xlink:href="#DejaVuSans-48"/>
      </g>
     </g>
    </g>
    <g id="ytick_2">
     <g id="line2d_7">
      <g>
       <use style="stroke:#000000;stroke-width:0.8;" x="57.6" xlink:href="#m4d0e485fbb" y="265.917938"/>
      </g>
     </g>
     <g id="text_7">
      <!-- −15 -->
      <g transform="translate(29.495313 269.717157)scale(0.1 -0.1)">
       <use xlink:href="#DejaVuSans-8722"/>
       <use x="83.789062" xlink:href="#DejaVuSans-49"/>
       <use x="147.412109" xlink:href="#DejaVuSans-53"/>
      </g>
     </g>
    </g>
    <g id="ytick_3">
     <g id="line2d_8">
      <g>
       <use style="stroke:#000000;stroke-width:0.8;" x="57.6" xlink:href="#m4d0e485fbb" y="231.109733"/>
      </g>
     </g>
     <g id="text_8">
      <!-- −10 -->
      <g transform="translate(29.495313 234.908952)scale(0.1 -0.1)">
       <use xlink:href="#DejaVuSans-8722"/>
       <use x="83.789062" xlink:href="#DejaVuSans-49"/>
       <use x="147.412109" xlink:href="#DejaVuSans-48"/>
      </g>
     </g>
    </g>
    <g id="ytick_4">
     <g id="line2d_9">
      <g>
       <use style="stroke:#000000;stroke-width:0.8;" x="57.6" xlink:href="#m4d0e485fbb" y="196.301528"/>
      </g>
     </g>
     <g id="text_9">
      <!-- −5 -->
      <g transform="translate(35.857813 200.100746)scale(0.1 -0.1)">
       <use xlink:href="#DejaVuSans-8722"/>
       <use x="83.789062" xlink:href="#DejaVuSans-53"/>
      </g>
     </g>
    </g>
    <g id="ytick_5">
     <g id="line2d_10">
      <g>
       <use style="stroke:#000000;stroke-width:0.8;" x="57.6" xlink:href="#m4d0e485fbb" y="161.493322"/>
      </g>
     </g>
     <g id="text_10">
      <!-- 0 -->
      <g transform="translate(44.2375 165.292541)scale(0.1 -0.1)">
       <use xlink:href="#DejaVuSans-48"/>
      </g>
     </g>
    </g>
    <g id="ytick_6">
     <g id="line2d_11">
      <g>
       <use style="stroke:#000000;stroke-width:0.8;" x="57.6" xlink:href="#m4d0e485fbb" y="126.685117"/>
      </g>
     </g>
     <g id="text_11">
      <!-- 5 -->
      <g transform="translate(44.2375 130.484336)scale(0.1 -0.1)">
       <use xlink:href="#DejaVuSans-53"/>
      </g>
     </g>
    </g>
    <g id="ytick_7">
     <g id="line2d_12">
      <g>
       <use style="stroke:#000000;stroke-width:0.8;" x="57.6" xlink:href="#m4d0e485fbb" y="91.876912"/>
      </g>
     </g>
     <g id="text_12">
      <!-- 10 -->
      <g transform="translate(37.875 95.676131)scale(0.1 -0.1)">
       <use xlink:href="#DejaVuSans-49"/>
       <use x="63.623047" xlink:href="#DejaVuSans-48"/>
      </g>
     </g>
    </g>
    <g id="ytick_8">
     <g id="line2d_13">
      <g>
       <use style="stroke:#000000;stroke-width:0.8;" x="57.6" xlink:href="#m4d0e485fbb" y="57.068707"/>
      </g>
     </g>
     <g id="text_13">
      <!-- 15 -->
      <g transform="translate(37.875 60.867926)scale(0.1 -0.1)">
       <use xlink:href="#DejaVuSans-49"/>
       <use x="63.623047" xlink:href="#DejaVuSans-53"/>
      </g>
     </g>
    </g>
   </g>
   <g id="line2d_14">
    <path clip-path="url(#ped54a07318)" d="M 126.833293 204.670359 
L 121.220674 212.565774 
L 107.972203 196.772832 
L 125.565827 198.752703 
L 126.833293 204.670359 
" style="fill:none;stroke:#008000;stroke-linecap:square;stroke-width:1.5;"/>
   </g>
   <g id="line2d_15">
    <path clip-path="url(#ped54a07318)" d="M 116.520787 158.003735 
L 117.625993 136.414921 
L 95.206708 128.923773 
L 102.568752 111.702392 
L 93.779369 98.694612 
L 97.718217 90.462618 
L 105.773914 88.094255 
L 145.979678 88.479048 
L 151.922262 90.373441 
L 150.707511 95.173375 
L 161.625145 97.069193 
L 161.226706 131.716772 
L 196.022439 131.577821 
L 198.542262 135.072814 
L 202.717529 131.576371 
L 248.427934 130.864262 
L 262.727873 133.279095 
L 262.257348 136.615366 
L 271.053949 135.288189 
L 271.412384 139.653834 
L 274.722674 137.08432 
L 263.491929 130.762232 
L 289.194764 133.236781 
L 269.678647 146.560215 
L 278.832648 176.208993 
L 164.339331 177.007404 
L 155.634194 169.211535 
L 155.748567 160.043623 
L 161.710071 157.316433 
L 173.868525 161.609416 
L 170.180495 166.357704 
L 196.058652 167.560468 
L 204.083288 175.441657 
L 239.397094 174.725557 
L 239.604892 168.830593 
L 253.805352 170.950741 
L 262.106878 164.341787 
L 264.072314 145.149051 
L 242.050965 134.03692 
L 238.990992 137.926823 
L 221.580717 140.575262 
L 184.830459 140.439188 
L 185.541706 144.627545 
L 173.416077 147.16794 
L 165.162345 146.082774 
L 172.219481 142.814653 
L 168.105865 141.63016 
L 156.201532 145.243912 
L 152.336211 101.970832 
L 142.833915 92.43691 
L 107.908135 91.199869 
L 101.907047 102.205231 
L 110.818376 111.224266 
L 105.607636 120.986787 
L 113.432065 129.194151 
L 126.462339 130.020699 
L 124.810413 180.610121 
L 116.520787 158.003735 
" style="fill:none;stroke:#008000;stroke-linecap:square;stroke-width:1.5;"/>
   </g>
   <g id="line2d_16">
    <path clip-path="url(#ped54a07318)" d="M 97.910475 65.006102 
L 93.887948 65.006102 
L 93.887948 63.037053 
L 97.910475 63.037053 
L 97.910475 65.006102 
" style="fill:none;stroke:#008000;stroke-linecap:square;stroke-width:1.5;"/>
   </g>
   <g id="line2d_17">
    <path clip-path="url(#ped54a07318)" d="M 74.30035 60.107914 
L 73.832727 57.601043 
L 97.63815 53.568 
L 96.633011 55.474586 
L 74.30035 60.107914 
" style="fill:none;stroke:#008000;stroke-linecap:square;stroke-width:1.5;"/>
   </g>
   <g id="line2d_18">
    <path clip-path="url(#ped54a07318)" d="M 159.071541 292.423364 
L 160.148394 295.414046 
L 143.946073 295.488 
L 127.912793 291.178368 
L 159.071541 292.423364 
" style="fill:none;stroke:#008000;stroke-linecap:square;stroke-width:1.5;"/>
   </g>
   <g id="line2d_19">
    <path clip-path="url(#ped54a07318)" d="M 120.97518 220.857062 
L 126.102747 220.665145 
L 127.884643 226.741257 
L 124.004965 226.221178 
L 120.97518 220.857062 
" style="fill:none;stroke:#008000;stroke-linecap:square;stroke-width:1.5;"/>
   </g>
   <g id="line2d_20">
    <path clip-path="url(#ped54a07318)" d="M 204.045627 152.720977 
L 223.995549 151.44803 
L 226.630187 155.949588 
L 205.286336 162.467955 
L 204.045627 152.720977 
" style="fill:none;stroke:#008000;stroke-linecap:square;stroke-width:1.5;"/>
   </g>
   <g id="line2d_21">
    <path clip-path="url(#ped54a07318)" d="M 290.669357 170.697317 
L 303.200163 171.617687 
L 298.447796 177.687851 
L 289.631596 175.697746 
L 290.669357 170.697317 
" style="fill:none;stroke:#008000;stroke-linecap:square;stroke-width:1.5;"/>
   </g>
   <g id="line2d_22">
    <path clip-path="url(#ped54a07318)" d="M 316.194585 150.90286 
L 321.153259 151.276236 
L 320.836099 157.924843 
L 317.209057 157.073427 
L 316.194585 150.90286 
" style="fill:none;stroke:#008000;stroke-linecap:square;stroke-width:1.5;"/>
   </g>
   <g id="line2d_23">
    <path clip-path="url(#ped54a07318)" d="M 292.241349 152.765478 
L 295.710047 151.085654 
L 300.603851 153.824217 
L 297.142568 154.827435 
L 292.241349 152.765478 
" style="fill:none;stroke:#008000;stroke-linecap:square;stroke-width:1.5;"/>
   </g>
   <g id="line2d_24">
    <path clip-path="url(#ped54a07318)" d="M 397.990038 141.584157 
L 393.470277 141.255971 
L 394.637955 138.675543 
L 398.487273 139.247128 
L 397.990038 141.584157 
" style="fill:none;stroke:#008000;stroke-linecap:square;stroke-width:1.5;"/>
   </g>
   <g id="line2d_25">
    <path clip-path="url(#ped54a07318)" d="M 311.600051 135.165739 
L 320.978568 136.462473 
L 320.466955 143.233903 
L 316.644015 142.621366 
L 311.600051 135.165739 
" style="fill:none;stroke:#008000;stroke-linecap:square;stroke-width:1.5;"/>
   </g>
   <g id="line2d_26">
    <path clip-path="url(#ped54a07318)" d="M 234.804337 151.503039 
L 234.052014 153.310166 
L 232.437213 154.976453 
L 230.053973 156.404862 
L 227.887424 157.567676 
L 225.776129 158.796582 
L 223.578406 159.988628 
L 221.29694 161.142358 
L 219.180438 162.136707 
L 216.754439 163.190204 
L 214.32984 164.144943 
L 211.533812 165.135628 
L 208.638275 166.055274 
L 205.650754 166.90149 
L 202.579015 167.672078 
L 201.609114 166.238502 
L 200.849208 164.254905 
L 199.495998 162.348535 
L 197.579488 160.561662 
L 195.142174 158.933907 
L 192.238097 157.501361 
L 189.290745 156.326941 
L 186.873534 155.333781 
L 184.36032 154.399465 
L 181.757073 153.526212 
L 179.069982 152.716099 
L 176.305431 151.971049 
L 173.46999 151.292835 
L 170.609589 150.667959 
L 167.719425 150.092216 
L 164.786077 149.571428 
L 161.813903 149.10637 
L 158.807321 148.697731 
L 155.770798 148.34612 
L 152.669244 148.955876 
L 149.987324 149.21443 
L 146.421802 148.199875 
L 143.657786 146.701565 
L 141.958386 144.862124 
L 141.485366 142.856649 
L 141.903825 141.009456 
L 142.214921 139.480893 
L 142.875441 137.979176 
L 143.876995 136.523382 
L 145.613742 134.950519 
L 147.706873 133.801302 
L 149.513234 132.490118 
L 150.284593 131.104609 
L 150.731178 129.685308 
L 150.827569 128.246682 
L 150.478606 126.801339 
L 149.15071 125.299798 
L 146.849581 123.893679 
L 144.385083 123.0106 
L 143.054434 121.770919 
L 142.806531 120.163711 
L 143.270799 118.56803 
" style="fill:none;stroke:#1f77b4;stroke-linecap:square;stroke-width:1.5;"/>
   </g>
   <g id="line2d_27">
    <path clip-path="url(#ped54a07318)" d="M 234.804338 151.503038 
L 237.980676 147.909109 
L 238.303756 146.196602 
L 236.591637 145.761156 
L 233.932554 146.199921 
L 230.616381 147.087325 
L 226.776173 148.231401 
L 222.781582 149.5167 
L 219.20697 150.729762 
L 215.259953 152.061868 
L 211.52723 153.266295 
L 207.517616 154.437583 
L 203.712531 155.398706 
L 200.20713 156.163402 
L 197.074161 156.742113 
L 194.443746 157.045473 
L 191.245659 157.298102 
L 188.74475 157.211555 
L 186.189166 157.014633 
L 183.932715 156.557256 
L 181.617479 156.053388 
L 179.701778 155.422548 
L 178.063808 154.966186 
L 176.399163 154.426337 
L 174.787621 153.97938 
L 173.256811 153.559894 
L 171.611704 153.088213 
L 169.78586 152.597118 
L 167.96868 152.091501 
L 166.130209 151.635947 
L 164.292592 151.110537 
L 162.55269 150.598306 
L 160.862177 150.080373 
L 159.286041 149.511135 
L 157.778357 148.916738 
L 156.469105 148.297705 
L 154.461063 147.131695 
L 152.761158 145.853456 
L 151.373459 144.419175 
L 150.252942 142.909058 
L 149.530695 141.469427 
L 149.03798 140.230924 
L 148.565068 138.911213 
L 147.935767 137.535386 
L 147.102107 135.823762 
L 146.576536 134.414902 
L 146.198652 132.998519 
L 145.853129 131.681633 
L 145.5994 130.376866 
L 145.460123 129.084027 
L 145.258089 127.753524 
L 144.85942 126.188284 
L 144.319974 124.380045 
L 143.870776 122.875065 
L 143.605864 121.526553 
L 143.488009 120.054905 
L 143.270799 118.56803 
" style="fill:none;stroke:#ff7f0e;stroke-linecap:square;stroke-width:1.5;"/>
   </g>
   <g id="patch_3">
    <path d="M 57.6 307.584 
L 57.6 41.472 
" style="fill:none;stroke:#000000;stroke-linecap:square;stroke-linejoin:miter;stroke-width:0.8;"/>
   </g>
   <g id="patch_4">
    <path d="M 414.72 307.584 
L 414.72 41.472 
" style="fill:none;stroke:#000000;stroke-linecap:square;stroke-linejoin:miter;stroke-width:0.8;"/>
   </g>
   <g id="patch_5">
    <path d="M 57.6 307.584 
L 414.72 307.584 
" style="fill:none;stroke:#000000;stroke-linecap:square;stroke-linejoin:miter;stroke-width:0.8;"/>
   </g>
   <g id="patch_6">
    <path d="M 57.6 41.472 
L 414.72 41.472 
" style="fill:none;stroke:#000000;stroke-linecap:square;stroke-linejoin:miter;stroke-width:0.8;"/>
   </g>
   <g id="legend_1">
    <g id="patch_7">
     <path d="M 369.3575 78.82825 
L 407.72 78.82825 
Q 409.72 78.82825 409.72 76.82825 
L 409.72 48.472 
Q 409.72 46.472 407.72 46.472 
L 369.3575 46.472 
Q 367.3575 46.472 367.3575 48.472 
L 367.3575 76.82825 
Q 367.3575 78.82825 369.3575 78.82825 
z
" style="fill:#ffffff;opacity:0.8;stroke:#cccccc;stroke-linejoin:miter;"/>
    </g>
    <g id="line2d_28">
     <path d="M 371.3575 54.570437 
L 391.3575 54.570437 
" style="fill:none;stroke:#1f77b4;stroke-linecap:square;stroke-width:1.5;"/>
    </g>
    <g id="line2d_29"/>
    <g id="text_14">
     <!-- 0 -->
     <g transform="translate(399.3575 58.070437)scale(0.1 -0.1)">
      <use xlink:href="#DejaVuSans-48"/>
     </g>
    </g>
    <g id="line2d_30">
     <path d="M 371.3575 69.248562 
L 391.3575 69.248562 
" style="fill:none;stroke:#ff7f0e;stroke-linecap:square;stroke-width:1.5;"/>
    </g>
    <g id="line2d_31"/>
    <g id="text_15">
     <!-- 1 -->
     <g transform="translate(399.3575 72.748562)scale(0.1 -0.1)">
      <use xlink:href="#DejaVuSans-49"/>
     </g>
    </g>
   </g>
  </g>
 </g>
 <defs>
  <clipPath id="ped54a07318">
   <rect height="266.112" width="357.12" x="57.6" y="41.472"/>
  </clipPath>
 </defs>
</svg>
