<?xml version="1.0" encoding="utf-8" standalone="no"?>
<!DOCTYPE svg PUBLIC "-//W3C//DTD SVG 1.1//EN"
  "http://www.w3.org/Graphics/SVG/1.1/DTD/svg11.dtd">
<!-- Created with matplotlib (https://matplotlib.org/) -->
<svg height="345.6pt" version="1.1" viewBox="0 0 460.8 345.6" width="460.8pt" xmlns="http://www.w3.org/2000/svg" xmlns:xlink="http://www.w3.org/1999/xlink">
 <defs>
  <style type="text/css">
*{stroke-linecap:butt;stroke-linejoin:round;}
  </style>
 </defs>
 <g id="figure_1">
  <g id="patch_1">
   <path d="M 0 345.6 
L 460.8 345.6 
L 460.8 0 
L 0 0 
z
" style="fill:#ffffff;"/>
  </g>
  <g id="axes_1">
   <g id="patch_2">
    <path d="M 57.6 307.584 
L 414.72 307.584 
L 414.72 41.472 
L 57.6 41.472 
z
" style="fill:#ffffff;"/>
   </g>
   <g id="matplotlib.axis_1">
    <g id="xtick_1">
     <g id="line2d_1">
      <defs>
       <path d="M 0 0 
L 0 3.5 
" id="mfbd21ad650" style="stroke:#000000;stroke-width:0.8;"/>
      </defs>
      <g>
       <use style="stroke:#000000;stroke-width:0.8;" x="59.842754" xlink:href="#mfbd21ad650" y="307.584"/>
      </g>
     </g>
     <g id="text_1">
      <!-- −6 -->
      <defs>
       <path d="M 10.59375 35.5 
L 73.1875 35.5 
L 73.1875 27.203125 
L 10.59375 27.203125 
z
" id="DejaVuSans-8722"/>
       <path d="M 33.015625 40.375 
Q 26.375 40.375 22.484375 35.828125 
Q 18.609375 31.296875 18.609375 23.390625 
Q 18.609375 15.53125 22.484375 10.953125 
Q 26.375 6.390625 33.015625 6.390625 
Q 39.65625 6.390625 43.53125 10.953125 
Q 47.40625 15.53125 47.40625 23.390625 
Q 47.40625 31.296875 43.53125 35.828125 
Q 39.65625 40.375 33.015625 40.375 
z
M 52.59375 71.296875 
L 52.59375 62.3125 
Q 48.875 64.0625 45.09375 64.984375 
Q 41.3125 65.921875 37.59375 65.921875 
Q 27.828125 65.921875 22.671875 59.328125 
Q 17.53125 52.734375 16.796875 39.40625 
Q 19.671875 43.65625 24.015625 45.921875 
Q 28.375 48.1875 33.59375 48.1875 
Q 44.578125 48.1875 50.953125 41.515625 
Q 57.328125 34.859375 57.328125 23.390625 
Q 57.328125 12.15625 50.6875 5.359375 
Q 44.046875 -1.421875 33.015625 -1.421875 
Q 20.359375 -1.421875 13.671875 8.265625 
Q 6.984375 17.96875 6.984375 36.375 
Q 6.984375 53.65625 15.1875 63.9375 
Q 23.390625 74.21875 37.203125 74.21875 
Q 40.921875 74.21875 44.703125 73.484375 
Q 48.484375 72.75 52.59375 71.296875 
z
" id="DejaVuSans-54"/>
      </defs>
      <g transform="translate(52.471661 322.182437)scale(0.1 -0.1)">
       <use xlink:href="#DejaVuSans-8722"/>
       <use x="83.789062" xlink:href="#DejaVuSans-54"/>
      </g>
     </g>
    </g>
    <g id="xtick_2">
     <g id="line2d_2">
      <g>
       <use style="stroke:#000000;stroke-width:0.8;" x="119.12288" xlink:href="#mfbd21ad650" y="307.584"/>
      </g>
     </g>
     <g id="text_2">
      <!-- −5 -->
      <defs>
       <path d="M 10.796875 72.90625 
L 49.515625 72.90625 
L 49.515625 64.59375 
L 19.828125 64.59375 
L 19.828125 46.734375 
Q 21.96875 47.46875 24.109375 47.828125 
Q 26.265625 48.1875 28.421875 48.1875 
Q 40.625 48.1875 47.75 41.5 
Q 54.890625 34.8125 54.890625 23.390625 
Q 54.890625 11.625 47.5625 5.09375 
Q 40.234375 -1.421875 26.90625 -1.421875 
Q 22.3125 -1.421875 17.546875 -0.640625 
Q 12.796875 0.140625 7.71875 1.703125 
L 7.71875 11.625 
Q 12.109375 9.234375 16.796875 8.0625 
Q 21.484375 6.890625 26.703125 6.890625 
Q 35.15625 6.890625 40.078125 11.328125 
Q 45.015625 15.765625 45.015625 23.390625 
Q 45.015625 31 40.078125 35.4375 
Q 35.15625 39.890625 26.703125 39.890625 
Q 22.75 39.890625 18.8125 39.015625 
Q 14.890625 38.140625 10.796875 36.28125 
z
" id="DejaVuSans-53"/>
      </defs>
      <g transform="translate(111.751787 322.182437)scale(0.1 -0.1)">
       <use xlink:href="#DejaVuSans-8722"/>
       <use x="83.789062" xlink:href="#DejaVuSans-53"/>
      </g>
     </g>
    </g>
    <g id="xtick_3">
     <g id="line2d_3">
      <g>
       <use style="stroke:#000000;stroke-width:0.8;" x="178.403007" xlink:href="#mfbd21ad650" y="307.584"/>
      </g>
     </g>
     <g id="text_3">
      <!-- −4 -->
      <defs>
       <path d="M 37.796875 64.3125 
L 12.890625 25.390625 
L 37.796875 25.390625 
z
M 35.203125 72.90625 
L 47.609375 72.90625 
L 47.609375 25.390625 
L 58.015625 25.390625 
L 58.015625 17.1875 
L 47.609375 17.1875 
L 47.609375 0 
L 37.796875 0 
L 37.796875 17.1875 
L 4.890625 17.1875 
L 4.890625 26.703125 
z
" id="DejaVuSans-52"/>
      </defs>
      <g transform="translate(171.031913 322.182437)scale(0.1 -0.1)">
       <use xlink:href="#DejaVuSans-8722"/>
       <use x="83.789062" xlink:href="#DejaVuSans-52"/>
      </g>
     </g>
    </g>
    <g id="xtick_4">
     <g id="line2d_4">
      <g>
       <use style="stroke:#000000;stroke-width:0.8;" x="237.683133" xlink:href="#mfbd21ad650" y="307.584"/>
      </g>
     </g>
     <g id="text_4">
      <!-- −3 -->
      <defs>
       <path d="M 40.578125 39.3125 
Q 47.65625 37.796875 51.625 33 
Q 55.609375 28.21875 55.609375 21.1875 
Q 55.609375 10.40625 48.1875 4.484375 
Q 40.765625 -1.421875 27.09375 -1.421875 
Q 22.515625 -1.421875 17.65625 -0.515625 
Q 12.796875 0.390625 7.625 2.203125 
L 7.625 11.71875 
Q 11.71875 9.328125 16.59375 8.109375 
Q 21.484375 6.890625 26.8125 6.890625 
Q 36.078125 6.890625 40.9375 10.546875 
Q 45.796875 14.203125 45.796875 21.1875 
Q 45.796875 27.640625 41.28125 31.265625 
Q 36.765625 34.90625 28.71875 34.90625 
L 20.21875 34.90625 
L 20.21875 43.015625 
L 29.109375 43.015625 
Q 36.375 43.015625 40.234375 45.921875 
Q 44.09375 48.828125 44.09375 54.296875 
Q 44.09375 59.90625 40.109375 62.90625 
Q 36.140625 65.921875 28.71875 65.921875 
Q 24.65625 65.921875 20.015625 65.03125 
Q 15.375 64.15625 9.8125 62.3125 
L 9.8125 71.09375 
Q 15.4375 72.65625 20.34375 73.4375 
Q 25.25 74.21875 29.59375 74.21875 
Q 40.828125 74.21875 47.359375 69.109375 
Q 53.90625 64.015625 53.90625 55.328125 
Q 53.90625 49.265625 50.4375 45.09375 
Q 46.96875 40.921875 40.578125 39.3125 
z
" id="DejaVuSans-51"/>
      </defs>
      <g transform="translate(230.312039 322.182437)scale(0.1 -0.1)">
       <use xlink:href="#DejaVuSans-8722"/>
       <use x="83.789062" xlink:href="#DejaVuSans-51"/>
      </g>
     </g>
    </g>
    <g id="xtick_5">
     <g id="line2d_5">
      <g>
       <use style="stroke:#000000;stroke-width:0.8;" x="296.963259" xlink:href="#mfbd21ad650" y="307.584"/>
      </g>
     </g>
     <g id="text_5">
      <!-- −2 -->
      <defs>
       <path d="M 19.1875 8.296875 
L 53.609375 8.296875 
L 53.609375 0 
L 7.328125 0 
L 7.328125 8.296875 
Q 12.9375 14.109375 22.625 23.890625 
Q 32.328125 33.6875 34.8125 36.53125 
Q 39.546875 41.84375 41.421875 45.53125 
Q 43.3125 49.21875 43.3125 52.78125 
Q 43.3125 58.59375 39.234375 62.25 
Q 35.15625 65.921875 28.609375 65.921875 
Q 23.96875 65.921875 18.8125 64.3125 
Q 13.671875 62.703125 7.8125 59.421875 
L 7.8125 69.390625 
Q 13.765625 71.78125 18.9375 73 
Q 24.125 74.21875 28.421875 74.21875 
Q 39.75 74.21875 46.484375 68.546875 
Q 53.21875 62.890625 53.21875 53.421875 
Q 53.21875 48.921875 51.53125 44.890625 
Q 49.859375 40.875 45.40625 35.40625 
Q 44.1875 33.984375 37.640625 27.21875 
Q 31.109375 20.453125 19.1875 8.296875 
z
" id="DejaVuSans-50"/>
      </defs>
      <g transform="translate(289.592165 322.182437)scale(0.1 -0.1)">
       <use xlink:href="#DejaVuSans-8722"/>
       <use x="83.789062" xlink:href="#DejaVuSans-50"/>
      </g>
     </g>
    </g>
    <g id="xtick_6">
     <g id="line2d_6">
      <g>
       <use style="stroke:#000000;stroke-width:0.8;" x="356.243385" xlink:href="#mfbd21ad650" y="307.584"/>
      </g>
     </g>
     <g id="text_6">
      <!-- −1 -->
      <defs>
       <path d="M 12.40625 8.296875 
L 28.515625 8.296875 
L 28.515625 63.921875 
L 10.984375 60.40625 
L 10.984375 69.390625 
L 28.421875 72.90625 
L 38.28125 72.90625 
L 38.28125 8.296875 
L 54.390625 8.296875 
L 54.390625 0 
L 12.40625 0 
z
" id="DejaVuSans-49"/>
      </defs>
      <g transform="translate(348.872291 322.182437)scale(0.1 -0.1)">
       <use xlink:href="#DejaVuSans-8722"/>
       <use x="83.789062" xlink:href="#DejaVuSans-49"/>
      </g>
     </g>
    </g>
   </g>
   <g id="matplotlib.axis_2">
    <g id="ytick_1">
     <g id="line2d_7">
      <defs>
       <path d="M 0 0 
L -3.5 0 
" id="mb847edb63b" style="stroke:#000000;stroke-width:0.8;"/>
      </defs>
      <g>
       <use style="stroke:#000000;stroke-width:0.8;" x="57.6" xlink:href="#mb847edb63b" y="263.271219"/>
      </g>
     </g>
     <g id="text_7">
      <!-- 2 -->
      <g transform="translate(44.2375 267.070437)scale(0.1 -0.1)">
       <use xlink:href="#DejaVuSans-50"/>
      </g>
     </g>
    </g>
    <g id="ytick_2">
     <g id="line2d_8">
      <g>
       <use style="stroke:#000000;stroke-width:0.8;" x="57.6" xlink:href="#mb847edb63b" y="215.62214"/>
      </g>
     </g>
     <g id="text_8">
      <!-- 3 -->
      <g transform="translate(44.2375 219.421359)scale(0.1 -0.1)">
       <use xlink:href="#DejaVuSans-51"/>
      </g>
     </g>
    </g>
    <g id="ytick_3">
     <g id="line2d_9">
      <g>
       <use style="stroke:#000000;stroke-width:0.8;" x="57.6" xlink:href="#mb847edb63b" y="167.973062"/>
      </g>
     </g>
     <g id="text_9">
      <!-- 4 -->
      <g transform="translate(44.2375 171.77228)scale(0.1 -0.1)">
       <use xlink:href="#DejaVuSans-52"/>
      </g>
     </g>
    </g>
    <g id="ytick_4">
     <g id="line2d_10">
      <g>
       <use style="stroke:#000000;stroke-width:0.8;" x="57.6" xlink:href="#mb847edb63b" y="120.323983"/>
      </g>
     </g>
     <g id="text_10">
      <!-- 5 -->
      <g transform="translate(44.2375 124.123202)scale(0.1 -0.1)">
       <use xlink:href="#DejaVuSans-53"/>
      </g>
     </g>
    </g>
    <g id="ytick_5">
     <g id="line2d_11">
      <g>
       <use style="stroke:#000000;stroke-width:0.8;" x="57.6" xlink:href="#mb847edb63b" y="72.674904"/>
      </g>
     </g>
     <g id="text_11">
      <!-- 6 -->
      <g transform="translate(44.2375 76.474123)scale(0.1 -0.1)">
       <use xlink:href="#DejaVuSans-54"/>
      </g>
     </g>
    </g>
   </g>
   <g id="line2d_12">
    <path clip-path="url(#pba67807445)" d="M 377.335694 268.567409 
L 378.179654 268.334792 
L 379.086118 267.831533 
L 379.933397 267.106604 
L 380.819412 266.067107 
L 381.811478 264.540638 
L 382.864701 262.484012 
L 384.066632 259.605855 
L 387.932906 249.805202 
L 388.574364 248.151192 
L 388.652586 247.304916 
L 388.497086 246.62636 
L 388.152499 246.086333 
L 387.59337 245.637619 
L 386.7996 245.300592 
L 385.606724 245.060271 
L 383.723848 244.926317 
L 380.404811 244.952224 
L 376.649935 245.499649 
L 372.779135 246.243223 
L 370.019941 246.987061 
L 366.888089 248.077156 
L 355.555408 252.221299 
L 342.766014 256.583183 
L 328.892711 261.226515 
L 324.590693 262.968331 
L 316.457879 266.587644 
L 309.623751 269.496113 
L 302.813125 272.139702 
L 296.015727 274.552039 
L 290.843548 276.158617 
L 284.673228 277.809571 
L 276.129018 280.124069 
L 262.725778 283.880768 
L 258.259492 284.851013 
L 253.31653 285.686073 
L 248.445408 286.288882 
L 244.267559 286.580294 
L 235.574828 286.87568 
L 229.241181 287.229183 
L 223.088589 287.586437 
L 219.758353 287.456601 
L 215.414381 287.057725 
L 210.058718 286.325874 
L 199.614631 284.633831 
L 194.865991 283.608353 
L 184.238397 281.017176 
L 180.22851 279.788303 
L 173.464192 277.439541 
L 169.110197 275.717793 
L 165.325594 273.95989 
L 155.746078 269.148448 
L 152.979648 267.447468 
L 149.613424 265.097563 
L 144.855165 261.495317 
L 140.880786 258.207627 
L 137.252842 254.929476 
L 134.373937 252.038378 
L 132.000003 249.339818 
L 129.695604 246.375915 
L 127.372117 243.022604 
L 125.169492 239.454529 
L 123.131797 235.725695 
L 120.986741 231.314854 
L 118.607471 225.9059 
L 116.72698 221.106265 
L 115.26138 216.768848 
L 113.918829 212.087153 
L 112.635894 206.786334 
L 111.189275 199.785305 
L 104.201806 163.264947 
L 103.105781 155.723735 
L 101.020673 140.863392 
L 98.214622 124.275061 
L 94.699681 104.802363 
L 93.140558 96.263764 
L 91.494189 88.703334 
L 88.819849 77.526069 
L 84.777661 60.732254 
L 83.522333 54.897437 
L 83.522333 54.897437 
" style="fill:none;stroke:#ff0000;stroke-linecap:square;stroke-width:1.5;"/>
   </g>
   <g id="line2d_13">
    <path clip-path="url(#pba67807445)" d="M 375.565379 260.795496 
L 374.185868 261.121076 
L 373.043214 261.617846 
L 372.243909 262.184738 
L 372.542111 261.786533 
L 373.28886 260.48166 
L 374.255764 258.333129 
L 375.648697 254.620307 
L 377.456921 249.883347 
L 378.979296 246.463735 
L 378.911076 246.703275 
L 378.82882 247.548685 
L 378.958185 248.480929 
L 379.296679 249.403576 
L 379.855849 250.314353 
L 380.651985 251.1819 
L 381.605209 251.902382 
L 382.749432 252.487187 
L 383.943865 252.845443 
L 384.023121 252.858171 
L 383.1567 252.818508 
L 380.745301 252.830125 
L 380.91727 252.896292 
L 376.482721 253.625746 
L 373.854172 254.268113 
L 371.188988 255.183036 
L 358.77532 259.711966 
L 346.345974 263.942375 
L 332.921556 268.434809 
L 328.818456 270.111797 
L 310.256348 278.052633 
L 302.817127 280.808515 
L 296.922623 282.77129 
L 291.647364 284.293286 
L 273.884142 289.185626 
L 266.632281 291.181355 
L 261.741649 292.298752 
L 256.768144 293.199833 
L 251.459611 293.937527 
L 246.991426 294.346897 
L 241.658431 294.589513 
L 230.845537 295.045622 
L 223.028481 295.487396 
L 219.398071 295.359393 
L 214.849789 294.971513 
L 209.615457 294.295319 
L 199.148481 292.652508 
L 194.239861 291.677401 
L 185.715263 289.678506 
L 180.06644 288.211692 
L 175.556966 286.784715 
L 168.433732 284.274126 
L 164.091599 282.518583 
L 159.988405 280.59806 
L 150.158376 275.649254 
L 147.126877 273.805688 
L 143.685271 271.439401 
L 138.792734 267.780574 
L 134.600645 264.373724 
L 130.669492 260.896459 
L 127.43726 257.75164 
L 124.770097 254.844603 
L 122.346142 251.875477 
L 119.906823 248.534609 
L 117.52754 244.903688 
L 115.30289 241.101335 
L 113.168373 236.996932 
L 110.839419 232.01193 
L 108.546447 226.601341 
L 106.782242 221.893024 
L 105.323034 217.365768 
L 103.960329 212.398435 
L 102.643067 206.732439 
L 101.084441 198.964461 
L 97.140705 178.886853 
L 95.213256 168.774043 
L 93.939755 160.931269 
L 92.692962 151.661989 
L 91.457353 143.027963 
L 88.855916 127.424938 
L 82.933769 95.11285 
L 80.932764 86.294199 
L 77.658477 72.939966 
L 75.11703 62.193906 
L 73.832727 56.226874 
L 73.832727 56.226874 
" style="fill:none;stroke:#000000;stroke-linecap:square;stroke-width:1.5;"/>
   </g>
   <g id="line2d_14">
    <path clip-path="url(#pba67807445)" d="M 379.106008 276.339323 
L 380.709403 276.015577 
L 382.620869 275.383467 
L 384.237713 274.608014 
L 385.875088 273.548791 
L 387.399446 272.249556 
L 388.763108 270.756004 
L 389.97779 269.088275 
L 391.183815 267.043495 
L 392.437226 264.438678 
L 393.804736 261.020533 
L 396.688056 253.555405 
L 398.056043 250.277537 
L 398.394719 248.759605 
L 398.487044 247.386851 
L 398.364894 246.00218 
L 398.020312 244.649572 
L 397.472488 243.385694 
L 396.670467 242.126496 
L 395.743452 241.061785 
L 394.490806 239.983689 
L 393.077413 239.078715 
L 391.409057 238.300953 
L 389.601737 237.721475 
L 387.553393 237.312899 
L 385.147484 237.074659 
L 382.148134 237.018784 
L 378.698549 237.169311 
L 373.560957 237.94849 
L 369.638238 238.749012 
L 366.471173 239.61883 
L 362.985926 240.821999 
L 350.230028 245.467211 
L 338.605317 249.413388 
L 325.182645 253.899407 
L 320.699788 255.683357 
L 314.247098 258.535645 
L 306.138113 262.057244 
L 299.524032 264.655054 
L 292.762668 267.081953 
L 287.744339 268.658355 
L 281.89076 270.229374 
L 272.915287 272.656624 
L 259.54463 276.398591 
L 255.373047 277.279957 
L 250.696538 278.035452 
L 246.326505 278.528021 
L 242.153455 278.756225 
L 228.121985 279.377972 
L 222.785532 279.681274 
L 219.638202 279.514344 
L 215.417054 279.065203 
L 208.893819 278.102705 
L 201.096523 276.790295 
L 195.991465 275.639601 
L 186.376935 273.241034 
L 182.114871 271.858147 
L 175.787243 269.586307 
L 172.396007 268.146269 
L 167.514582 265.768058 
L 161.056088 262.486949 
L 158.553271 260.896693 
L 154.964113 258.32357 
L 150.713972 255.033204 
L 146.886439 251.78159 
L 143.668697 248.770045 
L 141.25857 246.220866 
L 139.100558 243.607878 
L 136.90068 240.582128 
L 134.769447 237.278824 
L 132.783261 233.789483 
L 130.766178 229.769901 
L 128.449392 224.630248 
L 126.48008 219.748028 
L 125.0097 215.523714 
L 123.693246 211.042871 
L 122.427226 205.907305 
L 121.051002 199.3321 
L 114.295437 164.345214 
L 113.169849 157.019208 
L 110.178815 136.269566 
L 107.450598 120.529823 
L 105.020644 107.164858 
L 102.802329 94.79606 
L 101.119129 87.088077 
L 98.397183 75.727949 
L 94.473775 59.431318 
L 93.211939 53.568 
L 93.211939 53.568 
" style="fill:none;stroke:#0000ff;stroke-linecap:square;stroke-width:1.5;"/>
   </g>
   <g id="line2d_15">
    <path clip-path="url(#pba67807445)" d="M 377.335694 268.567409 
L 378.179654 268.334792 
L 379.086118 267.831533 
L 379.933397 267.106604 
L 380.819412 266.067107 
L 381.811478 264.540638 
L 382.864701 262.484012 
L 384.066632 259.605855 
L 387.932906 249.805202 
L 388.574364 248.151192 
L 388.652586 247.304916 
L 388.497086 246.62636 
L 388.152499 246.086333 
L 387.59337 245.637619 
L 386.7996 245.300592 
L 385.606724 245.060271 
L 383.723848 244.926317 
L 380.404811 244.952224 
L 376.649935 245.499649 
L 372.779135 246.243223 
L 370.019941 246.987061 
L 366.888089 248.077156 
L 355.555408 252.221299 
L 342.766014 256.583183 
L 328.892711 261.226515 
L 324.590693 262.968331 
L 316.457879 266.587644 
L 309.623751 269.496113 
L 302.813125 272.139702 
L 296.015727 274.552039 
L 290.843548 276.158617 
L 284.673228 277.809571 
L 276.129018 280.124069 
L 262.725778 283.880768 
L 258.259492 284.851013 
L 253.31653 285.686073 
L 248.445408 286.288882 
L 244.267559 286.580294 
L 235.574828 286.87568 
L 229.241181 287.229183 
L 223.088589 287.586437 
L 219.758353 287.456601 
L 215.414381 287.057725 
L 210.058718 286.325874 
L 199.614631 284.633831 
L 194.865991 283.608353 
L 184.238397 281.017176 
L 180.22851 279.788303 
L 173.464192 277.439541 
L 169.110197 275.717793 
L 165.325594 273.95989 
L 155.746078 269.148448 
L 152.979648 267.447468 
L 149.613424 265.097563 
L 144.855165 261.495317 
L 140.880786 258.207627 
L 137.252842 254.929476 
L 134.373937 252.038378 
L 132.000003 249.339818 
L 129.695604 246.375915 
L 127.372117 243.022604 
L 125.169492 239.454529 
L 123.131797 235.725695 
L 120.986741 231.314854 
L 118.607471 225.9059 
L 116.72698 221.106265 
L 115.26138 216.768848 
L 113.918829 212.087153 
L 112.635894 206.786334 
L 111.189275 199.785305 
L 104.201806 163.264947 
L 103.105781 155.723735 
L 101.020673 140.863392 
L 98.214622 124.275061 
L 94.699681 104.802363 
L 93.140558 96.263764 
L 91.494189 88.703334 
L 88.819849 77.526069 
L 84.777661 60.732254 
L 83.522333 54.897437 
L 83.522333 54.897437 
" style="fill:none;stroke:#ff0000;stroke-linecap:square;stroke-width:1.5;"/>
   </g>
   <g id="line2d_16">
    <path clip-path="url(#pba67807445)" d="M 375.565379 260.795496 
L 374.185868 261.121076 
L 373.043214 261.617846 
L 372.243909 262.184738 
L 372.542111 261.786533 
L 373.28886 260.48166 
L 374.255764 258.333129 
L 375.648697 254.620307 
L 377.456921 249.883347 
L 378.979296 246.463735 
L 378.911076 246.703275 
L 378.82882 247.548685 
L 378.958185 248.480929 
L 379.296679 249.403576 
L 379.855849 250.314353 
L 380.651985 251.1819 
L 381.605209 251.902382 
L 382.749432 252.487187 
L 383.943865 252.845443 
L 384.023121 252.858171 
L 383.1567 252.818508 
L 380.745301 252.830125 
L 380.91727 252.896292 
L 376.482721 253.625746 
L 373.854172 254.268113 
L 371.188988 255.183036 
L 358.77532 259.711966 
L 346.345974 263.942375 
L 332.921556 268.434809 
L 328.818456 270.111797 
L 310.256348 278.052633 
L 302.817127 280.808515 
L 296.922623 282.77129 
L 291.647364 284.293286 
L 273.884142 289.185626 
L 266.632281 291.181355 
L 261.741649 292.298752 
L 256.768144 293.199833 
L 251.459611 293.937527 
L 246.991426 294.346897 
L 241.658431 294.589513 
L 230.845537 295.045622 
L 223.028481 295.487396 
L 219.398071 295.359393 
L 214.849789 294.971513 
L 209.615457 294.295319 
L 199.148481 292.652508 
L 194.239861 291.677401 
L 185.715263 289.678506 
L 180.06644 288.211692 
L 175.556966 286.784715 
L 168.433732 284.274126 
L 164.091599 282.518583 
L 159.988405 280.59806 
L 150.158376 275.649254 
L 147.126877 273.805688 
L 143.685271 271.439401 
L 138.792734 267.780574 
L 134.600645 264.373724 
L 130.669492 260.896459 
L 127.43726 257.75164 
L 124.770097 254.844603 
L 122.346142 251.875477 
L 119.906823 248.534609 
L 117.52754 244.903688 
L 115.30289 241.101335 
L 113.168373 236.996932 
L 110.839419 232.01193 
L 108.546447 226.601341 
L 106.782242 221.893024 
L 105.323034 217.365768 
L 103.960329 212.398435 
L 102.643067 206.732439 
L 101.084441 198.964461 
L 97.140705 178.886853 
L 95.213256 168.774043 
L 93.939755 160.931269 
L 92.692962 151.661989 
L 91.457353 143.027963 
L 88.855916 127.424938 
L 82.933769 95.11285 
L 80.932764 86.294199 
L 77.658477 72.939966 
L 75.11703 62.193906 
L 73.832727 56.226874 
L 73.832727 56.226874 
" style="fill:none;stroke:#000000;stroke-linecap:square;stroke-width:1.5;"/>
   </g>
   <g id="line2d_17">
    <path clip-path="url(#pba67807445)" d="M 379.106008 276.339323 
L 380.709403 276.015577 
L 382.620869 275.383467 
L 384.237713 274.608014 
L 385.875088 273.548791 
L 387.399446 272.249556 
L 388.763108 270.756004 
L 389.97779 269.088275 
L 391.183815 267.043495 
L 392.437226 264.438678 
L 393.804736 261.020533 
L 396.688056 253.555405 
L 398.056043 250.277537 
L 398.394719 248.759605 
L 398.487044 247.386851 
L 398.364894 246.00218 
L 398.020312 244.649572 
L 397.472488 243.385694 
L 396.670467 242.126496 
L 395.743452 241.061785 
L 394.490806 239.983689 
L 393.077413 239.078715 
L 391.409057 238.300953 
L 389.601737 237.721475 
L 387.553393 237.312899 
L 385.147484 237.074659 
L 382.148134 237.018784 
L 378.698549 237.169311 
L 373.560957 237.94849 
L 369.638238 238.749012 
L 366.471173 239.61883 
L 362.985926 240.821999 
L 350.230028 245.467211 
L 338.605317 249.413388 
L 325.182645 253.899407 
L 320.699788 255.683357 
L 314.247098 258.535645 
L 306.138113 262.057244 
L 299.524032 264.655054 
L 292.762668 267.081953 
L 287.744339 268.658355 
L 281.89076 270.229374 
L 272.915287 272.656624 
L 259.54463 276.398591 
L 255.373047 277.279957 
L 250.696538 278.035452 
L 246.326505 278.528021 
L 242.153455 278.756225 
L 228.121985 279.377972 
L 222.785532 279.681274 
L 219.638202 279.514344 
L 215.417054 279.065203 
L 208.893819 278.102705 
L 201.096523 276.790295 
L 195.991465 275.639601 
L 186.376935 273.241034 
L 182.114871 271.858147 
L 175.787243 269.586307 
L 172.396007 268.146269 
L 167.514582 265.768058 
L 161.056088 262.486949 
L 158.553271 260.896693 
L 154.964113 258.32357 
L 150.713972 255.033204 
L 146.886439 251.78159 
L 143.668697 248.770045 
L 141.25857 246.220866 
L 139.100558 243.607878 
L 136.90068 240.582128 
L 134.769447 237.278824 
L 132.783261 233.789483 
L 130.766178 229.769901 
L 128.449392 224.630248 
L 126.48008 219.748028 
L 125.0097 215.523714 
L 123.693246 211.042871 
L 122.427226 205.907305 
L 121.051002 199.3321 
L 114.295437 164.345214 
L 113.169849 157.019208 
L 110.178815 136.269566 
L 107.450598 120.529823 
L 105.020644 107.164858 
L 102.802329 94.79606 
L 101.119129 87.088077 
L 98.397183 75.727949 
L 94.473775 59.431318 
L 93.211939 53.568 
L 93.211939 53.568 
" style="fill:none;stroke:#0000ff;stroke-linecap:square;stroke-width:1.5;"/>
   </g>
   <g id="line2d_18">
    <path clip-path="url(#pba67807445)" d="M 378.52628 268.174353 
L 350.55499 253.96275 
L 285.90939 274.705607 
L 219.083261 284.376858 
L 156.199116 265.602205 
L 119.31781 220.851677 
L 106.016608 165.928384 
L 96.253401 110.226895 
L 84.137496 54.813035 
" style="fill:none;stroke:#008000;stroke-dasharray:5.55,2.4;stroke-dashoffset:0;stroke-width:1.5;"/>
   </g>
   <g id="patch_3">
    <path d="M 57.6 307.584 
L 57.6 41.472 
" style="fill:none;stroke:#000000;stroke-linecap:square;stroke-linejoin:miter;stroke-width:0.8;"/>
   </g>
   <g id="patch_4">
    <path d="M 414.72 307.584 
L 414.72 41.472 
" style="fill:none;stroke:#000000;stroke-linecap:square;stroke-linejoin:miter;stroke-width:0.8;"/>
   </g>
   <g id="patch_5">
    <path d="M 57.6 307.584 
L 414.72 307.584 
" style="fill:none;stroke:#000000;stroke-linecap:square;stroke-linejoin:miter;stroke-width:0.8;"/>
   </g>
   <g id="patch_6">
    <path d="M 57.6 41.472 
L 414.72 41.472 
" style="fill:none;stroke:#000000;stroke-linecap:square;stroke-linejoin:miter;stroke-width:0.8;"/>
   </g>
  </g>
 </g>
 <defs>
  <clipPath id="pba67807445">
   <rect height="266.112" width="357.12" x="57.6" y="41.472"/>
  </clipPath>
 </defs>
</svg>
