<?xml version="1.0" encoding="utf-8" standalone="no"?>
<!DOCTYPE svg PUBLIC "-//W3C//DTD SVG 1.1//EN"
  "http://www.w3.org/Graphics/SVG/1.1/DTD/svg11.dtd">
<!-- Created with matplotlib (https://matplotlib.org/) -->
<svg height="345.6pt" version="1.1" viewBox="0 0 460.8 345.6" width="460.8pt" xmlns="http://www.w3.org/2000/svg" xmlns:xlink="http://www.w3.org/1999/xlink">
 <defs>
  <style type="text/css">
*{stroke-linecap:butt;stroke-linejoin:round;}
  </style>
 </defs>
 <g id="figure_1">
  <g id="patch_1">
   <path d="M 0 345.6 
L 460.8 345.6 
L 460.8 0 
L 0 0 
z
" style="fill:#ffffff;"/>
  </g>
  <g id="axes_1">
   <g id="patch_2">
    <path d="M 57.6 307.584 
L 414.72 307.584 
L 414.72 41.472 
L 57.6 41.472 
z
" style="fill:#ffffff;"/>
   </g>
   <g id="matplotlib.axis_1">
    <g id="xtick_1">
     <g id="line2d_1">
      <defs>
       <path d="M 0 0 
L 0 3.5 
" id="m57b0db42c8" style="stroke:#000000;stroke-width:0.8;"/>
      </defs>
      <g>
       <use style="stroke:#000000;stroke-width:0.8;" x="73.84914" xlink:href="#m57b0db42c8" y="307.584"/>
      </g>
     </g>
     <g id="text_1">
      <!-- −6 -->
      <defs>
       <path d="M 10.59375 35.5 
L 73.1875 35.5 
L 73.1875 27.203125 
L 10.59375 27.203125 
z
" id="DejaVuSans-8722"/>
       <path d="M 33.015625 40.375 
Q 26.375 40.375 22.484375 35.828125 
Q 18.609375 31.296875 18.609375 23.390625 
Q 18.609375 15.53125 22.484375 10.953125 
Q 26.375 6.390625 33.015625 6.390625 
Q 39.65625 6.390625 43.53125 10.953125 
Q 47.40625 15.53125 47.40625 23.390625 
Q 47.40625 31.296875 43.53125 35.828125 
Q 39.65625 40.375 33.015625 40.375 
z
M 52.59375 71.296875 
L 52.59375 62.3125 
Q 48.875 64.0625 45.09375 64.984375 
Q 41.3125 65.921875 37.59375 65.921875 
Q 27.828125 65.921875 22.671875 59.328125 
Q 17.53125 52.734375 16.796875 39.40625 
Q 19.671875 43.65625 24.015625 45.921875 
Q 28.375 48.1875 33.59375 48.1875 
Q 44.578125 48.1875 50.953125 41.515625 
Q 57.328125 34.859375 57.328125 23.390625 
Q 57.328125 12.15625 50.6875 5.359375 
Q 44.046875 -1.421875 33.015625 -1.421875 
Q 20.359375 -1.421875 13.671875 8.265625 
Q 6.984375 17.96875 6.984375 36.375 
Q 6.984375 53.65625 15.1875 63.9375 
Q 23.390625 74.21875 37.203125 74.21875 
Q 40.921875 74.21875 44.703125 73.484375 
Q 48.484375 72.75 52.59375 71.296875 
z
" id="DejaVuSans-54"/>
      </defs>
      <g transform="translate(66.478046 322.182437)scale(0.1 -0.1)">
       <use xlink:href="#DejaVuSans-8722"/>
       <use x="83.789062" xlink:href="#DejaVuSans-54"/>
      </g>
     </g>
    </g>
    <g id="xtick_2">
     <g id="line2d_2">
      <g>
       <use style="stroke:#000000;stroke-width:0.8;" x="131.084763" xlink:href="#m57b0db42c8" y="307.584"/>
      </g>
     </g>
     <g id="text_2">
      <!-- −5 -->
      <defs>
       <path d="M 10.796875 72.90625 
L 49.515625 72.90625 
L 49.515625 64.59375 
L 19.828125 64.59375 
L 19.828125 46.734375 
Q 21.96875 47.46875 24.109375 47.828125 
Q 26.265625 48.1875 28.421875 48.1875 
Q 40.625 48.1875 47.75 41.5 
Q 54.890625 34.8125 54.890625 23.390625 
Q 54.890625 11.625 47.5625 5.09375 
Q 40.234375 -1.421875 26.90625 -1.421875 
Q 22.3125 -1.421875 17.546875 -0.640625 
Q 12.796875 0.140625 7.71875 1.703125 
L 7.71875 11.625 
Q 12.109375 9.234375 16.796875 8.0625 
Q 21.484375 6.890625 26.703125 6.890625 
Q 35.15625 6.890625 40.078125 11.328125 
Q 45.015625 15.765625 45.015625 23.390625 
Q 45.015625 31 40.078125 35.4375 
Q 35.15625 39.890625 26.703125 39.890625 
Q 22.75 39.890625 18.8125 39.015625 
Q 14.890625 38.140625 10.796875 36.28125 
z
" id="DejaVuSans-53"/>
      </defs>
      <g transform="translate(123.71367 322.182437)scale(0.1 -0.1)">
       <use xlink:href="#DejaVuSans-8722"/>
       <use x="83.789062" xlink:href="#DejaVuSans-53"/>
      </g>
     </g>
    </g>
    <g id="xtick_3">
     <g id="line2d_3">
      <g>
       <use style="stroke:#000000;stroke-width:0.8;" x="188.320387" xlink:href="#m57b0db42c8" y="307.584"/>
      </g>
     </g>
     <g id="text_3">
      <!-- −4 -->
      <defs>
       <path d="M 37.796875 64.3125 
L 12.890625 25.390625 
L 37.796875 25.390625 
z
M 35.203125 72.90625 
L 47.609375 72.90625 
L 47.609375 25.390625 
L 58.015625 25.390625 
L 58.015625 17.1875 
L 47.609375 17.1875 
L 47.609375 0 
L 37.796875 0 
L 37.796875 17.1875 
L 4.890625 17.1875 
L 4.890625 26.703125 
z
" id="DejaVuSans-52"/>
      </defs>
      <g transform="translate(180.949294 322.182437)scale(0.1 -0.1)">
       <use xlink:href="#DejaVuSans-8722"/>
       <use x="83.789062" xlink:href="#DejaVuSans-52"/>
      </g>
     </g>
    </g>
    <g id="xtick_4">
     <g id="line2d_4">
      <g>
       <use style="stroke:#000000;stroke-width:0.8;" x="245.556011" xlink:href="#m57b0db42c8" y="307.584"/>
      </g>
     </g>
     <g id="text_4">
      <!-- −3 -->
      <defs>
       <path d="M 40.578125 39.3125 
Q 47.65625 37.796875 51.625 33 
Q 55.609375 28.21875 55.609375 21.1875 
Q 55.609375 10.40625 48.1875 4.484375 
Q 40.765625 -1.421875 27.09375 -1.421875 
Q 22.515625 -1.421875 17.65625 -0.515625 
Q 12.796875 0.390625 7.625 2.203125 
L 7.625 11.71875 
Q 11.71875 9.328125 16.59375 8.109375 
Q 21.484375 6.890625 26.8125 6.890625 
Q 36.078125 6.890625 40.9375 10.546875 
Q 45.796875 14.203125 45.796875 21.1875 
Q 45.796875 27.640625 41.28125 31.265625 
Q 36.765625 34.90625 28.71875 34.90625 
L 20.21875 34.90625 
L 20.21875 43.015625 
L 29.109375 43.015625 
Q 36.375 43.015625 40.234375 45.921875 
Q 44.09375 48.828125 44.09375 54.296875 
Q 44.09375 59.90625 40.109375 62.90625 
Q 36.140625 65.921875 28.71875 65.921875 
Q 24.65625 65.921875 20.015625 65.03125 
Q 15.375 64.15625 9.8125 62.3125 
L 9.8125 71.09375 
Q 15.4375 72.65625 20.34375 73.4375 
Q 25.25 74.21875 29.59375 74.21875 
Q 40.828125 74.21875 47.359375 69.109375 
Q 53.90625 64.015625 53.90625 55.328125 
Q 53.90625 49.265625 50.4375 45.09375 
Q 46.96875 40.921875 40.578125 39.3125 
z
" id="DejaVuSans-51"/>
      </defs>
      <g transform="translate(238.184917 322.182437)scale(0.1 -0.1)">
       <use xlink:href="#DejaVuSans-8722"/>
       <use x="83.789062" xlink:href="#DejaVuSans-51"/>
      </g>
     </g>
    </g>
    <g id="xtick_5">
     <g id="line2d_5">
      <g>
       <use style="stroke:#000000;stroke-width:0.8;" x="302.791635" xlink:href="#m57b0db42c8" y="307.584"/>
      </g>
     </g>
     <g id="text_5">
      <!-- −2 -->
      <defs>
       <path d="M 19.1875 8.296875 
L 53.609375 8.296875 
L 53.609375 0 
L 7.328125 0 
L 7.328125 8.296875 
Q 12.9375 14.109375 22.625 23.890625 
Q 32.328125 33.6875 34.8125 36.53125 
Q 39.546875 41.84375 41.421875 45.53125 
Q 43.3125 49.21875 43.3125 52.78125 
Q 43.3125 58.59375 39.234375 62.25 
Q 35.15625 65.921875 28.609375 65.921875 
Q 23.96875 65.921875 18.8125 64.3125 
Q 13.671875 62.703125 7.8125 59.421875 
L 7.8125 69.390625 
Q 13.765625 71.78125 18.9375 73 
Q 24.125 74.21875 28.421875 74.21875 
Q 39.75 74.21875 46.484375 68.546875 
Q 53.21875 62.890625 53.21875 53.421875 
Q 53.21875 48.921875 51.53125 44.890625 
Q 49.859375 40.875 45.40625 35.40625 
Q 44.1875 33.984375 37.640625 27.21875 
Q 31.109375 20.453125 19.1875 8.296875 
z
" id="DejaVuSans-50"/>
      </defs>
      <g transform="translate(295.420541 322.182437)scale(0.1 -0.1)">
       <use xlink:href="#DejaVuSans-8722"/>
       <use x="83.789062" xlink:href="#DejaVuSans-50"/>
      </g>
     </g>
    </g>
    <g id="xtick_6">
     <g id="line2d_6">
      <g>
       <use style="stroke:#000000;stroke-width:0.8;" x="360.027259" xlink:href="#m57b0db42c8" y="307.584"/>
      </g>
     </g>
     <g id="text_6">
      <!-- −1 -->
      <defs>
       <path d="M 12.40625 8.296875 
L 28.515625 8.296875 
L 28.515625 63.921875 
L 10.984375 60.40625 
L 10.984375 69.390625 
L 28.421875 72.90625 
L 38.28125 72.90625 
L 38.28125 8.296875 
L 54.390625 8.296875 
L 54.390625 0 
L 12.40625 0 
z
" id="DejaVuSans-49"/>
      </defs>
      <g transform="translate(352.656165 322.182437)scale(0.1 -0.1)">
       <use xlink:href="#DejaVuSans-8722"/>
       <use x="83.789062" xlink:href="#DejaVuSans-49"/>
      </g>
     </g>
    </g>
   </g>
   <g id="matplotlib.axis_2">
    <g id="ytick_1">
     <g id="line2d_7">
      <defs>
       <path d="M 0 0 
L -3.5 0 
" id="mf235040e14" style="stroke:#000000;stroke-width:0.8;"/>
      </defs>
      <g>
       <use style="stroke:#000000;stroke-width:0.8;" x="57.6" xlink:href="#mf235040e14" y="299.550383"/>
      </g>
     </g>
     <g id="text_7">
      <!-- 1.0 -->
      <defs>
       <path d="M 10.6875 12.40625 
L 21 12.40625 
L 21 0 
L 10.6875 0 
z
" id="DejaVuSans-46"/>
       <path d="M 31.78125 66.40625 
Q 24.171875 66.40625 20.328125 58.90625 
Q 16.5 51.421875 16.5 36.375 
Q 16.5 21.390625 20.328125 13.890625 
Q 24.171875 6.390625 31.78125 6.390625 
Q 39.453125 6.390625 43.28125 13.890625 
Q 47.125 21.390625 47.125 36.375 
Q 47.125 51.421875 43.28125 58.90625 
Q 39.453125 66.40625 31.78125 66.40625 
z
M 31.78125 74.21875 
Q 44.046875 74.21875 50.515625 64.515625 
Q 56.984375 54.828125 56.984375 36.375 
Q 56.984375 17.96875 50.515625 8.265625 
Q 44.046875 -1.421875 31.78125 -1.421875 
Q 19.53125 -1.421875 13.0625 8.265625 
Q 6.59375 17.96875 6.59375 36.375 
Q 6.59375 54.828125 13.0625 64.515625 
Q 19.53125 74.21875 31.78125 74.21875 
z
" id="DejaVuSans-48"/>
      </defs>
      <g transform="translate(34.696875 303.349602)scale(0.1 -0.1)">
       <use xlink:href="#DejaVuSans-49"/>
       <use x="63.623047" xlink:href="#DejaVuSans-46"/>
       <use x="95.410156" xlink:href="#DejaVuSans-48"/>
      </g>
     </g>
    </g>
    <g id="ytick_2">
     <g id="line2d_8">
      <g>
       <use style="stroke:#000000;stroke-width:0.8;" x="57.6" xlink:href="#mf235040e14" y="253.957702"/>
      </g>
     </g>
     <g id="text_8">
      <!-- 1.5 -->
      <g transform="translate(34.696875 257.756921)scale(0.1 -0.1)">
       <use xlink:href="#DejaVuSans-49"/>
       <use x="63.623047" xlink:href="#DejaVuSans-46"/>
       <use x="95.410156" xlink:href="#DejaVuSans-53"/>
      </g>
     </g>
    </g>
    <g id="ytick_3">
     <g id="line2d_9">
      <g>
       <use style="stroke:#000000;stroke-width:0.8;" x="57.6" xlink:href="#mf235040e14" y="208.365021"/>
      </g>
     </g>
     <g id="text_9">
      <!-- 2.0 -->
      <g transform="translate(34.696875 212.16424)scale(0.1 -0.1)">
       <use xlink:href="#DejaVuSans-50"/>
       <use x="63.623047" xlink:href="#DejaVuSans-46"/>
       <use x="95.410156" xlink:href="#DejaVuSans-48"/>
      </g>
     </g>
    </g>
    <g id="ytick_4">
     <g id="line2d_10">
      <g>
       <use style="stroke:#000000;stroke-width:0.8;" x="57.6" xlink:href="#mf235040e14" y="162.77234"/>
      </g>
     </g>
     <g id="text_10">
      <!-- 2.5 -->
      <g transform="translate(34.696875 166.571558)scale(0.1 -0.1)">
       <use xlink:href="#DejaVuSans-50"/>
       <use x="63.623047" xlink:href="#DejaVuSans-46"/>
       <use x="95.410156" xlink:href="#DejaVuSans-53"/>
      </g>
     </g>
    </g>
    <g id="ytick_5">
     <g id="line2d_11">
      <g>
       <use style="stroke:#000000;stroke-width:0.8;" x="57.6" xlink:href="#mf235040e14" y="117.179659"/>
      </g>
     </g>
     <g id="text_11">
      <!-- 3.0 -->
      <g transform="translate(34.696875 120.978877)scale(0.1 -0.1)">
       <use xlink:href="#DejaVuSans-51"/>
       <use x="63.623047" xlink:href="#DejaVuSans-46"/>
       <use x="95.410156" xlink:href="#DejaVuSans-48"/>
      </g>
     </g>
    </g>
    <g id="ytick_6">
     <g id="line2d_12">
      <g>
       <use style="stroke:#000000;stroke-width:0.8;" x="57.6" xlink:href="#mf235040e14" y="71.586977"/>
      </g>
     </g>
     <g id="text_12">
      <!-- 3.5 -->
      <g transform="translate(34.696875 75.386196)scale(0.1 -0.1)">
       <use xlink:href="#DejaVuSans-51"/>
       <use x="63.623047" xlink:href="#DejaVuSans-46"/>
       <use x="95.410156" xlink:href="#DejaVuSans-53"/>
      </g>
     </g>
    </g>
   </g>
   <g id="line2d_13">
    <path clip-path="url(#pc7b8464624)" d="M 381.081301 218.363769 
L 381.406792 218.142382 
L 381.717149 217.583661 
L 381.976007 216.560208 
L 382.159789 214.719058 
L 382.18355 211.783933 
L 381.973276 207.547913 
L 381.443834 201.561038 
L 380.471208 193.177987 
L 378.914615 181.740769 
L 377.708963 174.354508 
L 376.685463 169.373716 
L 375.673444 165.530535 
L 374.675293 162.596605 
L 373.633084 160.226782 
L 372.567056 158.332209 
L 371.415611 156.722084 
L 370.188061 155.386502 
L 368.893719 154.315561 
L 367.541895 153.499357 
L 366.141904 152.927988 
L 364.703056 152.591549 
L 363.233132 152.480122 
L 361.732542 152.583703 
L 360.080162 152.924205 
L 358.265417 153.53861 
L 356.276087 154.461577 
L 354.098119 155.724418 
L 351.580814 157.452735 
L 348.702083 159.707957 
L 345.31998 162.649844 
L 341.301829 166.450068 
L 336.261112 171.537778 
L 329.376726 178.824833 
L 305.515021 204.637643 
L 282.236463 230.25757 
L 278.295523 234.11139 
L 274.678239 237.331618 
L 270.475706 240.764002 
L 259.683639 249.119754 
L 249.117068 257.181045 
L 244.920668 260.086422 
L 241.472806 262.208832 
L 238.41337 263.83967 
L 235.316407 265.241612 
L 232.043846 266.476935 
L 228.770451 267.481176 
L 225.362896 268.29802 
L 221.846236 268.910041 
L 218.221821 269.312296 
L 214.325189 269.51434 
L 209.985912 269.504334 
L 205.342054 269.26934 
L 201.378753 268.857759 
L 197.870328 268.27448 
L 194.977704 267.578804 
L 192.30805 266.70592 
L 189.632187 265.589362 
L 186.877666 264.189731 
L 183.813993 262.373884 
L 180.490741 260.14882 
L 177.201352 257.669663 
L 173.460015 254.559723 
L 169.326432 250.829603 
L 165.005808 246.628772 
L 161.373588 242.799909 
L 158.259493 239.196368 
L 155.42489 235.565639 
L 152.405214 231.316467 
L 148.997616 226.117157 
L 145.086049 219.737981 
L 141.278169 213.111512 
L 137.838768 206.698242 
L 134.96461 200.881401 
L 132.42265 195.246038 
L 129.758677 188.766654 
L 126.635572 180.559114 
L 122.710584 169.599898 
L 118.697879 157.717107 
L 112.828565 140.310499 
L 103.697493 114.216341 
L 98.954793 98.864264 
L 93.159044 79.755735 
L 89.210569 65.724817 
L 88.740682 64.024834 
L 88.740682 64.024834 
" style="fill:none;stroke:#ff0000;stroke-linecap:square;stroke-width:1.5;"/>
   </g>
   <g id="line2d_14">
    <path clip-path="url(#pc7b8464624)" d="M 378.126967 192.843407 
L 376.796228 193.332072 
L 375.480472 194.015934 
L 374.212957 194.880514 
L 373.02303 195.898231 
L 371.933057 197.032222 
L 370.956855 198.241462 
L 369.359919 200.729522 
L 368.200721 203.10759 
L 367.394542 205.230068 
L 366.650453 207.831901 
L 366.106479 210.73976 
L 365.909614 213.022139 
L 365.874495 211.909162 
L 365.557359 207.673687 
L 364.775358 200.499955 
L 363.371723 189.848138 
L 362.19001 182.276384 
L 361.321203 178.010452 
L 360.811458 176.219966 
L 361.130196 176.810256 
L 361.769924 177.602097 
L 362.5004 178.171529 
L 363.16784 178.426586 
L 363.217626 178.430873 
L 362.853143 178.496342 
L 361.836152 178.880626 
L 360.354005 179.690649 
L 358.410564 181.012208 
L 355.870476 183.020465 
L 352.647287 185.873194 
L 348.639414 189.73569 
L 343.360273 195.15032 
L 335.19628 203.884056 
L 311.800945 229.291806 
L 293.24067 249.812674 
L 288.609059 254.518327 
L 284.788888 258.093423 
L 280.749964 261.565608 
L 275.874732 265.447328 
L 255.714832 280.909147 
L 251.278232 283.980543 
L 247.54818 286.301979 
L 244.168239 288.15885 
L 240.74893 289.786771 
L 237.151363 291.247526 
L 233.577475 292.461709 
L 229.853547 293.491655 
L 225.999295 294.317962 
L 222.221738 294.901822 
L 218.179553 295.29497 
L 214.064134 295.472932 
L 209.54968 295.447 
L 204.725198 295.202713 
L 200.353462 294.761851 
L 196.485953 294.149624 
L 193.132905 293.401467 
L 190.014451 292.475728 
L 186.951801 291.327391 
L 183.857873 289.92102 
L 180.704264 288.238266 
L 177.203364 286.112038 
L 173.646836 283.699993 
L 170.035824 280.975166 
L 166.070029 277.695836 
L 161.779888 273.861108 
L 157.240647 269.504751 
L 153.214415 265.348368 
L 149.731945 261.443116 
L 146.564383 257.559403 
L 143.432086 253.359016 
L 140.067081 248.465775 
L 136.290709 242.572155 
L 132.219537 235.817508 
L 128.26883 228.839651 
L 124.72302 222.13753 
L 121.692067 215.938691 
L 118.904217 209.725231 
L 116.047498 202.778272 
L 112.796563 194.260524 
L 108.775565 183.075541 
L 104.74279 171.191552 
L 98.375771 152.312756 
L 89.752755 127.781245 
L 86.053308 115.888974 
L 77.509498 87.640173 
L 73.832727 74.481668 
L 73.832727 74.481668 
" style="fill:none;stroke:#000000;stroke-linecap:square;stroke-width:1.5;"/>
   </g>
   <g id="line2d_15">
    <path clip-path="url(#pc7b8464624)" d="M 384.035635 243.884131 
L 385.506658 243.344018 
L 386.957599 242.589917 
L 388.355256 241.636545 
L 389.670336 240.51172 
L 390.880527 239.252542 
L 391.972067 237.900276 
L 393.785253 235.073593 
L 395.141829 232.288394 
L 396.126948 229.692179 
L 397.105822 226.259013 
L 397.696918 223.353262 
L 398.139862 220.122346 
L 398.424506 216.181882 
L 398.47956 211.827115 
L 398.307439 206.985273 
L 397.867727 200.995174 
L 397.075839 193.31322 
L 395.738415 182.69131 
L 394.203247 172.103926 
L 393.008962 165.300448 
L 391.793089 159.651433 
L 390.578013 155.043944 
L 389.326572 151.11569 
L 387.963516 147.539822 
L 386.540767 144.394796 
L 384.964081 141.437351 
L 383.244237 138.700642 
L 381.396341 136.213444 
L 379.662186 134.231665 
L 377.858609 132.478364 
L 376.002807 130.960492 
L 374.111941 129.679541 
L 372.202163 128.631931 
L 370.287871 127.809856 
L 368.143993 127.140884 
L 366.023559 126.724905 
L 363.935592 126.541984 
L 361.89092 126.571953 
L 359.68183 126.828016 
L 357.336358 127.344258 
L 355.081296 128.067839 
L 352.719587 129.052741 
L 350.265142 130.307914 
L 347.546381 131.952414 
L 344.579199 134.020135 
L 341.363737 136.538279 
L 337.737731 139.666775 
L 333.564694 143.570305 
L 328.447188 148.683581 
L 321.877415 155.584918 
L 300.70959 178.389162 
L 290.354588 189.858822 
L 275.978306 205.774121 
L 271.715131 210.140003 
L 268.357458 213.26681 
L 264.735839 216.321332 
L 259.391143 220.494841 
L 240.600737 234.819623 
L 237.147112 237.085154 
L 234.313622 238.688233 
L 231.575117 239.975524 
L 228.756715 241.059066 
L 225.767124 241.971351 
L 222.642179 242.687659 
L 219.526432 243.177687 
L 216.127722 243.482993 
L 212.383382 243.586476 
L 208.105444 243.474389 
L 204.08582 243.160448 
L 200.674517 242.674763 
L 198.000235 242.076454 
L 195.772608 241.344607 
L 193.587259 240.387882 
L 191.190949 239.087019 
L 188.200321 237.194988 
L 185.347981 235.131653 
L 182.07697 232.478364 
L 178.320265 229.145534 
L 174.232953 225.219435 
L 170.806092 221.640273 
L 168.004105 218.398919 
L 165.567028 215.241518 
L 162.841674 211.342031 
L 159.516436 206.176537 
L 155.75266 199.918271 
L 152.159341 193.509803 
L 149.180237 187.760229 
L 146.696765 182.486058 
L 144.403141 177.088679 
L 141.648811 170.016268 
L 137.984682 159.950667 
L 134.229637 148.999004 
L 126.257405 125.432818 
L 118.983716 104.850921 
L 115.68631 94.286639 
L 106.957774 65.428055 
L 103.648637 53.568 
L 103.648637 53.568 
" style="fill:none;stroke:#0000ff;stroke-linecap:square;stroke-width:1.5;"/>
   </g>
   <g id="patch_3">
    <path d="M 57.6 307.584 
L 57.6 41.472 
" style="fill:none;stroke:#000000;stroke-linecap:square;stroke-linejoin:miter;stroke-width:0.8;"/>
   </g>
   <g id="patch_4">
    <path d="M 414.72 307.584 
L 414.72 41.472 
" style="fill:none;stroke:#000000;stroke-linecap:square;stroke-linejoin:miter;stroke-width:0.8;"/>
   </g>
   <g id="patch_5">
    <path d="M 57.6 307.584 
L 414.72 307.584 
" style="fill:none;stroke:#000000;stroke-linecap:square;stroke-linejoin:miter;stroke-width:0.8;"/>
   </g>
   <g id="patch_6">
    <path d="M 57.6 41.472 
L 414.72 41.472 
" style="fill:none;stroke:#000000;stroke-linecap:square;stroke-linejoin:miter;stroke-width:0.8;"/>
   </g>
  </g>
 </g>
 <defs>
  <clipPath id="pc7b8464624">
   <rect height="266.112" width="357.12" x="57.6" y="41.472"/>
  </clipPath>
 </defs>
</svg>
