<?xml version="1.0" encoding="utf-8" standalone="no"?>
<!DOCTYPE svg PUBLIC "-//W3C//DTD SVG 1.1//EN"
  "http://www.w3.org/Graphics/SVG/1.1/DTD/svg11.dtd">
<!-- Created with matplotlib (https://matplotlib.org/) -->
<svg height="345.6pt" version="1.1" viewBox="0 0 460.8 345.6" width="460.8pt" xmlns="http://www.w3.org/2000/svg" xmlns:xlink="http://www.w3.org/1999/xlink">
 <defs>
  <style type="text/css">
*{stroke-linecap:butt;stroke-linejoin:round;}
  </style>
 </defs>
 <g id="figure_1">
  <g id="patch_1">
   <path d="M 0 345.6 
L 460.8 345.6 
L 460.8 0 
L 0 0 
z
" style="fill:#ffffff;"/>
  </g>
  <g id="axes_1">
   <g id="patch_2">
    <path d="M 57.6 307.584 
L 414.72 307.584 
L 414.72 41.472 
L 57.6 41.472 
z
" style="fill:#ffffff;"/>
   </g>
   <g id="matplotlib.axis_1">
    <g id="xtick_1">
     <g id="line2d_1">
      <defs>
       <path d="M 0 0 
L 0 3.5 
" id="m583d6b57d8" style="stroke:#000000;stroke-width:0.8;"/>
      </defs>
      <g>
       <use style="stroke:#000000;stroke-width:0.8;" x="72.051454" xlink:href="#m583d6b57d8" y="307.584"/>
      </g>
     </g>
     <g id="text_1">
      <!-- −10 -->
      <defs>
       <path d="M 10.59375 35.5 
L 73.1875 35.5 
L 73.1875 27.203125 
L 10.59375 27.203125 
z
" id="DejaVuSans-8722"/>
       <path d="M 12.40625 8.296875 
L 28.515625 8.296875 
L 28.515625 63.921875 
L 10.984375 60.40625 
L 10.984375 69.390625 
L 28.421875 72.90625 
L 38.28125 72.90625 
L 38.28125 8.296875 
L 54.390625 8.296875 
L 54.390625 0 
L 12.40625 0 
z
" id="DejaVuSans-49"/>
       <path d="M 31.78125 66.40625 
Q 24.171875 66.40625 20.328125 58.90625 
Q 16.5 51.421875 16.5 36.375 
Q 16.5 21.390625 20.328125 13.890625 
Q 24.171875 6.390625 31.78125 6.390625 
Q 39.453125 6.390625 43.28125 13.890625 
Q 47.125 21.390625 47.125 36.375 
Q 47.125 51.421875 43.28125 58.90625 
Q 39.453125 66.40625 31.78125 66.40625 
z
M 31.78125 74.21875 
Q 44.046875 74.21875 50.515625 64.515625 
Q 56.984375 54.828125 56.984375 36.375 
Q 56.984375 17.96875 50.515625 8.265625 
Q 44.046875 -1.421875 31.78125 -1.421875 
Q 19.53125 -1.421875 13.0625 8.265625 
Q 6.59375 17.96875 6.59375 36.375 
Q 6.59375 54.828125 13.0625 64.515625 
Q 19.53125 74.21875 31.78125 74.21875 
z
" id="DejaVuSans-48"/>
      </defs>
      <g transform="translate(61.49911 322.182437)scale(0.1 -0.1)">
       <use xlink:href="#DejaVuSans-8722"/>
       <use x="83.789062" xlink:href="#DejaVuSans-49"/>
       <use x="147.412109" xlink:href="#DejaVuSans-48"/>
      </g>
     </g>
    </g>
    <g id="xtick_2">
     <g id="line2d_2">
      <g>
       <use style="stroke:#000000;stroke-width:0.8;" x="115.008166" xlink:href="#m583d6b57d8" y="307.584"/>
      </g>
     </g>
     <g id="text_2">
      <!-- 0 -->
      <g transform="translate(111.826916 322.182437)scale(0.1 -0.1)">
       <use xlink:href="#DejaVuSans-48"/>
      </g>
     </g>
    </g>
    <g id="xtick_3">
     <g id="line2d_3">
      <g>
       <use style="stroke:#000000;stroke-width:0.8;" x="157.964879" xlink:href="#m583d6b57d8" y="307.584"/>
      </g>
     </g>
     <g id="text_3">
      <!-- 10 -->
      <g transform="translate(151.602379 322.182437)scale(0.1 -0.1)">
       <use xlink:href="#DejaVuSans-49"/>
       <use x="63.623047" xlink:href="#DejaVuSans-48"/>
      </g>
     </g>
    </g>
    <g id="xtick_4">
     <g id="line2d_4">
      <g>
       <use style="stroke:#000000;stroke-width:0.8;" x="200.921592" xlink:href="#m583d6b57d8" y="307.584"/>
      </g>
     </g>
     <g id="text_4">
      <!-- 20 -->
      <defs>
       <path d="M 19.1875 8.296875 
L 53.609375 8.296875 
L 53.609375 0 
L 7.328125 0 
L 7.328125 8.296875 
Q 12.9375 14.109375 22.625 23.890625 
Q 32.328125 33.6875 34.8125 36.53125 
Q 39.546875 41.84375 41.421875 45.53125 
Q 43.3125 49.21875 43.3125 52.78125 
Q 43.3125 58.59375 39.234375 62.25 
Q 35.15625 65.921875 28.609375 65.921875 
Q 23.96875 65.921875 18.8125 64.3125 
Q 13.671875 62.703125 7.8125 59.421875 
L 7.8125 69.390625 
Q 13.765625 71.78125 18.9375 73 
Q 24.125 74.21875 28.421875 74.21875 
Q 39.75 74.21875 46.484375 68.546875 
Q 53.21875 62.890625 53.21875 53.421875 
Q 53.21875 48.921875 51.53125 44.890625 
Q 49.859375 40.875 45.40625 35.40625 
Q 44.1875 33.984375 37.640625 27.21875 
Q 31.109375 20.453125 19.1875 8.296875 
z
" id="DejaVuSans-50"/>
      </defs>
      <g transform="translate(194.559092 322.182437)scale(0.1 -0.1)">
       <use xlink:href="#DejaVuSans-50"/>
       <use x="63.623047" xlink:href="#DejaVuSans-48"/>
      </g>
     </g>
    </g>
    <g id="xtick_5">
     <g id="line2d_5">
      <g>
       <use style="stroke:#000000;stroke-width:0.8;" x="243.878305" xlink:href="#m583d6b57d8" y="307.584"/>
      </g>
     </g>
     <g id="text_5">
      <!-- 30 -->
      <defs>
       <path d="M 40.578125 39.3125 
Q 47.65625 37.796875 51.625 33 
Q 55.609375 28.21875 55.609375 21.1875 
Q 55.609375 10.40625 48.1875 4.484375 
Q 40.765625 -1.421875 27.09375 -1.421875 
Q 22.515625 -1.421875 17.65625 -0.515625 
Q 12.796875 0.390625 7.625 2.203125 
L 7.625 11.71875 
Q 11.71875 9.328125 16.59375 8.109375 
Q 21.484375 6.890625 26.8125 6.890625 
Q 36.078125 6.890625 40.9375 10.546875 
Q 45.796875 14.203125 45.796875 21.1875 
Q 45.796875 27.640625 41.28125 31.265625 
Q 36.765625 34.90625 28.71875 34.90625 
L 20.21875 34.90625 
L 20.21875 43.015625 
L 29.109375 43.015625 
Q 36.375 43.015625 40.234375 45.921875 
Q 44.09375 48.828125 44.09375 54.296875 
Q 44.09375 59.90625 40.109375 62.90625 
Q 36.140625 65.921875 28.71875 65.921875 
Q 24.65625 65.921875 20.015625 65.03125 
Q 15.375 64.15625 9.8125 62.3125 
L 9.8125 71.09375 
Q 15.4375 72.65625 20.34375 73.4375 
Q 25.25 74.21875 29.59375 74.21875 
Q 40.828125 74.21875 47.359375 69.109375 
Q 53.90625 64.015625 53.90625 55.328125 
Q 53.90625 49.265625 50.4375 45.09375 
Q 46.96875 40.921875 40.578125 39.3125 
z
" id="DejaVuSans-51"/>
      </defs>
      <g transform="translate(237.515805 322.182437)scale(0.1 -0.1)">
       <use xlink:href="#DejaVuSans-51"/>
       <use x="63.623047" xlink:href="#DejaVuSans-48"/>
      </g>
     </g>
    </g>
    <g id="xtick_6">
     <g id="line2d_6">
      <g>
       <use style="stroke:#000000;stroke-width:0.8;" x="286.835018" xlink:href="#m583d6b57d8" y="307.584"/>
      </g>
     </g>
     <g id="text_6">
      <!-- 40 -->
      <defs>
       <path d="M 37.796875 64.3125 
L 12.890625 25.390625 
L 37.796875 25.390625 
z
M 35.203125 72.90625 
L 47.609375 72.90625 
L 47.609375 25.390625 
L 58.015625 25.390625 
L 58.015625 17.1875 
L 47.609375 17.1875 
L 47.609375 0 
L 37.796875 0 
L 37.796875 17.1875 
L 4.890625 17.1875 
L 4.890625 26.703125 
z
" id="DejaVuSans-52"/>
      </defs>
      <g transform="translate(280.472518 322.182437)scale(0.1 -0.1)">
       <use xlink:href="#DejaVuSans-52"/>
       <use x="63.623047" xlink:href="#DejaVuSans-48"/>
      </g>
     </g>
    </g>
    <g id="xtick_7">
     <g id="line2d_7">
      <g>
       <use style="stroke:#000000;stroke-width:0.8;" x="329.791731" xlink:href="#m583d6b57d8" y="307.584"/>
      </g>
     </g>
     <g id="text_7">
      <!-- 50 -->
      <defs>
       <path d="M 10.796875 72.90625 
L 49.515625 72.90625 
L 49.515625 64.59375 
L 19.828125 64.59375 
L 19.828125 46.734375 
Q 21.96875 47.46875 24.109375 47.828125 
Q 26.265625 48.1875 28.421875 48.1875 
Q 40.625 48.1875 47.75 41.5 
Q 54.890625 34.8125 54.890625 23.390625 
Q 54.890625 11.625 47.5625 5.09375 
Q 40.234375 -1.421875 26.90625 -1.421875 
Q 22.3125 -1.421875 17.546875 -0.640625 
Q 12.796875 0.140625 7.71875 1.703125 
L 7.71875 11.625 
Q 12.109375 9.234375 16.796875 8.0625 
Q 21.484375 6.890625 26.703125 6.890625 
Q 35.15625 6.890625 40.078125 11.328125 
Q 45.015625 15.765625 45.015625 23.390625 
Q 45.015625 31 40.078125 35.4375 
Q 35.15625 39.890625 26.703125 39.890625 
Q 22.75 39.890625 18.8125 39.015625 
Q 14.890625 38.140625 10.796875 36.28125 
z
" id="DejaVuSans-53"/>
      </defs>
      <g transform="translate(323.429231 322.182437)scale(0.1 -0.1)">
       <use xlink:href="#DejaVuSans-53"/>
       <use x="63.623047" xlink:href="#DejaVuSans-48"/>
      </g>
     </g>
    </g>
    <g id="xtick_8">
     <g id="line2d_8">
      <g>
       <use style="stroke:#000000;stroke-width:0.8;" x="372.748444" xlink:href="#m583d6b57d8" y="307.584"/>
      </g>
     </g>
     <g id="text_8">
      <!-- 60 -->
      <defs>
       <path d="M 33.015625 40.375 
Q 26.375 40.375 22.484375 35.828125 
Q 18.609375 31.296875 18.609375 23.390625 
Q 18.609375 15.53125 22.484375 10.953125 
Q 26.375 6.390625 33.015625 6.390625 
Q 39.65625 6.390625 43.53125 10.953125 
Q 47.40625 15.53125 47.40625 23.390625 
Q 47.40625 31.296875 43.53125 35.828125 
Q 39.65625 40.375 33.015625 40.375 
z
M 52.59375 71.296875 
L 52.59375 62.3125 
Q 48.875 64.0625 45.09375 64.984375 
Q 41.3125 65.921875 37.59375 65.921875 
Q 27.828125 65.921875 22.671875 59.328125 
Q 17.53125 52.734375 16.796875 39.40625 
Q 19.671875 43.65625 24.015625 45.921875 
Q 28.375 48.1875 33.59375 48.1875 
Q 44.578125 48.1875 50.953125 41.515625 
Q 57.328125 34.859375 57.328125 23.390625 
Q 57.328125 12.15625 50.6875 5.359375 
Q 44.046875 -1.421875 33.015625 -1.421875 
Q 20.359375 -1.421875 13.671875 8.265625 
Q 6.984375 17.96875 6.984375 36.375 
Q 6.984375 53.65625 15.1875 63.9375 
Q 23.390625 74.21875 37.203125 74.21875 
Q 40.921875 74.21875 44.703125 73.484375 
Q 48.484375 72.75 52.59375 71.296875 
z
" id="DejaVuSans-54"/>
      </defs>
      <g transform="translate(366.385944 322.182437)scale(0.1 -0.1)">
       <use xlink:href="#DejaVuSans-54"/>
       <use x="63.623047" xlink:href="#DejaVuSans-48"/>
      </g>
     </g>
    </g>
   </g>
   <g id="matplotlib.axis_2">
    <g id="ytick_1">
     <g id="line2d_9">
      <defs>
       <path d="M 0 0 
L -3.5 0 
" id="m44d51ca734" style="stroke:#000000;stroke-width:0.8;"/>
      </defs>
      <g>
       <use style="stroke:#000000;stroke-width:0.8;" x="57.6" xlink:href="#m44d51ca734" y="281.772134"/>
      </g>
     </g>
     <g id="text_9">
      <!-- −60 -->
      <g transform="translate(29.495313 285.571353)scale(0.1 -0.1)">
       <use xlink:href="#DejaVuSans-8722"/>
       <use x="83.789062" xlink:href="#DejaVuSans-54"/>
       <use x="147.412109" xlink:href="#DejaVuSans-48"/>
      </g>
     </g>
    </g>
    <g id="ytick_2">
     <g id="line2d_10">
      <g>
       <use style="stroke:#000000;stroke-width:0.8;" x="57.6" xlink:href="#m44d51ca734" y="249.93828"/>
      </g>
     </g>
     <g id="text_10">
      <!-- −50 -->
      <g transform="translate(29.495313 253.737498)scale(0.1 -0.1)">
       <use xlink:href="#DejaVuSans-8722"/>
       <use x="83.789062" xlink:href="#DejaVuSans-53"/>
       <use x="147.412109" xlink:href="#DejaVuSans-48"/>
      </g>
     </g>
    </g>
    <g id="ytick_3">
     <g id="line2d_11">
      <g>
       <use style="stroke:#000000;stroke-width:0.8;" x="57.6" xlink:href="#m44d51ca734" y="218.104425"/>
      </g>
     </g>
     <g id="text_11">
      <!-- −40 -->
      <g transform="translate(29.495313 221.903644)scale(0.1 -0.1)">
       <use xlink:href="#DejaVuSans-8722"/>
       <use x="83.789062" xlink:href="#DejaVuSans-52"/>
       <use x="147.412109" xlink:href="#DejaVuSans-48"/>
      </g>
     </g>
    </g>
    <g id="ytick_4">
     <g id="line2d_12">
      <g>
       <use style="stroke:#000000;stroke-width:0.8;" x="57.6" xlink:href="#m44d51ca734" y="186.270571"/>
      </g>
     </g>
     <g id="text_12">
      <!-- −30 -->
      <g transform="translate(29.495313 190.06979)scale(0.1 -0.1)">
       <use xlink:href="#DejaVuSans-8722"/>
       <use x="83.789062" xlink:href="#DejaVuSans-51"/>
       <use x="147.412109" xlink:href="#DejaVuSans-48"/>
      </g>
     </g>
    </g>
    <g id="ytick_5">
     <g id="line2d_13">
      <g>
       <use style="stroke:#000000;stroke-width:0.8;" x="57.6" xlink:href="#m44d51ca734" y="154.436717"/>
      </g>
     </g>
     <g id="text_13">
      <!-- −20 -->
      <g transform="translate(29.495313 158.235936)scale(0.1 -0.1)">
       <use xlink:href="#DejaVuSans-8722"/>
       <use x="83.789062" xlink:href="#DejaVuSans-50"/>
       <use x="147.412109" xlink:href="#DejaVuSans-48"/>
      </g>
     </g>
    </g>
    <g id="ytick_6">
     <g id="line2d_14">
      <g>
       <use style="stroke:#000000;stroke-width:0.8;" x="57.6" xlink:href="#m44d51ca734" y="122.602863"/>
      </g>
     </g>
     <g id="text_14">
      <!-- −10 -->
      <g transform="translate(29.495313 126.402081)scale(0.1 -0.1)">
       <use xlink:href="#DejaVuSans-8722"/>
       <use x="83.789062" xlink:href="#DejaVuSans-49"/>
       <use x="147.412109" xlink:href="#DejaVuSans-48"/>
      </g>
     </g>
    </g>
    <g id="ytick_7">
     <g id="line2d_15">
      <g>
       <use style="stroke:#000000;stroke-width:0.8;" x="57.6" xlink:href="#m44d51ca734" y="90.769008"/>
      </g>
     </g>
     <g id="text_15">
      <!-- 0 -->
      <g transform="translate(44.2375 94.568227)scale(0.1 -0.1)">
       <use xlink:href="#DejaVuSans-48"/>
      </g>
     </g>
    </g>
    <g id="ytick_8">
     <g id="line2d_16">
      <g>
       <use style="stroke:#000000;stroke-width:0.8;" x="57.6" xlink:href="#m44d51ca734" y="58.935154"/>
      </g>
     </g>
     <g id="text_16">
      <!-- 10 -->
      <g transform="translate(37.875 62.734373)scale(0.1 -0.1)">
       <use xlink:href="#DejaVuSans-49"/>
       <use x="63.623047" xlink:href="#DejaVuSans-48"/>
      </g>
     </g>
    </g>
   </g>
   <g id="line2d_17">
    <path clip-path="url(#paded449e77)" d="M 79.321435 283.155685 
L 73.832727 138.942137 
L 78.285789 135.884007 
L 112.18339 135.085778 
L 111.686107 123.238067 
L 92.655986 123.165466 
L 85.673939 118.228652 
L 83.634946 65.498675 
L 88.475173 60.164128 
L 92.122603 58.979342 
L 236.951637 55.640235 
L 348.490102 54.432491 
L 350.783075 58.451381 
L 352.59636 114.628957 
L 348.432765 117.501138 
L 326.941922 118.170126 
L 327.366075 123.497768 
L 330.185437 130.372353 
L 387.105507 128.694962 
L 392.005224 131.328234 
L 398.274246 280.701623 
L 397.041443 287.31899 
L 389.770818 288.812659 
L 148.983667 294.867314 
L 143.884241 291.895325 
L 144.776494 288.04161 
L 148.608621 286.291783 
L 387.749848 281.075963 
L 385.172452 213.202058 
L 303.653017 214.646375 
L 304.167084 223.029648 
L 301.454088 225.981757 
L 287.466839 226.307571 
L 283.635305 223.163786 
L 284.42216 213.124569 
L 295.440256 211.31321 
L 296.261655 207.908154 
L 299.542073 206.283807 
L 384.527046 204.462199 
L 381.557336 136.465852 
L 322.455657 138.085949 
L 317.47086 135.23887 
L 315.798566 110.505891 
L 324.380323 108.48047 
L 328.846793 110.390496 
L 342.143998 110.164307 
L 340.282683 61.366359 
L 287.296827 62.386155 
L 282.804516 63.906653 
L 274.402472 62.662108 
L 225.422661 63.658695 
L 223.320397 65.480963 
L 224.711938 112.618865 
L 234.454765 112.908016 
L 238.005899 117.715975 
L 239.763977 164.348881 
L 238.560006 166.802573 
L 235.001138 168.157884 
L 230.433341 166.79352 
L 228.194412 162.205029 
L 226.206617 121.214005 
L 217.197725 121.203905 
L 213.640356 118.223388 
L 211.006671 64.16558 
L 157.458547 65.32513 
L 153.655398 66.774162 
L 146.29302 65.557667 
L 98.981355 66.511452 
L 94.067291 68.524786 
L 96.716625 114.296546 
L 98.200807 115.524534 
L 117.777321 114.373374 
L 121.675903 115.897685 
L 122.706932 138.881795 
L 118.557779 142.628455 
L 84.256114 143.348094 
L 86.947096 210.808216 
L 184.388541 209.075548 
L 188.022092 210.214683 
L 189.50448 212.924199 
L 184.73516 217.514329 
L 167.522946 217.988927 
L 167.769291 226.820131 
L 163.144723 229.44373 
L 148.913943 228.168914 
L 147.19226 218.46644 
L 87.449137 220.313465 
L 90.059829 287.680834 
L 119.416913 286.982623 
L 122.957393 288.928509 
L 123.307315 292.879398 
L 118.887938 295.488 
L 83.407804 295.180498 
L 79.971057 292.631267 
L 79.321435 283.155685 
" style="fill:none;stroke:#008000;stroke-linecap:square;stroke-width:1.5;"/>
   </g>
   <g id="line2d_18">
    <path clip-path="url(#paded449e77)" d="M 119.028951 279.423795 
L 112.714025 276.767383 
L 112.79121 266.167311 
L 116.832083 264.166414 
L 129.75038 264.322678 
L 132.549349 267.825697 
L 132.329854 277.194852 
L 128.005311 279.196125 
L 119.028951 279.423795 
" style="fill:none;stroke:#008000;stroke-linecap:square;stroke-width:1.5;"/>
   </g>
   <g id="line2d_19">
    <path clip-path="url(#paded449e77)" d="M 114.474503 248.048618 
L 110.961542 245.02814 
L 111.879499 234.638663 
L 119.616595 232.969785 
L 129.198859 233.817946 
L 131.058669 236.396457 
L 130.489003 246.537049 
L 125.916984 248.179114 
L 114.474503 248.048618 
" style="fill:none;stroke:#008000;stroke-linecap:square;stroke-width:1.5;"/>
   </g>
   <g id="line2d_20">
    <path clip-path="url(#paded449e77)" d="M 128.732698 197.697845 
L 124.71114 199.666391 
L 110.63341 198.978198 
L 108.556799 194.811979 
L 109.724341 186.098538 
L 115.835332 184.576574 
L 126.780795 185.238075 
L 128.876083 188.281863 
L 128.732698 197.697845 
" style="fill:none;stroke:#008000;stroke-linecap:square;stroke-width:1.5;"/>
   </g>
   <g id="line2d_21">
    <path clip-path="url(#paded449e77)" d="M 113.825497 166.718053 
L 109.27567 163.665534 
L 109.622238 153.304795 
L 113.429065 151.631363 
L 127.074274 151.940796 
L 129.340401 154.742628 
L 128.711265 164.879504 
L 125.430853 166.503851 
L 113.825497 166.718053 
" style="fill:none;stroke:#008000;stroke-linecap:square;stroke-width:1.5;"/>
   </g>
   <g id="line2d_22">
    <path clip-path="url(#paded449e77)" d="M 168.890341 155.042169 
L 169.494072 152.361282 
L 172.543843 150.506473 
L 186.720645 150.929157 
L 189.403194 153.567128 
L 189.140704 162.605727 
L 179.782735 165.387935 
L 172.015467 164.683949 
L 169.197637 161.74561 
L 168.890341 155.042169 
" style="fill:none;stroke:#008000;stroke-linecap:square;stroke-width:1.5;"/>
   </g>
   <g id="line2d_23">
    <path clip-path="url(#paded449e77)" d="M 169.533466 108.669141 
L 166.95704 104.505042 
L 167.950807 95.513418 
L 171.531216 94.164617 
L 185.472151 94.704006 
L 187.331966 97.282523 
L 186.409265 107.713457 
L 182.948217 109.096786 
L 169.533466 108.669141 
" style="fill:none;stroke:#008000;stroke-linecap:square;stroke-width:1.5;"/>
   </g>
   <g id="line2d_24">
    <path clip-path="url(#paded449e77)" d="M 136.228517 87.303369 
L 131.499082 87.14168 
L 128.432834 85.238557 
L 127.940966 74.514242 
L 132.739965 72.12457 
L 145.025201 72.212437 
L 147.978018 75.049347 
L 147.87379 84.793594 
L 144.607731 86.987291 
L 136.228517 87.303369 
" style="fill:none;stroke:#008000;stroke-linecap:square;stroke-width:1.5;"/>
   </g>
   <g id="line2d_25">
    <path clip-path="url(#paded449e77)" d="M 182.552835 277.062644 
L 179.645746 272.293176 
L 180.978537 263.79585 
L 192.052577 262.078871 
L 198.267342 263.659805 
L 200.005921 266.17433 
L 199.068152 275.649098 
L 195.585538 277.022958 
L 182.552835 277.062644 
" style="fill:none;stroke:#008000;stroke-linecap:square;stroke-width:1.5;"/>
   </g>
   <g id="line2d_26">
    <path clip-path="url(#paded449e77)" d="M 197.224985 197.878676 
L 189.590535 198.021946 
L 185.858467 195.808159 
L 185.04885 187.510134 
L 188.373406 183.338863 
L 200.948212 182.829789 
L 205.145727 185.042696 
L 205.6765 195.528114 
L 202.881997 197.636264 
L 197.224985 197.878676 
" style="fill:none;stroke:#008000;stroke-linecap:square;stroke-width:1.5;"/>
   </g>
   <g id="line2d_27">
    <path clip-path="url(#paded449e77)" d="M 247.166728 243.3435 
L 251.40498 239.554 
L 264.991042 239.974219 
L 267.238459 242.820424 
L 267.231741 252.500505 
L 262.814071 254.579996 
L 250.107277 254.259525 
L 247.3815 250.890257 
L 247.166728 243.3435 
" style="fill:none;stroke:#008000;stroke-linecap:square;stroke-width:1.5;"/>
   </g>
   <g id="line2d_28">
    <path clip-path="url(#paded449e77)" d="M 241.062286 83.225663 
L 239.80156 75.708618 
L 242.244397 70.681872 
L 249.147624 69.485566 
L 258.597383 70.558238 
L 260.383204 76.328271 
L 258.982667 83.084376 
L 248.35532 84.923412 
L 241.062286 83.225663 
" style="fill:none;stroke:#008000;stroke-linecap:square;stroke-width:1.5;"/>
   </g>
   <g id="line2d_29">
    <path clip-path="url(#paded449e77)" d="M 294.318997 267.331401 
L 294.793539 264.297917 
L 297.691951 262.3143 
L 311.833578 261.830643 
L 314.685632 264.800324 
L 314.329549 274.703096 
L 310.288691 276.703993 
L 297.258621 276.430482 
L 294.632835 273.806749 
L 294.318997 267.331401 
" style="fill:none;stroke:#008000;stroke-linecap:square;stroke-width:1.5;"/>
   </g>
   <g id="line2d_30">
    <path clip-path="url(#paded449e77)" d="M 255.481537 175.948595 
L 253.086 172.16453 
L 254.223547 162.905159 
L 257.733182 161.502003 
L 270.917942 162.00968 
L 273.693978 169.261061 
L 271.986698 175.113743 
L 268.063529 176.603004 
L 255.481537 175.948595 
" style="fill:none;stroke:#008000;stroke-linecap:square;stroke-width:1.5;"/>
   </g>
   <g id="line2d_31">
    <path clip-path="url(#paded449e77)" d="M 280.55723 147.602537 
L 278.425944 142.137517 
L 280.200852 134.71063 
L 291.745485 133.47004 
L 297.490427 134.875021 
L 299.257109 141.961179 
L 297.752123 147.470092 
L 284.590501 148.907809 
L 280.55723 147.602537 
" style="fill:none;stroke:#008000;stroke-linecap:square;stroke-width:1.5;"/>
   </g>
   <g id="line2d_32">
    <path clip-path="url(#paded449e77)" d="M 280.494993 111.529461 
L 276.536281 114.597099 
L 262.461282 114.681896 
L 259.979862 111.093776 
L 261.115754 101.657557 
L 265.00928 100.051584 
L 277.651805 100.649341 
L 280.25619 105.018899 
L 280.494993 111.529461 
" style="fill:none;stroke:#008000;stroke-linecap:square;stroke-width:1.5;"/>
   </g>
   <g id="line2d_33">
    <path clip-path="url(#paded449e77)" d="M 325.028367 239.84597 
L 322.266326 236.831734 
L 323.796957 226.719678 
L 327.341249 225.475088 
L 340.624575 226.22667 
L 342.62049 230.984711 
L 341.506277 239.192144 
L 337.97239 240.426655 
L 325.028367 239.84597 
" style="fill:none;stroke:#008000;stroke-linecap:square;stroke-width:1.5;"/>
   </g>
   <g id="line2d_34">
    <path clip-path="url(#paded449e77)" d="M 333.520554 170.396535 
L 328.566121 167.313068 
L 329.162236 156.931691 
L 334.345935 155.125997 
L 346.47613 155.656565 
L 348.649201 158.539674 
L 348.005286 168.540396 
L 344.724868 170.164743 
L 333.520554 170.396535 
" style="fill:none;stroke:#008000;stroke-linecap:square;stroke-width:1.5;"/>
   </g>
   <g id="line2d_35">
    <path clip-path="url(#paded449e77)" d="M 298.34968 105.778031 
L 295.854004 101.580559 
L 297.063046 92.62455 
L 300.706347 91.295463 
L 314.393146 91.870295 
L 316.202826 94.422896 
L 315.27162 104.855455 
L 309.201992 106.39379 
L 298.34968 105.778031 
" style="fill:none;stroke:#008000;stroke-linecap:square;stroke-width:1.5;"/>
   </g>
   <g id="line2d_36">
    <path clip-path="url(#paded449e77)" d="M 338.134848 263.35217 
L 339.343923 260.7348 
L 343.110157 258.89449 
L 355.837171 259.037226 
L 358.453846 261.704519 
L 358.299058 271.920354 
L 354.11103 273.850988 
L 341.052169 273.238207 
L 338.447784 270.620011 
L 338.134848 263.35217 
" style="fill:none;stroke:#008000;stroke-linecap:square;stroke-width:1.5;"/>
   </g>
   <g id="line2d_37">
    <path clip-path="url(#paded449e77)" d="M 364.15933 194.959293 
L 360.118471 196.960191 
L 346.189789 196.234571 
L 344.148794 190.930151 
L 345.711953 183.287471 
L 355.898867 181.703884 
L 362.876006 183.016929 
L 364.550545 185.713572 
L 364.15933 194.959293 
" style="fill:none;stroke:#008000;stroke-linecap:square;stroke-width:1.5;"/>
   </g>
   <g id="line2d_38">
    <path clip-path="url(#paded449e77)" d="M 114.990332 90.755997 
L 115.960388 90.756107 
L 116.773589 91.322334 
L 118.460617 91.903772 
L 119.542897 92.181637 
L 121.333521 93.058861 
L 122.991713 94.068984 
L 124.499589 95.201112 
L 128.238838 95.650409 
L 131.329656 96.670552 
L 132.230126 96.993924 
L 134.371591 97.23217 
L 135.721896 98.15981 
L 136.941528 99.182035 
L 138.523178 100.757819 
L 140.960576 101.434296 
L 144.222768 102.283144 
L 145.855075 102.700345 
L 146.735222 102.804727 
L 148.609372 102.730609 
L 149.539212 102.634812 
L 150.650714 102.749836 
L 157.170081 104.538986 
L 158.912896 104.947753 
L 161.665792 105.946224 
L 163.151361 106.920942 
L 164.833461 107.4234 
L 166.254265 108.675555 
L 167.604876 110.231114 
L 168.653136 111.90983 
L 170.976297 113.155395 
L 173.448425 113.836273 
L 175.154151 114.154437 
L 177.420238 114.2259 
L 178.552548 114.170008 
L 179.4556 114.354275 
L 181.300547 115.006551 
L 182.19583 115.427271 
L 183.793634 116.67986 
L 185.164444 118.072357 
L 186.849275 120.111202 
L 188.978874 122.294849 
L 190.764096 124.172648 
L 192.015194 125.476081 
L 192.474982 126.16837 
L 192.952189 127.649654 
L 193.961269 132.266558 
L 196.25159 136.881704 
L 196.256899 137.533567 
L 196.534838 138.166527 
L 198.012864 139.128494 
L 197.862886 140.737051 
L 197.307463 143.170756 
L 198.36319 144.818299 
L 200.925136 147.974394 
L 203.06566 150.281375 
L 204.409269 151.343658 
L 206.452767 152.6266 
L 206.752503 153.268554 
L 207.294033 153.796643 
L 208.010775 154.163995 
L 208.490579 154.68542 
L 209.598159 156.801351 
L 210.126907 158.227202 
L 211.085098 161.946236 
L 211.406031 164.211819 
L 211.624254 165.754683 
L 211.926218 167.326595 
L 212.517098 168.057247 
L 214.373452 169.296821 
L 216.511551 170.255196 
L 217.338074 170.554685 
L 217.983532 171.039722 
L 219.161495 172.314283 
L 219.65053 172.944554 
L 219.928344 173.5938 
L 220.189811 175.196817 
L 220.165348 176.699987 
L 219.881442 178.188471 
L 219.189486 180.568073 
L 218.480624 182.139636 
L 218.043615 182.902548 
L 217.718316 184.859315 
L 217.370527 185.591146 
L 216.264564 187.247728 
L 215.63196 188.044423 
L 215.53948 188.856412 
L 216.157394 190.470923 
L 216.893776 191.997565 
L 217.87735 193.445717 
L 219.145885 194.864191 
L 220.770787 196.283697 
L 221.821446 198.271882 
L 223.421666 199.59633 
L 226.608134 201.59179 
L 228.454838 202.521099 
L 230.43064 203.268022 
L 231.30655 203.44617 
L 234.16076 204.569689 
L 241.092355 208.082957 
L 241.747762 208.707242 
L 242.415428 209.041899 
L 244.250601 209.237236 
L 247.792113 211.058694 
L 250.025243 211.153879 
L 252.256245 211.034382 
L 254.148145 212.212335 
L 255.857377 213.534769 
L 257.140048 214.820382 
L 259.878324 217.830401 
L 261.020634 219.140906 
L 262.168439 220.897407 
L 262.507088 221.497769 
L 263.164985 222.054353 
L 265.892258 223.768458 
L 267.822464 224.805972 
L 267.822464 224.805972 
" style="fill:none;stroke:#1f77b4;stroke-linecap:square;stroke-width:1.5;"/>
   </g>
   <g id="line2d_39">
    <path clip-path="url(#paded449e77)" d="M 114.990332 90.755997 
L 116.457828 90.808055 
L 118.099615 91.125575 
L 119.936282 91.864157 
L 122.417905 93.13642 
L 125.20752 94.609465 
L 126.554715 95.05103 
L 127.220682 95.240255 
L 128.838321 95.857197 
L 129.104914 96.269617 
L 130.62182 96.429152 
L 130.840386 96.79569 
L 132.43693 97.508825 
L 133.454279 97.126547 
L 135.486314 98.578501 
L 135.173403 98.48837 
L 134.878114 98.382699 
L 137.286648 99.808679 
L 137.471652 99.295237 
L 139.095422 100.369934 
L 139.579681 100.259714 
L 142.081491 101.075466 
L 144.748184 101.738965 
L 157.092852 104.458948 
L 159.756342 105.347088 
L 162.290454 106.423108 
L 163.879492 107.2915 
L 165.37606 108.321645 
L 167.480501 110.152856 
L 168.859535 111.34822 
L 170.304742 112.335095 
L 171.865928 113.096426 
L 173.564995 113.650086 
L 176.358865 114.19651 
L 179.271103 114.75099 
L 181.12331 115.355733 
L 182.822926 116.236936 
L 184.326961 117.372805 
L 186.236622 119.268711 
L 190.712633 124.201388 
L 191.700804 125.530469 
L 192.493216 126.945356 
L 193.068917 128.436441 
L 194.776487 133.819093 
L 196.149043 136.687625 
L 197.102741 138.723615 
L 197.516521 140.123065 
L 198.200664 143.985327 
L 199.07897 145.579068 
L 200.925353 147.900331 
L 202.917572 149.971361 
L 204.92938 151.652842 
L 206.795464 153.218498 
L 207.889026 154.319204 
L 208.806221 155.523992 
L 209.527546 156.845514 
L 210.302156 158.986825 
L 211.043707 161.953546 
L 212.022674 166.514434 
L 212.382975 167.262703 
L 212.923197 167.963722 
L 213.626617 168.594142 
L 215.296378 169.662893 
L 217.00792 170.600436 
L 218.385117 171.731205 
L 219.370311 173.025048 
L 219.690879 173.725751 
L 220.013959 175.192199 
L 220.02061 176.700795 
L 219.777148 178.225671 
L 219.127329 180.520857 
L 217.780475 184.253697 
L 217.238917 185.763358 
L 216.064774 188.003105 
L 215.964875 188.813432 
L 216.37741 190.398474 
L 217.06499 191.940213 
L 218.023331 193.419528 
L 219.208686 194.820593 
L 220.533867 196.130181 
L 222.004341 198.256333 
L 223.421274 199.453797 
L 225.834448 201.035383 
L 227.548043 201.997361 
L 229.36701 202.83575 
L 234.125694 204.606719 
L 240.946112 208.022064 
L 241.614265 208.514102 
L 242.397021 208.893487 
L 244.171084 209.227478 
L 248.164119 211.019337 
L 251.174623 211.301581 
L 252.214472 211.36269 
L 254.002078 212.353713 
L 255.616941 213.505274 
L 256.955388 214.753557 
L 260.921814 219.031948 
L 262.803395 221.584031 
L 264.265134 222.687962 
L 266.88061 224.284597 
L 267.822464 224.805972 
L 267.822464 224.805972 
" style="fill:none;stroke:#ff7f0e;stroke-linecap:square;stroke-width:1.5;"/>
   </g>
   <g id="line2d_40">
    <path clip-path="url(#paded449e77)" d="M 114.990332 90.755997 
L 119.440813 91.012319 
L 122.494295 91.417089 
L 124.858311 91.931674 
L 127.296719 92.67027 
L 129.807576 93.632184 
L 134.101226 95.561683 
L 141.922338 99.12344 
L 148.048273 101.624166 
L 161.151534 106.778529 
L 166.163537 109.137496 
L 180.884895 116.50592 
L 183.179273 117.883618 
L 185.317046 119.400082 
L 187.254686 121.072592 
L 188.967535 122.895987 
L 190.45513 124.847938 
L 191.739417 126.898518 
L 193.200445 129.73679 
L 194.762694 133.380686 
L 198.359599 142.232372 
L 199.479995 144.392152 
L 200.778195 146.488776 
L 202.768676 149.166429 
L 207.425712 154.972393 
L 208.70021 156.976209 
L 209.774193 159.036671 
L 213.419631 166.660125 
L 215.202719 169.277751 
L 216.987622 171.878131 
L 217.726954 173.222795 
L 218.292485 174.610327 
L 218.657671 176.035245 
L 218.822066 177.486437 
L 218.810263 178.95227 
L 218.555549 181.163438 
L 217.750883 186.372549 
L 217.708805 187.874805 
L 217.847908 189.373722 
L 218.196143 190.855194 
L 218.754104 192.304664 
L 219.505496 193.711172 
L 220.426616 195.068223 
L 222.077099 197.002634 
L 224.0177 198.794115 
L 226.211555 200.422584 
L 228.599583 201.891523 
L 231.968769 203.650823 
L 238.824737 206.875995 
L 243.976649 209.099878 
L 251.707836 212.27212 
L 254.084874 213.563974 
L 256.270577 215.052527 
L 258.948046 217.26388 
L 265.61554 223.105076 
L 267.822464 224.805972 
L 267.822464 224.805972 
" style="fill:none;stroke:#2ca02c;stroke-linecap:square;stroke-width:1.5;"/>
   </g>
   <g id="line2d_41">
    <path clip-path="url(#paded449e77)" d="M 114.990332 90.755997 
L 120.917901 91.106931 
L 124.721858 91.551153 
L 127.857947 92.133194 
L 131.096599 92.985844 
L 134.444237 94.151393 
L 137.882498 95.613685 
L 143.109529 98.156968 
L 155.183161 104.171872 
L 175.4461 113.833137 
L 179.402525 116.046212 
L 182.393017 117.964932 
L 184.491826 119.517215 
L 186.436426 121.179811 
L 188.2052 122.956069 
L 189.787669 124.840278 
L 191.188147 126.819086 
L 192.808504 129.573509 
L 194.551158 133.139513 
L 198.905084 142.545967 
L 200.507405 145.358324 
L 202.739461 148.777198 
L 208.200464 156.813627 
L 210.145088 160.223796 
L 216.64705 172.482219 
L 217.431305 174.575275 
L 217.967036 176.709842 
L 218.247897 178.876881 
L 218.33329 181.792861 
L 218.377317 186.188325 
L 218.625323 188.379215 
L 219.155114 190.540761 
L 219.691375 191.950889 
L 220.379766 193.325527 
L 221.216977 194.656569 
L 222.733413 196.557627 
L 224.528572 198.331656 
L 226.557874 199.973861 
L 228.772762 201.490257 
L 231.931422 203.344563 
L 236.073975 205.465571 
L 242.025467 208.212658 
L 249.645165 211.682367 
L 252.866685 213.400213 
L 255.897887 215.318933 
L 258.752955 217.419743 
L 263.581493 221.349055 
L 267.822464 224.805972 
L 267.822464 224.805972 
" style="fill:none;stroke:#d62728;stroke-linecap:square;stroke-width:1.5;"/>
   </g>
   <g id="line2d_42">
    <path clip-path="url(#paded449e77)" d="M 114.990332 90.755997 
L 122.404094 91.211774 
L 126.210892 91.63449 
L 130.129935 92.30996 
L 133.36234 93.107224 
L 136.683598 94.191272 
L 140.077084 95.585378 
L 143.505287 97.252841 
L 148.625317 100.054209 
L 157.90396 105.207344 
L 164.691597 108.662047 
L 174.744635 113.717669 
L 178.690604 115.986304 
L 181.662787 117.946299 
L 184.421661 120.063531 
L 186.325604 121.762825 
L 188.073792 123.557481 
L 189.661603 125.441689 
L 191.540224 128.07486 
L 193.187566 130.815904 
L 195.028721 134.339739 
L 199.354623 142.889193 
L 201.808047 147.069791 
L 206.1874 153.877679 
L 209.102988 158.630285 
L 212.161882 164.092578 
L 214.630572 168.886903 
L 215.870311 171.653172 
L 216.888372 174.457638 
L 217.468734 176.589006 
L 217.998643 179.462594 
L 219.213294 188.115091 
L 219.843007 190.230855 
L 220.727976 192.292518 
L 221.890071 194.276916 
L 223.326321 196.163913 
L 225.015404 197.939906 
L 226.924673 199.600063 
L 229.016269 201.148297 
L 232.023129 203.058014 
L 236.020047 205.250138 
L 241.841147 208.103363 
L 249.325281 211.779253 
L 253.304343 214.026564 
L 256.34233 215.983586 
L 259.981251 218.610404 
L 265.665008 223.082737 
L 267.822464 224.805972 
L 267.822464 224.805972 
" style="fill:none;stroke:#9467bd;stroke-linecap:square;stroke-width:1.5;"/>
   </g>
   <g id="line2d_43">
    <path clip-path="url(#paded449e77)" d="M 114.990332 90.755997 
L 123.142028 91.258049 
L 127.710557 91.75127 
L 131.626746 92.405283 
L 134.84267 93.162757 
L 138.130496 94.189547 
L 141.473131 95.523306 
L 144.838134 97.155112 
L 149.023557 99.504483 
L 163.139748 107.799354 
L 177.949188 115.907773 
L 180.932009 117.893468 
L 183.711351 120.021189 
L 186.254826 122.30167 
L 188.54432 124.731257 
L 190.58262 127.293669 
L 192.397792 129.963871 
L 194.430821 133.408762 
L 198.190253 140.452419 
L 200.935278 145.360971 
L 204.706326 151.565984 
L 209.249907 159.076749 
L 211.909482 163.871474 
L 213.981451 168.006998 
L 215.487254 171.486748 
L 216.497747 174.299699 
L 217.311903 177.139237 
L 218.090033 180.716879 
L 219.257035 186.429596 
L 220.103127 189.233157 
L 220.957061 191.285998 
L 222.035345 193.276215 
L 223.350235 195.186154 
L 224.896527 197.001648 
L 226.655725 198.714546 
L 228.600843 200.324093 
L 231.430412 202.320721 
L 234.463851 204.17333 
L 238.443716 206.345138 
L 251.459405 213.199138 
L 255.337392 215.592425 
L 259.075206 218.157327 
L 264.169851 221.976322 
L 267.822464 224.805972 
L 267.822464 224.805972 
" style="fill:none;stroke:#8c564b;stroke-linecap:square;stroke-width:1.5;"/>
   </g>
   <g id="line2d_44">
    <path clip-path="url(#paded449e77)" d="M 79.321435 283.155685 
L 73.832727 138.942137 
L 78.60061 135.716804 
L 112.182537 135.061733 
L 111.65559 122.808379 
L 92.676101 123.205406 
L 85.911728 118.460611 
L 83.617123 65.890426 
L 87.908128 60.275403 
L 91.449455 58.986595 
L 236.951637 55.640235 
L 332.493469 53.572378 
L 348.50685 54.442698 
L 350.783075 58.451381 
L 352.608109 114.592075 
L 348.544015 117.486466 
L 326.938743 118.150541 
L 327.541806 128.562223 
L 329.004465 130.286655 
L 387.602335 128.712747 
L 392.005224 131.328234 
L 398.487273 275.667375 
L 397.048915 287.312505 
L 393.615183 288.642381 
L 355.125923 290.555346 
L 312.846112 290.251779 
L 303.12512 291.525138 
L 215.957581 292.361981 
L 148.983667 294.867314 
L 143.884241 291.895325 
L 144.776494 288.04161 
L 148.608621 286.291783 
L 387.895952 280.97715 
L 385.202915 213.208142 
L 303.6511 214.646375 
L 304.125609 223.247408 
L 301.518471 225.956086 
L 287.780988 226.677297 
L 283.680352 223.673929 
L 284.185274 213.374728 
L 287.401588 211.713124 
L 295.284763 211.258163 
L 295.916486 208.537936 
L 299.082738 206.801952 
L 384.527111 204.464178 
L 381.564398 136.494256 
L 326.926814 138.881686 
L 320.42379 138.09982 
L 317.47086 135.23887 
L 315.862983 110.276523 
L 324.131278 108.48523 
L 328.895019 110.449009 
L 342.124416 110.139103 
L 340.282683 61.266137 
L 286.536633 62.473019 
L 282.624328 63.91206 
L 272.552809 62.698787 
L 224.997222 63.749362 
L 222.934236 68.522597 
L 224.697862 112.534666 
L 234.695452 113.00924 
L 238.024539 118.321451 
L 240.190645 165.272716 
L 238.914155 167.663613 
L 235.379941 168.956414 
L 230.156045 167.233624 
L 228.405505 164.725116 
L 226.368083 122.009852 
L 217.129712 121.865066 
L 213.672711 117.550405 
L 211.203803 65.027029 
L 101.706972 66.665976 
L 94.244108 68.777063 
L 96.532412 114.182852 
L 98.746496 115.474791 
L 117.982073 114.399724 
L 122.678968 116.14764 
L 123.549842 139.184636 
L 119.435241 142.625728 
L 84.691252 144.134383 
L 86.925533 210.84359 
L 184.349819 209.075438 
L 188.549317 210.631259 
L 189.695148 214.061512 
L 185.577698 217.436913 
L 167.803564 217.988927 
L 167.83356 226.663781 
L 163.105411 229.445175 
L 148.903841 228.161397 
L 147.19226 218.46644 
L 87.443254 220.258952 
L 90.059829 287.667075 
L 117.928004 287.020475 
L 123.000144 289.065866 
L 124.006337 292.589359 
L 119.623406 295.321948 
L 83.407804 295.180498 
L 79.971057 292.631267 
L 79.321435 283.155685 
" style="fill:none;stroke:#008000;stroke-linecap:square;stroke-width:1.5;"/>
   </g>
   <g id="line2d_45">
    <path clip-path="url(#paded449e77)" d="M 115.377512 278.912535 
L 112.460418 276.044896 
L 113.352624 265.544657 
L 116.832083 264.166414 
L 130.195354 264.531634 
L 132.539939 267.453202 
L 132.50897 277.855964 
L 129.014524 279.250468 
L 115.377512 278.912535 
" style="fill:none;stroke:#008000;stroke-linecap:square;stroke-width:1.5;"/>
   </g>
   <g id="line2d_46">
    <path clip-path="url(#paded449e77)" d="M 114.474503 248.048618 
L 110.961542 245.02814 
L 111.578312 234.933462 
L 119.616595 232.969785 
L 129.092444 233.637698 
L 131.285775 236.505021 
L 130.920473 246.535167 
L 125.708917 248.201592 
L 114.474503 248.048618 
" style="fill:none;stroke:#008000;stroke-linecap:square;stroke-width:1.5;"/>
   </g>
   <g id="line2d_47">
    <path clip-path="url(#paded449e77)" d="M 115.189507 199.843628 
L 111.473111 199.39345 
L 108.969906 197.137196 
L 109.139889 186.741848 
L 113.180763 184.740945 
L 126.425592 184.855277 
L 129.125618 187.849841 
L 128.971757 197.664571 
L 125.43332 199.610688 
L 115.189507 199.843628 
" style="fill:none;stroke:#008000;stroke-linecap:square;stroke-width:1.5;"/>
   </g>
   <g id="line2d_48">
    <path clip-path="url(#paded449e77)" d="M 113.359071 167.145546 
L 109.06723 162.892821 
L 109.622238 153.304795 
L 113.429065 151.631363 
L 126.531525 151.886325 
L 129.115132 154.989059 
L 129.286277 165.591135 
L 125.943918 167.15857 
L 113.359071 167.145546 
" style="fill:none;stroke:#008000;stroke-linecap:square;stroke-width:1.5;"/>
   </g>
   <g id="line2d_49">
    <path clip-path="url(#paded449e77)" d="M 172.117306 165.654804 
L 169.138337 161.470247 
L 170.056819 151.73742 
L 178.342448 150.18282 
L 187.36714 151.504511 
L 190.13395 157.053983 
L 189.078812 164.609946 
L 185.65705 166.068022 
L 172.117306 165.654804 
" style="fill:none;stroke:#008000;stroke-linecap:square;stroke-width:1.5;"/>
   </g>
   <g id="line2d_50">
    <path clip-path="url(#paded449e77)" d="M 172.897845 109.835347 
L 167.104377 105.740484 
L 167.494548 96.141666 
L 171.323117 94.337764 
L 184.756537 94.338964 
L 187.333212 97.292067 
L 187.277563 108.044658 
L 183.681025 109.862575 
L 172.897845 109.835347 
" style="fill:none;stroke:#008000;stroke-linecap:square;stroke-width:1.5;"/>
   </g>
   <g id="line2d_51">
    <path clip-path="url(#paded449e77)" d="M 130.770653 87.088486 
L 127.887321 84.03017 
L 128.645411 73.548058 
L 132.225819 72.199258 
L 146.245464 72.787492 
L 148.694448 81.972763 
L 147.332313 86.531495 
L 143.763778 87.933837 
L 130.770653 87.088486 
" style="fill:none;stroke:#008000;stroke-linecap:square;stroke-width:1.5;"/>
   </g>
   <g id="line2d_52">
    <path clip-path="url(#paded449e77)" d="M 183.983454 277.444088 
L 179.931485 274.417137 
L 180.649759 264.090066 
L 187.562601 262.237989 
L 198.698919 263.529212 
L 200.668655 266.37232 
L 200.034245 276.345355 
L 196.617572 277.80422 
L 183.983454 277.444088 
" style="fill:none;stroke:#008000;stroke-linecap:square;stroke-width:1.5;"/>
   </g>
   <g id="line2d_53">
    <path clip-path="url(#paded449e77)" d="M 190.354572 198.248328 
L 185.572528 195.343081 
L 186.075984 184.671331 
L 191.998681 182.831477 
L 203.288157 183.439485 
L 205.797442 186.693613 
L 205.014945 196.172942 
L 201.767579 197.846544 
L 190.354572 198.248328 
" style="fill:none;stroke:#008000;stroke-linecap:square;stroke-width:1.5;"/>
   </g>
   <g id="line2d_54">
    <path clip-path="url(#paded449e77)" d="M 241.062286 83.225663 
L 239.80156 75.708618 
L 242.244397 70.681872 
L 249.147624 69.485566 
L 258.597383 70.558238 
L 260.383204 76.328271 
L 258.982667 83.084376 
L 248.35532 84.923412 
L 241.062286 83.225663 
" style="fill:none;stroke:#008000;stroke-linecap:square;stroke-width:1.5;"/>
   </g>
   <g id="line2d_55">
    <path clip-path="url(#paded449e77)" d="M 251.933393 254.71983 
L 248.788723 253.466921 
L 247.189366 250.333106 
L 247.935362 241.174534 
L 255.096351 239.318851 
L 266.155365 240.338966 
L 268.325175 243.287724 
L 267.520409 253.381831 
L 264.208627 254.867728 
L 251.933393 254.71983 
" style="fill:none;stroke:#008000;stroke-linecap:square;stroke-width:1.5;"/>
   </g>
   <g id="line2d_56">
    <path clip-path="url(#paded449e77)" d="M 256.310621 177.051682 
L 253.106795 172.373868 
L 253.766916 163.146071 
L 259.009852 161.363055 
L 270.920351 161.88958 
L 273.47982 167.042756 
L 272.565623 174.962269 
L 263.272423 177.361047 
L 256.310621 177.051682 
" style="fill:none;stroke:#008000;stroke-linecap:square;stroke-width:1.5;"/>
   </g>
   <g id="line2d_57">
    <path clip-path="url(#paded449e77)" d="M 293.24508 149.54614 
L 283.205564 149.470813 
L 279.901729 147.807473 
L 278.42501 137.608442 
L 280.73491 134.42284 
L 293.925242 133.474555 
L 298.105862 135.338347 
L 299.54599 146.45917 
L 297.213034 148.83043 
L 293.24508 149.54614 
" style="fill:none;stroke:#008000;stroke-linecap:square;stroke-width:1.5;"/>
   </g>
   <g id="line2d_58">
    <path clip-path="url(#paded449e77)" d="M 263.827964 115.1605 
L 259.979862 111.093776 
L 261.115754 101.657557 
L 265.00928 100.051584 
L 277.651805 100.649341 
L 280.332421 105.394079 
L 279.766965 112.918905 
L 272.67017 115.233776 
L 263.827964 115.1605 
" style="fill:none;stroke:#008000;stroke-linecap:square;stroke-width:1.5;"/>
   </g>
   <g id="line2d_59">
    <path clip-path="url(#paded449e77)" d="M 314.844812 273.626318 
L 310.988992 276.61645 
L 296.824735 276.237762 
L 294.558604 273.43593 
L 295.357307 263.599609 
L 301.611056 261.632264 
L 313.151265 262.441833 
L 315.336626 265.161149 
L 314.844812 273.626318 
" style="fill:none;stroke:#008000;stroke-linecap:square;stroke-width:1.5;"/>
   </g>
   <g id="line2d_60">
    <path clip-path="url(#paded449e77)" d="M 322.242876 234.671329 
L 322.123303 228.551524 
L 325.156249 225.77687 
L 337.661781 225.19967 
L 342.25292 228.1464 
L 342.756188 237.374834 
L 339.67146 240.142992 
L 325.919098 240.730137 
L 322.633256 237.914437 
L 322.242876 234.671329 
" style="fill:none;stroke:#008000;stroke-linecap:square;stroke-width:1.5;"/>
   </g>
   <g id="line2d_61">
    <path clip-path="url(#paded449e77)" d="M 328.260411 161.942544 
L 328.486892 157.962966 
L 331.091834 155.684167 
L 345.586431 155.283342 
L 348.591962 158.162766 
L 348.48163 167.879958 
L 344.724868 170.164743 
L 331.58001 170.084037 
L 328.685941 167.672338 
L 328.260411 161.942544 
" style="fill:none;stroke:#008000;stroke-linecap:square;stroke-width:1.5;"/>
   </g>
   <g id="line2d_62">
    <path clip-path="url(#paded449e77)" d="M 315.833028 104.232798 
L 311.792169 106.2337 
L 297.945191 105.558224 
L 295.822804 101.201572 
L 297.063046 92.62455 
L 300.706347 91.295463 
L 314.393146 91.870295 
L 316.202826 94.422896 
L 315.833028 104.232798 
" style="fill:none;stroke:#008000;stroke-linecap:square;stroke-width:1.5;"/>
   </g>
   <g id="line2d_63">
    <path clip-path="url(#paded449e77)" d="M 338.13824 263.054359 
L 341.987226 259.337709 
L 356.649885 259.426103 
L 359.164815 262.389263 
L 358.16939 272.080662 
L 353.956094 273.855882 
L 340.621462 273.044856 
L 338.447784 270.620011 
L 338.13824 263.054359 
" style="fill:none;stroke:#008000;stroke-linecap:square;stroke-width:1.5;"/>
   </g>
   <g id="line2d_64">
    <path clip-path="url(#paded449e77)" d="M 344.255947 186.016945 
L 348.733756 182.007208 
L 362.002465 182.320077 
L 364.72821 187.591284 
L 363.899273 195.280833 
L 360.118471 196.960191 
L 347.00755 196.932819 
L 344.670497 193.877573 
L 344.255947 186.016945 
" style="fill:none;stroke:#008000;stroke-linecap:square;stroke-width:1.5;"/>
   </g>
   <g id="line2d_65">
    <path clip-path="url(#paded449e77)" d="M 280.599127 236.458917 
L 281.34649 237.004102 
L 281.371411 237.904027 
L 281.922157 239.403796 
L 282.868201 243.161743 
L 282.930906 244.714661 
L 282.807862 246.265597 
L 283.47887 248.817212 
L 282.800962 250.779578 
L 282.318431 252.162104 
L 282.478444 254.948702 
L 282.090239 256.243771 
L 280.082264 258.789157 
L 279.181992 262.207779 
L 278.641381 263.837574 
L 276.876237 267.825246 
L 275.918455 269.616324 
L 274.438185 271.233894 
L 274.050443 271.916387 
L 272.401662 273.156046 
L 270.578086 274.253055 
L 268.602061 275.193968 
L 266.903822 275.731473 
L 264.090427 276.433639 
L 262.810531 277.716651 
L 261.137369 279.660142 
L 258.467179 280.858307 
L 255.016139 282.965484 
L 253.966433 283.273094 
L 251.23127 283.505878 
L 246.234985 283.560235 
L 245.093067 283.50168 
L 242.350451 283.716347 
L 238.293634 283.667121 
L 236.442563 283.479061 
L 233.969383 282.941753 
L 233.162141 282.723277 
L 231.09665 281.80405 
L 229.214572 280.689328 
L 224.985135 277.49464 
L 223.451345 276.106573 
L 222.176204 274.729255 
L 221.357391 273.456462 
L 220.68714 272.136806 
L 220.468459 271.525296 
L 220.429547 270.181396 
L 220.578361 268.832319 
L 219.687824 265.434832 
L 218.564096 263.704296 
L 219.009432 262.219302 
L 219.337613 261.498113 
L 219.467158 260.718892 
L 219.430973 257.331065 
L 219.589603 255.602138 
L 219.365853 255.231798 
L 215.625129 255.179066 
L 213.139973 255.017885 
L 210.986852 254.035376 
L 209.08508 252.800447 
L 208.245425 252.09889 
L 208.245425 252.09889 
" style="fill:none;stroke:#e377c2;stroke-linecap:square;stroke-width:1.5;"/>
   </g>
   <g id="line2d_66">
    <path clip-path="url(#paded449e77)" d="M 280.599127 236.458917 
L 280.916432 236.630328 
L 280.876904 236.777791 
L 281.050401 236.716166 
L 281.025316 237.029615 
L 281.747058 239.134565 
L 282.708574 242.862224 
L 282.947203 245.244628 
L 282.890854 247.179083 
L 282.697323 249.584395 
L 282.867364 252.347797 
L 282.622522 253.579738 
L 279.467534 261.434189 
L 277.630844 266.008946 
L 276.554395 268.10082 
L 275.304913 269.964713 
L 274.282751 271.156513 
L 273.013188 272.338548 
L 271.452041 273.470371 
L 269.704215 274.452048 
L 266.212954 275.99513 
L 264.574073 276.801143 
L 263.066752 277.761953 
L 260.186592 279.818815 
L 257.927658 281.091017 
L 255.649981 282.152941 
L 253.993379 282.638889 
L 252.218126 282.902654 
L 248.419174 283.117625 
L 240.435772 283.252599 
L 237.58158 283.156393 
L 234.902941 282.754699 
L 233.110116 282.306241 
L 231.277773 281.57606 
L 229.426572 280.574308 
L 226.810868 278.765093 
L 225.182712 277.464056 
L 223.743852 276.116369 
L 222.581383 274.79224 
L 221.718334 273.484661 
L 221.068618 272.192433 
L 220.676315 270.882099 
L 219.961047 266.870108 
L 219.442836 264.907839 
L 219.186472 264.294329 
L 219.036075 263.625935 
L 219.155657 262.253685 
L 219.30842 260.865382 
L 219.179565 258.791156 
L 218.808807 256.919049 
L 218.608821 256.384142 
L 218.147706 255.873375 
L 215.578659 255.189764 
L 213.378829 254.659728 
L 211.246999 253.792708 
L 209.228874 252.708952 
L 208.245425 252.09889 
L 208.245425 252.09889 
" style="fill:none;stroke:#7f7f7f;stroke-linecap:square;stroke-width:1.5;"/>
   </g>
   <g id="line2d_67">
    <path clip-path="url(#paded449e77)" d="M 280.599127 236.458917 
L 280.994746 236.591747 
L 280.310061 236.44829 
L 280.767701 236.614244 
L 281.092581 236.813153 
L 281.169861 237.00834 
L 281.278642 236.857801 
L 281.08545 237.260169 
L 281.054042 237.595086 
L 281.247893 237.853933 
L 281.368621 237.688571 
L 281.423002 238.23431 
L 281.391381 238.685996 
L 281.682897 250.073782 
L 281.461441 252.166756 
L 280.874742 255.010964 
L 279.902372 258.432484 
L 279.039822 260.821815 
L 278.024937 263.090746 
L 276.831789 265.245839 
L 275.447913 267.28837 
L 273.868801 269.21812 
L 272.096985 271.033508 
L 270.14598 272.729628 
L 268.041961 274.298944 
L 265.819806 275.732715 
L 262.728346 277.419134 
L 260.336387 278.50523 
L 257.88375 279.430351 
L 255.363463 280.188633 
L 252.76898 280.777124 
L 250.100824 281.197229 
L 246.450634 281.502831 
L 242.750494 281.518049 
L 239.989189 281.323263 
L 237.276187 280.926164 
L 234.644883 280.29949 
L 232.134667 279.422502 
L 229.794137 278.291268 
L 227.676145 276.925496 
L 225.822919 275.366462 
L 224.250614 273.664766 
L 222.945302 271.867403 
L 221.868957 270.012957 
L 220.690082 267.503379 
L 218.27293 261.984545 
L 217.268859 260.247463 
L 216.049903 258.573543 
L 214.564646 256.95579 
L 212.776752 255.370074 
L 210.664096 253.77104 
L 208.245425 252.09889 
L 208.245425 252.09889 
" style="fill:none;stroke:#bcbd22;stroke-linecap:square;stroke-width:1.5;"/>
   </g>
   <g id="line2d_68">
    <path clip-path="url(#paded449e77)" d="M 280.599127 236.458917 
L 281.151341 236.817382 
L 284.71271 240.682515 
L 278.597997 234.172173 
L 278.170118 234.427769 
L 278.760234 234.492019 
L 278.624783 234.686752 
L 278.770992 234.831965 
L 278.551044 234.925713 
L 278.947704 235.835599 
L 278.984621 236.143689 
L 279.274505 236.538235 
L 279.874677 237.876216 
L 280.209103 238.611873 
L 280.473823 239.491349 
L 280.81863 241.742151 
L 280.974641 244.25161 
L 280.915489 247.963717 
L 280.56785 251.237582 
L 280.026037 254.154676 
L 279.336648 256.829487 
L 278.494829 259.326695 
L 277.486029 261.678838 
L 276.300659 263.901145 
L 274.935743 265.999061 
L 273.394526 267.972081 
L 271.68557 269.816908 
L 269.82168 271.527712 
L 267.818301 273.097572 
L 265.691612 274.520073 
L 263.456863 275.789937 
L 261.127361 276.903091 
L 258.714453 277.856367 
L 256.228473 278.647151 
L 253.680273 279.273155 
L 251.082847 279.732223 
L 248.452626 280.021949 
L 245.810044 280.139039 
L 243.179191 280.078783 
L 240.586695 279.835237 
L 238.060329 279.402465 
L 235.627729 278.776522 
L 233.315123 277.957518 
L 231.14571 276.951154 
L 229.137553 275.769413 
L 227.301211 274.430358 
L 225.637546 272.957156 
L 224.136235 271.37646 
L 222.34771 269.150054 
L 219.937911 265.67102 
L 217.111426 261.575515 
L 214.804254 258.678086 
L 212.67585 256.354982 
L 209.602453 253.360186 
L 208.245425 252.09889 
L 208.245425 252.09889 
" style="fill:none;stroke:#17becf;stroke-linecap:square;stroke-width:1.5;"/>
   </g>
   <g id="line2d_69">
    <path clip-path="url(#paded449e77)" d="M 280.599127 236.458917 
L 280.673498 236.757045 
L 280.651357 236.620473 
L 280.512114 236.761819 
L 280.196182 236.734186 
L 280.651008 236.828449 
L 280.570914 236.525124 
L 280.591347 236.899597 
L 280.499992 237.047503 
L 280.663163 237.512463 
L 280.716374 237.348716 
L 280.466171 237.652409 
L 280.459464 238.751261 
L 280.56011 241.098895 
L 279.834959 250.645417 
L 279.320248 253.552221 
L 278.599053 256.237144 
L 277.695034 258.746193 
L 276.618957 261.102841 
L 275.376732 263.318729 
L 273.973103 265.398433 
L 272.413408 267.342049 
L 270.704649 269.147048 
L 268.855531 270.810435 
L 266.876684 272.327629 
L 264.779875 273.694081 
L 262.577593 274.905631 
L 260.282917 275.958519 
L 257.909647 276.849378 
L 255.472605 277.575256 
L 252.98794 278.133686 
L 250.473283 278.522711 
L 247.947607 278.740853 
L 245.4308 278.787006 
L 242.943026 278.660416 
L 240.504052 278.360881 
L 238.132621 277.88923 
L 235.845821 277.247996 
L 233.658338 276.442059 
L 231.581538 275.479077 
L 229.622465 274.369613 
L 227.782934 273.126933 
L 225.5083 271.289883 
L 223.411933 269.284563 
L 220.968008 266.600226 
L 210.155215 254.112226 
L 208.245425 252.09889 
L 208.245425 252.09889 
" style="fill:none;stroke:#1f77b4;stroke-linecap:square;stroke-width:1.5;"/>
   </g>
   <g id="line2d_70">
    <path clip-path="url(#paded449e77)" d="M 280.599127 236.458917 
L 280.720117 236.724181 
L 280.462572 236.624749 
L 281.361187 236.602528 
L 281.291646 236.442585 
L 281.52456 236.494231 
L 281.699127 236.375292 
L 281.492738 236.603684 
L 281.462507 236.868701 
L 281.289673 236.707698 
L 280.918593 236.988542 
L 280.810294 237.29356 
L 280.432228 237.598387 
L 280.36601 238.131744 
L 280.051653 240.625381 
L 280.095492 243.680888 
L 279.719832 247.114537 
L 278.976769 251.202664 
L 278.278637 253.987781 
L 277.439358 256.585384 
L 276.446248 259.019636 
L 275.293893 261.303022 
L 273.982709 263.441351 
L 272.517235 265.436541 
L 270.904978 267.28803 
L 269.155358 268.994021 
L 267.278509 270.553059 
L 265.285691 271.961998 
L 263.188916 273.217312 
L 261.001033 274.31558 
L 258.735826 275.253712 
L 256.408011 276.029133 
L 254.03314 276.639935 
L 251.627396 277.08496 
L 248.400275 277.419873 
L 245.186609 277.460446 
L 242.023817 277.209756 
L 238.946291 276.673308 
L 235.983775 275.859983 
L 233.159333 274.783057 
L 230.487045 273.46065 
L 227.970075 271.915317 
L 225.599695 270.172957 
L 223.355569 268.261218 
L 220.671613 265.668325 
L 216.98499 261.731224 
L 208.245425 252.09889 
L 208.245425 252.09889 
" style="fill:none;stroke:#ff7f0e;stroke-linecap:square;stroke-width:1.5;"/>
   </g>
   <g id="line2d_71">
    <path clip-path="url(#paded449e77)" d="M 92.375741 286.663002 
L 99.557039 287.386727 
L 103.136858 284.215922 
L 112.74979 284.116284 
L 116.788789 286.996175 
L 122.207903 288.145353 
L 124.04993 292.47091 
L 119.747885 295.310581 
L 84.399466 295.326781 
L 80.617298 293.645589 
L 78.488287 288.093888 
L 73.832727 138.942137 
L 79.507998 135.713453 
L 112.182537 135.045943 
L 111.65559 122.808379 
L 92.676101 123.205406 
L 85.911728 118.460611 
L 83.617123 65.890426 
L 87.908128 60.275403 
L 100.431812 55.795713 
L 120.542426 55.823859 
L 125.79453 58.342143 
L 149.976813 58.350726 
L 161.382278 55.798324 
L 167.754105 57.334472 
L 180.478768 55.795434 
L 279.808833 55.408613 
L 345.108661 53.568 
L 356.597268 56.762263 
L 357.636036 61.522778 
L 350.91348 63.777915 
L 352.610371 114.584772 
L 348.99709 117.407055 
L 334.106787 117.961626 
L 332.350135 120.64659 
L 332.550478 130.195784 
L 387.105507 128.694962 
L 392.038358 131.406118 
L 398.483995 275.598678 
L 398.024218 285.286045 
L 395.706583 290.382772 
L 387.320287 291.843472 
L 234.760852 291.888367 
L 148.720173 294.865079 
L 143.812752 291.614297 
L 143.387511 286.630712 
L 147.774444 284.061601 
L 261.847027 284.105828 
L 387.754453 280.548418 
L 385.296188 213.19012 
L 376.634661 213.364928 
L 371.818286 216.235809 
L 331.426974 215.914694 
L 327.25989 214.166178 
L 303.745143 214.646375 
L 304.099997 221.917569 
L 301.04896 225.940275 
L 287.780988 226.677297 
L 283.680352 223.673929 
L 284.517875 213.034463 
L 295.291285 211.282911 
L 296.470455 207.978199 
L 301.33925 206.344999 
L 384.52698 204.459539 
L 381.905717 136.899933 
L 328.469587 139.836811 
L 321.197947 138.383162 
L 317.47086 135.23887 
L 315.83796 110.780914 
L 324.354825 108.480547 
L 328.851774 110.390496 
L 342.116943 110.134147 
L 340.282683 61.366359 
L 326.080114 61.491781 
L 321.59652 63.435558 
L 315.581377 61.718148 
L 286.969946 62.42452 
L 282.622853 63.912084 
L 225.208479 63.751023 
L 222.934236 68.522597 
L 224.675854 112.421121 
L 238.468151 113.420035 
L 242.101775 116.701175 
L 241.257853 119.197919 
L 238.105415 120.798513 
L 239.027863 146.749591 
L 242.338702 151.173869 
L 239.751916 160.158253 
L 243.399543 164.488133 
L 241.279295 167.286176 
L 234.212668 169.119539 
L 230.560272 168.172225 
L 228.82643 165.60853 
L 226.447394 121.977996 
L 217.129712 121.865066 
L 213.672711 117.550405 
L 211.203803 65.027254 
L 101.851696 67.011305 
L 101.232545 76.097343 
L 98.419705 78.123679 
L 94.487677 78.09292 
L 96.532412 114.182852 
L 103.627049 115.47812 
L 124.259436 113.290259 
L 127.642446 114.737406 
L 128.684728 117.527187 
L 127.200944 125.315062 
L 122.827648 127.570169 
L 123.549754 139.185456 
L 121.715897 141.813597 
L 109.762706 143.632012 
L 84.641539 144.044386 
L 87.03835 208.816815 
L 133.620973 208.600136 
L 138.632198 210.18963 
L 185.662827 208.597986 
L 189.316533 209.741505 
L 190.792851 212.469516 
L 186.027726 217.513479 
L 168.283227 217.988927 
L 169.057154 224.911999 
L 166.752592 228.314322 
L 163.595271 229.430433 
L 149.275671 228.41305 
L 147.505194 226.211782 
L 147.19226 218.46644 
L 90.452554 219.818575 
L 87.553496 223.646582 
L 89.839465 284.470611 
L 92.375741 286.663002 
L 92.375741 286.663002 
" style="fill:none;stroke:#008000;stroke-linecap:square;stroke-width:1.5;"/>
   </g>
   <g id="line2d_72">
    <path clip-path="url(#paded449e77)" d="M 115.377512 278.912535 
L 112.460418 276.044896 
L 113.401284 265.501377 
L 120.216183 263.997301 
L 130.892304 264.840957 
L 132.776588 267.431841 
L 132.50897 277.855964 
L 129.014524 279.250468 
L 115.377512 278.912535 
" style="fill:none;stroke:#008000;stroke-linecap:square;stroke-width:1.5;"/>
   </g>
   <g id="line2d_73">
    <path clip-path="url(#paded449e77)" d="M 114.474503 248.048618 
L 110.961542 245.02814 
L 111.443439 235.246671 
L 114.580539 233.542978 
L 121.834279 233.163914 
L 125.316175 230.563108 
L 129.660192 231.052145 
L 131.94262 234.218966 
L 130.534471 246.491207 
L 125.916984 248.179114 
L 114.474503 248.048618 
" style="fill:none;stroke:#008000;stroke-linecap:square;stroke-width:1.5;"/>
   </g>
   <g id="line2d_74">
    <path clip-path="url(#paded449e77)" d="M 115.189507 199.843628 
L 111.473111 199.39345 
L 108.969906 197.137196 
L 109.139889 186.741848 
L 113.180763 184.740945 
L 126.425592 184.855277 
L 129.125618 187.849841 
L 128.971757 197.664571 
L 125.43332 199.610688 
L 115.189507 199.843628 
" style="fill:none;stroke:#008000;stroke-linecap:square;stroke-width:1.5;"/>
   </g>
   <g id="line2d_75">
    <path clip-path="url(#paded449e77)" d="M 108.856571 157.495721 
L 109.141829 153.967377 
L 111.953059 151.89853 
L 126.090967 151.702082 
L 129.031445 154.619339 
L 129.784798 164.937436 
L 125.943918 167.15857 
L 113.359071 167.145546 
L 109.199255 163.268971 
L 108.856571 157.495721 
" style="fill:none;stroke:#008000;stroke-linecap:square;stroke-width:1.5;"/>
   </g>
   <g id="line2d_76">
    <path clip-path="url(#paded449e77)" d="M 174.179599 166.020194 
L 169.254023 161.932617 
L 169.755141 152.038625 
L 178.342448 150.18282 
L 187.213679 151.463289 
L 190.13395 157.053983 
L 189.207922 164.480069 
L 185.930094 166.036248 
L 174.179599 166.020194 
" style="fill:none;stroke:#008000;stroke-linecap:square;stroke-width:1.5;"/>
   </g>
   <g id="line2d_77">
    <path clip-path="url(#paded449e77)" d="M 171.897941 109.907318 
L 167.027982 105.471557 
L 166.785046 97.458007 
L 169.093393 94.767422 
L 183.698342 94.001382 
L 186.748109 95.856189 
L 187.46655 98.713603 
L 193.136794 100.55723 
L 193.597784 103.492247 
L 190.239374 107.383529 
L 183.856432 109.83893 
L 171.897941 109.907318 
" style="fill:none;stroke:#008000;stroke-linecap:square;stroke-width:1.5;"/>
   </g>
   <g id="line2d_78">
    <path clip-path="url(#paded449e77)" d="M 134.22093 88.009119 
L 128.089795 84.61457 
L 128.063766 74.177741 
L 131.714036 72.245044 
L 145.390968 72.348557 
L 147.98838 75.096122 
L 147.910923 85.873706 
L 144.353611 87.870976 
L 134.22093 88.009119 
" style="fill:none;stroke:#008000;stroke-linecap:square;stroke-width:1.5;"/>
   </g>
   <g id="line2d_79">
    <path clip-path="url(#paded449e77)" d="M 197.952857 276.715275 
L 184.994168 277.518237 
L 181.334595 276.388525 
L 179.62496 266.423153 
L 181.391551 263.497201 
L 192.004523 262.079248 
L 198.594535 263.590501 
L 200.243806 273.539005 
L 197.952857 276.715275 
" style="fill:none;stroke:#008000;stroke-linecap:square;stroke-width:1.5;"/>
   </g>
   <g id="line2d_80">
    <path clip-path="url(#paded449e77)" d="M 196.664102 198.090157 
L 188.998386 198.068032 
L 185.826243 195.911732 
L 185.090604 186.374624 
L 188.566072 183.211506 
L 204.054726 183.336768 
L 207.990481 185.608226 
L 207.254645 195.353755 
L 202.807962 197.658778 
L 196.664102 198.090157 
" style="fill:none;stroke:#008000;stroke-linecap:square;stroke-width:1.5;"/>
   </g>
   <g id="line2d_81">
    <path clip-path="url(#paded449e77)" d="M 241.062286 83.225663 
L 239.901002 75.294156 
L 241.584685 71.2414 
L 244.901629 69.698762 
L 257.825439 70.102359 
L 266.741156 80.410253 
L 265.932948 83.253146 
L 262.660085 84.852561 
L 244.843088 84.905017 
L 241.062286 83.225663 
" style="fill:none;stroke:#008000;stroke-linecap:square;stroke-width:1.5;"/>
   </g>
   <g id="line2d_82">
    <path clip-path="url(#paded449e77)" d="M 247.957 252.827582 
L 247.093889 243.700244 
L 248.986436 240.610219 
L 254.798818 239.3176 
L 265.38778 240.490045 
L 267.884734 247.294716 
L 266.141092 253.970494 
L 252.068952 254.747312 
L 247.957 252.827582 
" style="fill:none;stroke:#008000;stroke-linecap:square;stroke-width:1.5;"/>
   </g>
   <g id="line2d_83">
    <path clip-path="url(#paded449e77)" d="M 263.272423 177.361047 
L 257.080255 176.738266 
L 254.079148 174.847876 
L 253.096209 164.174493 
L 257.147637 161.539004 
L 269.577822 161.48162 
L 272.82178 163.586363 
L 276.692168 174.389168 
L 273.257502 176.919182 
L 263.272423 177.361047 
" style="fill:none;stroke:#008000;stroke-linecap:square;stroke-width:1.5;"/>
   </g>
   <g id="line2d_84">
    <path clip-path="url(#paded449e77)" d="M 290.238106 149.86448 
L 282.728334 149.381764 
L 279.462583 147.189428 
L 278.450066 137.232332 
L 281.632409 134.071473 
L 294.43082 133.511365 
L 298.741862 136.319318 
L 302.673356 147.608317 
L 299.430775 149.707955 
L 290.238106 149.86448 
" style="fill:none;stroke:#008000;stroke-linecap:square;stroke-width:1.5;"/>
   </g>
   <g id="line2d_85">
    <path clip-path="url(#paded449e77)" d="M 264.318319 115.251453 
L 260.053733 111.457999 
L 260.841179 101.977615 
L 264.500637 100.093444 
L 276.830963 100.451999 
L 279.577289 102.442585 
L 281.803896 108.229028 
L 279.856371 113.288368 
L 276.207089 115.120556 
L 264.318319 115.251453 
" style="fill:none;stroke:#008000;stroke-linecap:square;stroke-width:1.5;"/>
   </g>
   <g id="line2d_86">
    <path clip-path="url(#paded449e77)" d="M 299.735682 277.936234 
L 296.345129 277.522827 
L 293.891731 275.272609 
L 294.733597 263.751356 
L 299.700221 261.653285 
L 311.998609 261.893207 
L 314.698627 264.887759 
L 314.366141 274.651425 
L 311.300323 276.553242 
L 299.735682 277.936234 
" style="fill:none;stroke:#008000;stroke-linecap:square;stroke-width:1.5;"/>
   </g>
   <g id="line2d_87">
    <path clip-path="url(#paded449e77)" d="M 337.267828 241.215106 
L 327.552588 242.483875 
L 323.590042 240.609077 
L 322.043893 230.882729 
L 324.82686 225.978005 
L 337.043773 225.15435 
L 341.249137 226.98509 
L 342.729248 237.466968 
L 337.267828 241.215106 
" style="fill:none;stroke:#008000;stroke-linecap:square;stroke-width:1.5;"/>
   </g>
   <g id="line2d_88">
    <path clip-path="url(#paded449e77)" d="M 328.260411 161.942544 
L 328.486892 157.962966 
L 331.091834 155.684167 
L 345.586431 155.283342 
L 348.591962 158.162766 
L 348.48163 167.879958 
L 344.724868 170.164743 
L 331.58001 170.084037 
L 328.685941 167.672338 
L 328.260411 161.942544 
" style="fill:none;stroke:#008000;stroke-linecap:square;stroke-width:1.5;"/>
   </g>
   <g id="line2d_89">
    <path clip-path="url(#paded449e77)" d="M 298.34968 105.778031 
L 295.854004 101.580559 
L 297.063046 92.62455 
L 300.706347 91.295463 
L 314.393146 91.870295 
L 316.202826 94.422896 
L 315.27162 104.855455 
L 309.006023 106.392425 
L 298.34968 105.778031 
" style="fill:none;stroke:#008000;stroke-linecap:square;stroke-width:1.5;"/>
   </g>
   <g id="line2d_90">
    <path clip-path="url(#paded449e77)" d="M 358.943513 269.619824 
L 355.566971 273.568077 
L 340.171352 275.04738 
L 337.709384 271.940306 
L 338.743318 261.392524 
L 343.41585 258.801385 
L 355.083597 258.994675 
L 357.962213 261.808189 
L 358.943513 269.619824 
" style="fill:none;stroke:#008000;stroke-linecap:square;stroke-width:1.5;"/>
   </g>
   <g id="line2d_91">
    <path clip-path="url(#paded449e77)" d="M 349.518383 197.137755 
L 344.546401 194.32605 
L 344.783631 183.735766 
L 349.071748 181.889075 
L 362.002465 182.320077 
L 364.72821 187.591284 
L 363.899273 195.280833 
L 360.618855 196.90518 
L 349.518383 197.137755 
" style="fill:none;stroke:#008000;stroke-linecap:square;stroke-width:1.5;"/>
   </g>
   <g id="line2d_92">
    <path clip-path="url(#paded449e77)" d="M 203.321617 236.585669 
L 202.866721 236.028352 
L 203.164329 235.288213 
L 203.18757 231.550407 
L 203.414698 229.906935 
L 204.103881 227.147754 
L 205.181646 225.455222 
L 206.569095 223.879061 
L 208.237317 222.460219 
L 209.77576 221.282947 
L 211.095164 220.250592 
L 211.955188 218.834256 
L 212.356006 218.052201 
L 212.991056 217.386953 
L 214.331329 216.574328 
L 215.814115 215.446742 
L 217.894062 214.108272 
L 219.494864 212.355012 
L 225.672858 206.535462 
L 226.885158 205.531209 
L 228.504998 199.560677 
L 229.22397 199.101243 
L 229.422441 198.341604 
L 229.389693 197.691503 
L 229.22582 197.049618 
L 230.396443 195.084474 
L 231.740273 192.86238 
L 231.531778 191.924085 
L 231.206204 191.004271 
L 231.328469 189.540801 
L 231.828254 185.947448 
L 232.273445 185.378727 
L 232.666821 184.003152 
L 233.119075 183.326524 
L 233.337046 182.587449 
L 232.471042 180.877759 
L 231.197228 179.314493 
L 230.534047 178.559459 
L 229.259563 176.505352 
L 228.09332 175.392398 
L 227.46154 174.889634 
L 227.063174 174.32901 
L 226.853614 173.051718 
L 226.455658 172.384907 
L 223.191926 169.582817 
L 221.645195 168.635906 
L 221.42143 167.929638 
L 218.132036 165.51622 
L 216.507932 164.725179 
L 214.999509 163.96627 
L 212.773345 162.59599 
L 208.744856 159.626726 
L 205.768309 158.188162 
L 201.902094 156.497411 
L 199.709237 153.638235 
L 199.066444 153.212889 
L 196.419386 152.139997 
L 194.180086 151.42798 
L 189.716109 150.320157 
L 185.689779 148.893513 
L 184.667425 148.562169 
L 181.927034 146.361072 
L 179.353046 145.902135 
L 176.713828 145.31675 
L 175.365148 144.427268 
L 174.570629 144.091134 
L 168.227043 142.685431 
L 158.374503 139.842951 
L 156.165499 139.15756 
L 152.914227 137.670185 
L 149.807933 136.021407 
L 148.926705 135.360175 
L 147.872033 133.637592 
L 147.209835 131.810752 
L 146.957779 129.928393 
L 146.957779 129.928393 
" style="fill:none;stroke:#2ca02c;stroke-linecap:square;stroke-width:1.5;"/>
   </g>
   <g id="line2d_93">
    <path clip-path="url(#paded449e77)" d="M 203.321617 236.585669 
L 202.724209 235.74677 
L 202.4699 235.275566 
L 202.271616 234.04119 
L 202.513669 232.401776 
L 203.329 229.116503 
L 203.969291 227.541937 
L 204.981823 225.911868 
L 206.264044 224.329256 
L 210.21393 220.235559 
L 214.061641 216.63814 
L 221.96499 210.002301 
L 224.359133 207.69179 
L 225.889683 205.89771 
L 226.726322 204.616082 
L 227.402863 203.260456 
L 228.442708 200.472755 
L 231.088963 192.780873 
L 231.321416 191.219844 
L 231.718747 187.456101 
L 232.601378 183.20832 
L 232.575234 182.466149 
L 232.429153 181.70917 
L 232.15282 180.941996 
L 231.273831 179.428737 
L 229.227061 176.718209 
L 227.38573 174.284896 
L 225.60284 171.883683 
L 224.460193 170.744722 
L 220.453877 167.338762 
L 218.207581 165.732024 
L 215.036735 163.938577 
L 212.702079 162.499742 
L 207.722776 159.208948 
L 202.195589 156.34058 
L 198.870459 153.396236 
L 197.114432 152.564786 
L 195.191355 151.819219 
L 192.004645 150.909523 
L 189.889311 150.239338 
L 184.965192 148.457845 
L 181.98619 146.583936 
L 176.775987 145.233927 
L 174.458797 144.157327 
L 165.509703 141.918585 
L 156.197764 139.050032 
L 153.02636 137.594877 
L 151.043584 136.473374 
L 150.12182 135.866322 
L 149.304765 135.182889 
L 148.176212 133.557249 
L 147.414405 131.788169 
L 146.957779 129.928393 
L 146.957779 129.928393 
" style="fill:none;stroke:#d62728;stroke-linecap:square;stroke-width:1.5;"/>
   </g>
   <g id="line2d_94">
    <path clip-path="url(#paded449e77)" d="M 203.321617 236.585669 
L 201.905776 234.425532 
L 201.257321 233.016903 
L 200.981063 231.993263 
L 200.88721 230.874013 
L 201.050065 229.62502 
L 201.569435 228.204771 
L 202.501066 226.605783 
L 204.415794 224.066471 
L 206.593667 221.602551 
L 208.912431 219.304581 
L 212.124256 216.521141 
L 216.876975 212.820493 
L 220.48761 209.917397 
L 223.024857 207.553225 
L 224.689451 205.709307 
L 226.138419 203.791228 
L 227.373278 201.799585 
L 228.407209 199.742966 
L 229.2626 197.633953 
L 230.168341 194.763047 
L 230.840338 191.849687 
L 231.268119 188.916982 
L 231.389318 186.718491 
L 231.293425 184.533386 
L 230.940148 182.376212 
L 230.304638 180.263851 
L 229.386675 178.211743 
L 228.209579 176.22926 
L 226.809333 174.317621 
L 225.221868 172.472836 
L 222.85897 170.112058 
L 220.242769 167.860453 
L 217.399442 165.706584 
L 213.590937 163.108324 
L 207.143997 159.033022 
L 200.482093 155.042613 
L 196.181274 152.71272 
L 191.735965 150.565764 
L 188.063358 149.003879 
L 182.59565 146.979028 
L 177.188428 145.20022 
L 168.074795 142.48018 
L 163.380422 140.990501 
L 159.606576 139.567188 
L 156.839464 138.284731 
L 154.211199 136.764273 
L 152.575005 135.604294 
L 151.046401 134.326302 
L 148.940612 132.212208 
L 146.957779 129.928393 
L 146.957779 129.928393 
" style="fill:none;stroke:#9467bd;stroke-linecap:square;stroke-width:1.5;"/>
   </g>
   <g id="line2d_95">
    <path clip-path="url(#paded449e77)" d="M 203.321617 236.585669 
L 201.655913 233.990385 
L 200.774933 232.146823 
L 200.349897 230.6521 
L 200.234122 229.57899 
L 200.305557 228.423517 
L 200.633532 227.159811 
L 201.312887 225.756328 
L 202.421196 224.19983 
L 203.909817 222.542825 
L 206.51674 220.071821 
L 210.1563 217.050135 
L 220.598416 208.788762 
L 222.52644 206.924811 
L 224.247462 205.012294 
L 225.755835 203.0423 
L 227.050534 201.014407 
L 228.13578 198.934409 
L 229.020009 196.81188 
L 229.712989 194.657928 
L 230.2219 192.48359 
L 230.547888 190.299203 
L 230.684553 188.114581 
L 230.619089 185.939657 
L 230.336233 183.784662 
L 229.822106 181.660803 
L 229.068538 179.579712 
L 228.076199 177.551758 
L 226.855204 175.584117 
L 225.424139 173.679527 
L 223.80753 171.837241 
L 221.405684 169.473815 
L 218.765251 167.207057 
L 215.19205 164.49066 
L 210.606821 161.358306 
L 204.984086 157.826625 
L 199.158957 154.43234 
L 194.034523 151.672259 
L 189.599753 149.526188 
L 185.915115 148.04934 
L 181.276405 146.431092 
L 172.904464 143.805523 
L 166.413781 141.671115 
L 162.741303 140.268974 
L 159.150802 138.639702 
L 156.547321 137.229615 
L 154.0423 135.641982 
L 151.634958 133.879038 
L 148.517594 131.293484 
L 146.957779 129.928393 
L 146.957779 129.928393 
" style="fill:none;stroke:#8c564b;stroke-linecap:square;stroke-width:1.5;"/>
   </g>
   <g id="line2d_96">
    <path clip-path="url(#paded449e77)" d="M 203.321617 236.585669 
L 201.411751 233.548633 
L 200.518567 231.720387 
L 200.033447 230.266203 
L 199.790375 228.708553 
L 199.819085 227.592681 
L 200.060125 226.395407 
L 200.588482 225.094929 
L 201.494667 223.670829 
L 202.830331 222.128454 
L 204.523932 220.525584 
L 207.386583 218.176214 
L 212.156459 214.635848 
L 217.257217 210.779697 
L 220.196844 208.248406 
L 222.151228 206.318457 
L 223.887721 204.346117 
L 225.404227 202.326627 
L 226.700245 200.261179 
L 227.777308 198.155141 
L 228.638662 196.016499 
L 229.288156 193.854509 
L 229.728703 191.678766 
L 229.960943 189.498801 
L 229.98268 187.32405 
L 229.789462 185.164087 
L 229.376751 183.028236 
L 228.741148 180.926012 
L 227.882351 178.866667 
L 226.805076 176.857904 
L 225.520134 174.904705 
L 224.044672 173.00902 
L 221.817465 170.570693 
L 219.336408 168.22961 
L 216.64367 165.97771 
L 213.03772 163.272438 
L 208.448945 160.155097 
L 202.834985 156.660889 
L 197.024152 153.309259 
L 191.875914 150.573628 
L 188.250596 148.914133 
L 184.528696 147.4778 
L 178.883502 145.561809 
L 168.601113 142.135134 
L 164.028476 140.339666 
L 160.454225 138.698685 
L 156.979034 136.834894 
L 153.605795 134.736268 
L 150.293695 132.417964 
L 146.957779 129.928393 
L 146.957779 129.928393 
" style="fill:none;stroke:#e377c2;stroke-linecap:square;stroke-width:1.5;"/>
   </g>
   <g id="line2d_97">
    <path clip-path="url(#paded449e77)" d="M 203.321617 236.585669 
L 201.17085 233.10476 
L 200.282295 231.279745 
L 199.776752 229.84147 
L 199.478909 228.318214 
L 199.440972 227.240716 
L 199.577092 226.100297 
L 199.94247 224.882794 
L 200.608984 223.573033 
L 201.650928 222.162594 
L 203.093857 220.667647 
L 204.859578 219.139102 
L 207.79281 216.907255 
L 216.892299 210.252039 
L 219.862391 207.666233 
L 221.821585 205.690714 
L 223.550572 203.674709 
L 225.049469 201.616908 
L 226.318861 199.520292 
L 227.360008 197.390678 
L 228.17476 195.235638 
L 228.765161 193.063657 
L 229.132905 190.883633 
L 229.27893 188.704618 
L 229.203386 186.535734 
L 228.906165 184.386183 
L 228.388562 182.264494 
L 227.653287 180.178876 
L 226.705279 178.136803 
L 225.553122 176.143963 
L 224.210032 174.203742 
L 222.152409 171.70088 
L 219.829732 169.293632 
L 217.281773 166.977257 
L 213.83554 164.199994 
L 210.161135 161.535668 
L 205.524218 158.460139 
L 199.878424 155.007896 
L 194.019809 151.699254 
L 190.51556 149.902915 
L 186.830171 148.304374 
L 182.132048 146.556494 
L 167.141412 141.248812 
L 162.612044 139.280711 
L 159.068538 137.512327 
L 155.594156 135.556787 
L 151.304826 132.859301 
L 146.957779 129.928393 
L 146.957779 129.928393 
" style="fill:none;stroke:#7f7f7f;stroke-linecap:square;stroke-width:1.5;"/>
   </g>
   <g id="patch_3">
    <path d="M 57.6 307.584 
L 57.6 41.472 
" style="fill:none;stroke:#000000;stroke-linecap:square;stroke-linejoin:miter;stroke-width:0.8;"/>
   </g>
   <g id="patch_4">
    <path d="M 414.72 307.584 
L 414.72 41.472 
" style="fill:none;stroke:#000000;stroke-linecap:square;stroke-linejoin:miter;stroke-width:0.8;"/>
   </g>
   <g id="patch_5">
    <path d="M 57.6 307.584 
L 414.72 307.584 
" style="fill:none;stroke:#000000;stroke-linecap:square;stroke-linejoin:miter;stroke-width:0.8;"/>
   </g>
   <g id="patch_6">
    <path d="M 57.6 41.472 
L 414.72 41.472 
" style="fill:none;stroke:#000000;stroke-linecap:square;stroke-linejoin:miter;stroke-width:0.8;"/>
   </g>
   <g id="legend_1">
    <g id="patch_7">
     <path d="M 369.3575 313.67825 
L 407.72 313.67825 
Q 409.72 313.67825 409.72 311.67825 
L 409.72 48.472 
Q 409.72 46.472 407.72 46.472 
L 369.3575 46.472 
Q 367.3575 46.472 367.3575 48.472 
L 367.3575 311.67825 
Q 367.3575 313.67825 369.3575 313.67825 
z
" style="fill:#ffffff;opacity:0.8;stroke:#cccccc;stroke-linejoin:miter;"/>
    </g>
    <g id="line2d_98">
     <path d="M 371.3575 54.570437 
L 391.3575 54.570437 
" style="fill:none;stroke:#1f77b4;stroke-linecap:square;stroke-width:1.5;"/>
    </g>
    <g id="line2d_99"/>
    <g id="text_17">
     <!-- 0 -->
     <g transform="translate(399.3575 58.070437)scale(0.1 -0.1)">
      <use xlink:href="#DejaVuSans-48"/>
     </g>
    </g>
    <g id="line2d_100">
     <path d="M 371.3575 69.248562 
L 391.3575 69.248562 
" style="fill:none;stroke:#ff7f0e;stroke-linecap:square;stroke-width:1.5;"/>
    </g>
    <g id="line2d_101"/>
    <g id="text_18">
     <!-- 1 -->
     <g transform="translate(399.3575 72.748562)scale(0.1 -0.1)">
      <use xlink:href="#DejaVuSans-49"/>
     </g>
    </g>
    <g id="line2d_102">
     <path d="M 371.3575 83.926688 
L 391.3575 83.926688 
" style="fill:none;stroke:#2ca02c;stroke-linecap:square;stroke-width:1.5;"/>
    </g>
    <g id="line2d_103"/>
    <g id="text_19">
     <!-- 2 -->
     <g transform="translate(399.3575 87.426688)scale(0.1 -0.1)">
      <use xlink:href="#DejaVuSans-50"/>
     </g>
    </g>
    <g id="line2d_104">
     <path d="M 371.3575 98.604812 
L 391.3575 98.604812 
" style="fill:none;stroke:#d62728;stroke-linecap:square;stroke-width:1.5;"/>
    </g>
    <g id="line2d_105"/>
    <g id="text_20">
     <!-- 3 -->
     <g transform="translate(399.3575 102.104812)scale(0.1 -0.1)">
      <use xlink:href="#DejaVuSans-51"/>
     </g>
    </g>
    <g id="line2d_106">
     <path d="M 371.3575 113.282938 
L 391.3575 113.282938 
" style="fill:none;stroke:#9467bd;stroke-linecap:square;stroke-width:1.5;"/>
    </g>
    <g id="line2d_107"/>
    <g id="text_21">
     <!-- 4 -->
     <g transform="translate(399.3575 116.782938)scale(0.1 -0.1)">
      <use xlink:href="#DejaVuSans-52"/>
     </g>
    </g>
    <g id="line2d_108">
     <path d="M 371.3575 127.961062 
L 391.3575 127.961062 
" style="fill:none;stroke:#8c564b;stroke-linecap:square;stroke-width:1.5;"/>
    </g>
    <g id="line2d_109"/>
    <g id="text_22">
     <!-- 5 -->
     <g transform="translate(399.3575 131.461062)scale(0.1 -0.1)">
      <use xlink:href="#DejaVuSans-53"/>
     </g>
    </g>
    <g id="line2d_110">
     <path d="M 371.3575 142.639187 
L 391.3575 142.639187 
" style="fill:none;stroke:#e377c2;stroke-linecap:square;stroke-width:1.5;"/>
    </g>
    <g id="line2d_111"/>
    <g id="text_23">
     <!-- 0 -->
     <g transform="translate(399.3575 146.139187)scale(0.1 -0.1)">
      <use xlink:href="#DejaVuSans-48"/>
     </g>
    </g>
    <g id="line2d_112">
     <path d="M 371.3575 157.317312 
L 391.3575 157.317312 
" style="fill:none;stroke:#7f7f7f;stroke-linecap:square;stroke-width:1.5;"/>
    </g>
    <g id="line2d_113"/>
    <g id="text_24">
     <!-- 1 -->
     <g transform="translate(399.3575 160.817312)scale(0.1 -0.1)">
      <use xlink:href="#DejaVuSans-49"/>
     </g>
    </g>
    <g id="line2d_114">
     <path d="M 371.3575 171.995437 
L 391.3575 171.995437 
" style="fill:none;stroke:#bcbd22;stroke-linecap:square;stroke-width:1.5;"/>
    </g>
    <g id="line2d_115"/>
    <g id="text_25">
     <!-- 2 -->
     <g transform="translate(399.3575 175.495437)scale(0.1 -0.1)">
      <use xlink:href="#DejaVuSans-50"/>
     </g>
    </g>
    <g id="line2d_116">
     <path d="M 371.3575 186.673562 
L 391.3575 186.673562 
" style="fill:none;stroke:#17becf;stroke-linecap:square;stroke-width:1.5;"/>
    </g>
    <g id="line2d_117"/>
    <g id="text_26">
     <!-- 3 -->
     <g transform="translate(399.3575 190.173562)scale(0.1 -0.1)">
      <use xlink:href="#DejaVuSans-51"/>
     </g>
    </g>
    <g id="line2d_118">
     <path d="M 371.3575 201.351687 
L 391.3575 201.351687 
" style="fill:none;stroke:#1f77b4;stroke-linecap:square;stroke-width:1.5;"/>
    </g>
    <g id="line2d_119"/>
    <g id="text_27">
     <!-- 4 -->
     <g transform="translate(399.3575 204.851687)scale(0.1 -0.1)">
      <use xlink:href="#DejaVuSans-52"/>
     </g>
    </g>
    <g id="line2d_120">
     <path d="M 371.3575 216.029812 
L 391.3575 216.029812 
" style="fill:none;stroke:#ff7f0e;stroke-linecap:square;stroke-width:1.5;"/>
    </g>
    <g id="line2d_121"/>
    <g id="text_28">
     <!-- 5 -->
     <g transform="translate(399.3575 219.529812)scale(0.1 -0.1)">
      <use xlink:href="#DejaVuSans-53"/>
     </g>
    </g>
    <g id="line2d_122">
     <path d="M 371.3575 230.707937 
L 391.3575 230.707937 
" style="fill:none;stroke:#2ca02c;stroke-linecap:square;stroke-width:1.5;"/>
    </g>
    <g id="line2d_123"/>
    <g id="text_29">
     <!-- 0 -->
     <g transform="translate(399.3575 234.207937)scale(0.1 -0.1)">
      <use xlink:href="#DejaVuSans-48"/>
     </g>
    </g>
    <g id="line2d_124">
     <path d="M 371.3575 245.386062 
L 391.3575 245.386062 
" style="fill:none;stroke:#d62728;stroke-linecap:square;stroke-width:1.5;"/>
    </g>
    <g id="line2d_125"/>
    <g id="text_30">
     <!-- 1 -->
     <g transform="translate(399.3575 248.886062)scale(0.1 -0.1)">
      <use xlink:href="#DejaVuSans-49"/>
     </g>
    </g>
    <g id="line2d_126">
     <path d="M 371.3575 260.064187 
L 391.3575 260.064187 
" style="fill:none;stroke:#9467bd;stroke-linecap:square;stroke-width:1.5;"/>
    </g>
    <g id="line2d_127"/>
    <g id="text_31">
     <!-- 2 -->
     <g transform="translate(399.3575 263.564187)scale(0.1 -0.1)">
      <use xlink:href="#DejaVuSans-50"/>
     </g>
    </g>
    <g id="line2d_128">
     <path d="M 371.3575 274.742312 
L 391.3575 274.742312 
" style="fill:none;stroke:#8c564b;stroke-linecap:square;stroke-width:1.5;"/>
    </g>
    <g id="line2d_129"/>
    <g id="text_32">
     <!-- 3 -->
     <g transform="translate(399.3575 278.242312)scale(0.1 -0.1)">
      <use xlink:href="#DejaVuSans-51"/>
     </g>
    </g>
    <g id="line2d_130">
     <path d="M 371.3575 289.420437 
L 391.3575 289.420437 
" style="fill:none;stroke:#e377c2;stroke-linecap:square;stroke-width:1.5;"/>
    </g>
    <g id="line2d_131"/>
    <g id="text_33">
     <!-- 4 -->
     <g transform="translate(399.3575 292.920437)scale(0.1 -0.1)">
      <use xlink:href="#DejaVuSans-52"/>
     </g>
    </g>
    <g id="line2d_132">
     <path d="M 371.3575 304.098562 
L 391.3575 304.098562 
" style="fill:none;stroke:#7f7f7f;stroke-linecap:square;stroke-width:1.5;"/>
    </g>
    <g id="line2d_133"/>
    <g id="text_34">
     <!-- 5 -->
     <g transform="translate(399.3575 307.598562)scale(0.1 -0.1)">
      <use xlink:href="#DejaVuSans-53"/>
     </g>
    </g>
   </g>
  </g>
 </g>
 <defs>
  <clipPath id="paded449e77">
   <rect height="266.112" width="357.12" x="57.6" y="41.472"/>
  </clipPath>
 </defs>
</svg>
